<svg width="86" height="24" viewBox="0 0 86 24" fill="none" xmlns="http://www.w3.org/2000/svg">
    <path d="M19.0909 14.1818H16.3636V9.81817H19.0909C20.0618 9.81817 21.0109 9.53025 21.8182 8.99084C22.6255 8.45142 23.2547 7.68472 23.6263 6.7877C23.9979 5.89069 24.0951 4.90363 23.9057 3.95136C23.7162 2.99909 23.2487 2.12437 22.5621 1.43783C21.8756 0.751277 21.0009 0.283732 20.0486 0.0943137C19.0963 -0.0951046 18.1093 0.00211175 17.2123 0.373669C16.3152 0.745227 15.5486 1.37444 15.0091 2.18173C14.4697 2.98903 14.1818 3.93815 14.1818 4.90908V7.63635H9.81817V4.90908C9.81817 3.93815 9.53025 2.98903 8.99084 2.18173C8.45142 1.37444 7.68472 0.745227 6.7877 0.373669C5.89069 0.00211175 4.90363 -0.0951046 3.95136 0.0943137C2.99909 0.283732 2.12437 0.751277 1.43783 1.43783C0.751277 2.12437 0.283732 2.99909 0.0943137 3.95136C-0.0951046 4.90363 0.00211175 5.89069 0.373669 6.7877C0.745227 7.68472 1.37444 8.45142 2.18173 8.99084C2.98903 9.53025 3.93815 9.81817 4.90908 9.81817H7.63635V14.1818H4.90908C3.93815 14.1818 2.98903 14.4697 2.18173 15.0091C1.37444 15.5486 0.745227 16.3152 0.373669 17.2123C0.00211175 18.1093 -0.0951046 19.0963 0.0943137 20.0486C0.283732 21.0009 0.751277 21.8756 1.43783 22.5621C2.12437 23.2487 2.99909 23.7162 3.95136 23.9057C4.90363 24.0951 5.89069 23.9979 6.7877 23.6263C7.68472 23.2547 8.45142 22.6255 8.99084 21.8182C9.53025 21.0109 9.81817 20.0618 9.81817 19.0909V16.3636H14.1818V19.0909C14.1818 20.0618 14.4697 21.0109 15.0091 21.8182C15.5486 22.6255 16.3152 23.2547 17.2123 23.6263C18.1093 23.9979 19.0963 24.0951 20.0486 23.9057C21.0009 23.7162 21.8756 23.2487 22.5621 22.5621C23.2487 21.8756 23.7162 21.0009 23.9057 20.0486C24.0951 19.0963 23.9979 18.1093 23.6263 17.2123C23.2547 16.3152 22.6255 15.5486 21.8182 15.0091C21.0109 14.4697 20.0618 14.1818 19.0909 14.1818ZM16.3636 4.90908C16.3636 4.36967 16.5236 3.84238 16.8232 3.39389C17.1229 2.94539 17.5489 2.59583 18.0472 2.38941C18.5456 2.18298 19.0939 2.12898 19.623 2.23421C20.152 2.33944 20.6379 2.59919 21.0194 2.9806C21.4008 3.36202 21.6605 3.84797 21.7658 4.37701C21.871 4.90605 21.817 5.45442 21.6106 5.95276C21.4041 6.4511 21.0546 6.87704 20.6061 7.17672C20.1576 7.4764 19.6303 7.63635 19.0909 7.63635H16.3636V4.90908ZM2.1818 4.90908C2.1818 4.18576 2.46914 3.49207 2.9806 2.9806C3.49207 2.46914 4.18576 2.1818 4.90908 2.1818C5.63239 2.1818 6.32609 2.46914 6.83755 2.9806C7.34901 3.49207 7.63635 4.18576 7.63635 4.90908V7.63635H4.90908C4.18576 7.63635 3.49207 7.34901 2.9806 6.83755C2.46914 6.32609 2.1818 5.63239 2.1818 4.90908ZM7.63635 19.0909C7.63635 19.6303 7.4764 20.1576 7.17672 20.6061C6.87704 21.0546 6.4511 21.4041 5.95276 21.6106C5.45442 21.817 4.90605 21.871 4.37701 21.7658C3.84797 21.6605 3.36202 21.4008 2.9806 21.0194C2.59919 20.6379 2.33944 20.152 2.23421 19.623C2.12898 19.0939 2.18298 18.5456 2.38941 18.0472C2.59583 17.5489 2.94539 17.1229 3.39389 16.8232C3.84238 16.5236 4.36967 16.3636 4.90908 16.3636H7.63635V19.0909ZM9.81817 9.81817H14.1818V14.1818H9.81817V9.81817ZM19.0909 21.8182C18.3676 21.8182 17.6739 21.5308 17.1624 21.0194C16.651 20.5079 16.3636 19.8142 16.3636 19.0909V16.3636H19.0909C19.8142 16.3636 20.5079 16.651 21.0194 17.1624C21.5308 17.6739 21.8182 18.3676 21.8182 19.0909C21.8182 19.8142 21.5308 20.5079 21.0194 21.0194C20.5079 21.5308 19.8142 21.8182 19.0909 21.8182Z"
          fill="white"/>
    <path d="M41.6231 19.7813V4.3125H44.3303V19.7813H41.6231ZM35 13.3594V10.7344H50.9534V13.3594H35Z" fill="white"/>
    <path d="M66.7647 24V0H69.762V11.9063H70.0521L81.1711 0H85.087L74.6931 10.8281L85.087 24H81.4612L72.856 12.8438L69.762 16.2188V24H66.7647Z"
          fill="white"/>
</svg>
