<svg width="141" height="25" viewBox="0 0 141 25" fill="none" xmlns="http://www.w3.org/2000/svg">
<path d="M20.1428 7.9266H17.3139C17.1466 7.11291 16.8539 6.39808 16.4356 5.78211C16.025 5.16614 15.5231 4.64903 14.9299 4.23078C14.3444 3.80492 13.6942 3.48553 12.9793 3.2726C12.2645 3.05968 11.5193 2.95321 10.7436 2.95321C9.32916 2.95321 8.04779 3.31063 6.8995 4.02546C5.75882 4.74028 4.85007 5.79352 4.17326 7.18515C3.50406 8.57679 3.16946 10.284 3.16946 12.3068C3.16946 14.3296 3.50406 16.0369 4.17326 17.4285C4.85007 18.8201 5.75882 19.8734 6.8995 20.5882C8.04779 21.303 9.32916 21.6604 10.7436 21.6604C11.5193 21.6604 12.2645 21.554 12.9793 21.341C13.6942 21.1281 14.3444 20.8125 14.9299 20.3943C15.5231 19.9684 16.025 19.4475 16.4356 18.8315C16.8539 18.208 17.1466 17.4931 17.3139 16.6871H20.1428C19.9299 17.881 19.5421 18.9494 18.9793 19.8924C18.4166 20.8353 17.717 21.6376 16.8805 22.2992C16.044 22.9532 15.1048 23.4513 14.063 23.7935C13.0288 24.1357 11.9223 24.3068 10.7436 24.3068C8.75121 24.3068 6.97935 23.8201 5.42802 22.8467C3.87669 21.8734 2.65615 20.4893 1.76642 18.6947C0.876687 16.9 0.43182 14.7707 0.43182 12.3068C0.43182 9.84295 0.876687 7.71367 1.76642 5.91899C2.65615 4.12432 3.87669 2.74028 5.42802 1.7669C6.97935 0.793516 8.75121 0.306824 10.7436 0.306824C11.9223 0.306824 13.0288 0.477927 14.063 0.820132C15.1048 1.16234 16.044 1.66424 16.8805 2.32584C17.717 2.97983 18.4166 3.77831 18.9793 4.72127C19.5421 5.65663 19.9299 6.72507 20.1428 7.9266Z" fill="white"/>
<path d="M23.4366 3.13572V0.626216H40.9575V3.13572H33.6115V23.9874H30.7826V3.13572H23.4366Z" fill="white"/>
<path d="M45.3235 23.9874V0.626216H53.217C55.0421 0.626216 56.5402 0.938003 57.7113 1.56158C58.8824 2.17755 59.7493 3.02546 60.312 4.1053C60.8748 5.18515 61.1562 6.41329 61.1562 7.78971C61.1562 9.16614 60.8748 10.3867 60.312 11.4513C59.7493 12.516 58.8862 13.3525 57.7227 13.9608C56.5592 14.5616 55.0725 14.862 53.2626 14.862H46.8748V12.3068H53.1714C54.4185 12.3068 55.4223 12.1243 56.1828 11.7593C56.9508 11.3943 57.506 10.8772 57.8482 10.208C58.198 9.53116 58.3729 8.72508 58.3729 7.78971C58.3729 6.85435 58.198 6.03686 57.8482 5.33724C57.4984 4.63762 56.9394 4.0977 56.1714 3.71747C55.4033 3.32964 54.3881 3.13572 53.1257 3.13572H48.1524V23.9874H45.3235ZM56.3197 13.4931L62.0687 23.9874H58.7835L53.1257 13.4931H56.3197Z" fill="white"/>
<path d="M65.87 23.9874V0.626216H68.6989V21.4779H79.5582V23.9874H65.87Z" fill="white"/>
<path d="M99.4518 19.881V4.82393H102.007V19.881H99.4518ZM93.2008 13.63V11.0749H108.258V13.63H93.2008Z" fill="white"/>
<path d="M123.181 23.9874V0.626216H126.01V12.2156H126.284L136.778 0.626216H140.474L130.664 11.1661L140.474 23.9874H137.052L128.93 13.1281L126.01 16.4133V23.9874H123.181Z" fill="white"/>
</svg>
