<?xml version="1.0" encoding="utf-8"?>
<svg width="18.563904px" height="24px" viewBox="0 0 18.563904 24" version="1.1" xmlns:xlink="http://www.w3.org/1999/xlink" xmlns="http://www.w3.org/2000/svg">
  <path d="M2.65128 0L9.9455 0C10.5628 0 11.1131 0.192169 11.5962 0.576508C12.0793 0.960846 12.3902 1.4538 12.529 2.05533L4.64026 2.05533C3.90808 2.05533 3.28317 2.31418 2.7655 2.83188C2.2478 3.34958 1.98895 3.97449 1.98898 4.70663L1.98898 17.8829C1.40353 17.7319 0.92569 17.4174 0.55542 16.9395C0.18512 16.4615 -3.05176e-05 15.9203 0 15.3157L0 2.65128C0 1.91916 0.25885 1.29422 0.77655 0.77655C1.29422 0.25885 1.91916 0 2.65128 0L2.65128 0ZM5.96622 3.31494L13.2604 3.31494C13.7477 3.31494 14.2006 3.43979 14.619 3.68945C15.0374 3.93912 15.3623 4.27832 15.5937 4.70712L7.29221 4.70712C6.56006 4.70712 5.93515 4.96597 5.41745 5.48364C4.89975 6.00134 4.6409 6.62628 4.64093 7.3584L4.64093 20.6858C4.64093 20.7272 4.64191 20.7685 4.64383 20.8098C4.64575 20.8512 4.64865 20.8924 4.65253 20.9336C4.23901 20.6977 3.91272 20.3739 3.67361 19.9623C3.43451 19.5506 3.31497 19.1068 3.31494 18.6306L3.31494 5.96622C3.31494 5.2341 3.57379 4.60916 4.09149 4.09149C4.60916 3.57379 5.2341 3.31494 5.96622 3.31494L5.96622 3.31494ZM8.61838 6.03296L15.9126 6.03296C16.6447 6.03296 17.2696 6.29181 17.7873 6.80951C18.305 7.32718 18.5639 7.95212 18.5639 8.68423L18.5639 21.3487C18.5639 22.0808 18.305 22.7057 17.7873 23.2234C17.2696 23.7411 16.6447 23.9999 15.9126 24L8.61838 24C7.88626 23.9999 7.26132 23.7411 6.74362 23.2234C6.22592 22.7057 5.96707 22.0808 5.9671 21.3487L5.9671 8.68423C5.96707 7.95212 6.22592 7.32718 6.74362 6.80951C7.26132 6.29181 7.88626 6.03296 8.61838 6.03296L8.61838 6.03296Z" id="AWS" fill="#D3D3D3" fill-rule="evenodd" stroke="none" />
</svg>