<?xml version="1.0" encoding="utf-8"?>
<svg width="24px" height="24px" viewBox="0 0 24 24" version="1.1" xmlns:xlink="http://www.w3.org/1999/xlink" xmlns="http://www.w3.org/2000/svg">
  <defs>
    <path d="M0 0L24 0L24 24L0 24L0 0Z" id="path_1" />
    <clipPath id="mask_1">
      <use xlink:href="#path_1" />
    </clipPath>
  </defs>
  <g id="ChromeDP">
    <path d="M0 0L24 0L24 24L0 24L0 0Z" id="Background" fill="none" fill-rule="evenodd" stroke="none" />
    <g clip-path="url(#mask_1)">
      <path d="M12 0.960022C5.91218 0.960022 0.960022 5.91218 0.960022 12C0.960022 18.0879 5.91218 23.04 12 23.04C18.0879 23.04 23.04 18.0879 23.04 12C23.04 5.91218 18.0879 0.960022 12 0.960022L12 0.960022ZM3.86067 6.0788L7.22254 11.5566C7.44718 9.11725 9.50308 7.20005 12 7.20005L20.8622 7.20005C21.0307 7.51013 21.1801 7.83173 21.316 8.16005L14.8679 8.16005C16.0381 9.03605 16.8 10.429 16.8 12C16.8 12.8578 16.5707 13.6623 16.1747 14.3597C16.1714 14.3665 16.172 14.3736 16.1682 14.3804L11.7779 22.0688C11.4193 22.0606 11.066 22.0333 10.7175 21.9891L13.9088 16.4025C13.3232 16.6574 12.6783 16.8 12 16.8C10.2917 16.8 8.7931 15.8998 7.94254 14.5519C7.9315 14.538 7.91839 14.527 7.90879 14.5116L3.27942 6.96755C3.4575 6.65987 3.65187 6.3644 3.86067 6.0788L3.86067 6.0788ZM12 8.16003C9.87926 8.16003 8.16003 9.87926 8.16003 12C8.16003 14.1208 9.87926 15.84 12 15.84C14.1208 15.84 15.84 14.1208 15.84 12C15.84 9.87926 14.1208 8.16003 12 8.16003L12 8.16003Z" id="Shape" fill="#D3D3D3" fill-rule="evenodd" stroke="none" />
    </g>
  </g>
</svg>