<?xml version="1.0" encoding="utf-8"?>
<svg width="23.878845px" height="24px" viewBox="0 0 23.878845 24" version="1.1" xmlns:xlink="http://www.w3.org/1999/xlink" xmlns="http://www.w3.org/2000/svg">
  <path d="M11.7037 0.2906L4.65497 4.13537L18.1117 4.13536C18.1117 4.13536 14.909 0.94445 14.2669 0.2906C13.6248 -0.363251 11.7037 0.2906 11.7037 0.2906L11.7037 0.2906ZM4.65497 4.77617L20.034 20.1552L5.93655 20.1552L4.65497 18.8737C4.65497 18.8737 4.01328 17.9687 4.01416 16.9513C4.01505 15.9338 4.01416 4.77617 4.01416 4.77617L4.01416 4.13538L4.65497 4.77617L4.65497 4.77617ZM23.8788 19.5144L20.3545 19.5144L5.61621 4.77613C5.61621 4.77613 15.8842 4.7323 17.4709 4.77615C19.0576 4.81999 19.3933 5.41694 19.3933 5.41694L23.8788 9.90251L23.8788 19.5144L23.8788 19.5144ZM0.810211 15.0289L3.37341 17.592L3.37341 5.41693C3.37341 5.41693 0.784058 11.2063 0.169434 12.4657C-0.445221 13.725 0.810211 15.0289 0.810211 15.0289L0.810211 15.0289ZM6.57739 20.796L20.0341 20.796L20.0341 24L9.78137 24L6.57739 20.796L6.57739 20.796Z" id="Dart" fill="#D3D3D3" fill-rule="evenodd" stroke="none" />
</svg>