<?xml version="1.0" encoding="utf-8"?>
<svg width="24px" height="24px" viewBox="0 0 24 24" version="1.1" xmlns:xlink="http://www.w3.org/1999/xlink" xmlns="http://www.w3.org/2000/svg">
  <defs>
    <path d="M0 0L24 0L24 24L0 24L0 0Z" id="path_1" />
    <clipPath id="mask_1">
      <use xlink:href="#path_1" />
    </clipPath>
  </defs>
  <g id="Docker">
    <path d="M0 0L24 0L24 24L0 24L0 0Z" id="Background" fill="#FFFFFF" fill-opacity="0" fill-rule="evenodd" stroke="none" />
    <g clip-path="url(#mask_1)">
      <path d="M6 3L6 6L9 6L9 3L6 3L6 3ZM10.5 3L10.5 6L13.5 6L13.5 3L10.5 3L10.5 3ZM17.6982 7.00781L17.0889 7.45605C17.0889 7.45605 16.5798 7.83005 16.0752 8.41406C15.5706 8.99807 15 9.82775 15 10.875C15 11.6121 15.0602 11.6459 15.1201 12L1.4707 12L1.5 12.7793C1.58157 14.8186 2.21303 16.5375 3.1875 17.8857L3.1875 18L3.27832 18C4.69339 19.8829 6.80749 20.9923 9.18457 21L9.1875 21C12.0207 21 13.9859 20.3251 15.4277 19.1455C16.7676 18.0493 17.5926 16.5361 18.4395 14.915C21.2052 14.6723 22.4238 12.5156 22.4238 12.5156L22.6787 11.9941L22.2393 11.6191C22.2393 11.6191 20.985 10.7429 19.333 10.6289C19.0763 9.01739 18.1406 7.62305 18.1406 7.62305L17.6982 7.00781L17.6982 7.00781ZM1.5 7.5L1.5 10.5L4.5 10.5L4.5 7.5L1.5 7.5L1.5 7.5ZM6 7.5L6 10.5L9 10.5L9 7.5L6 7.5L6 7.5ZM10.5 7.5L10.5 10.5L13.5 10.5L13.5 7.5L10.5 7.5L10.5 7.5ZM17.2559 9.34863C17.5731 9.9094 18 10.4934 18 11.25L18 12.0879L18.832 11.9941C19.5952 11.9093 20.2083 12.1484 20.6572 12.3896C20.2813 12.8753 19.6055 13.5 18 13.5L17.543 13.5L17.332 13.9072C16.434 15.6482 15.6309 17.0425 14.4785 17.9854C13.3266 18.9278 11.7926 19.4995 9.19043 19.5C7.66672 19.4951 6.30888 18.971 5.25879 18L7.5 18L7.5 16.5L4.11035 16.5C3.63829 15.6572 3.29464 14.6666 3.15234 13.5L16.9775 13.5L16.6494 12.5127C16.6494 12.5127 16.5 12.1161 16.5 10.875C16.5 10.4223 16.8219 9.8435 17.209 9.39551C17.2332 9.36753 17.2318 9.3753 17.2559 9.34863L17.2559 9.34863ZM9.75 15C9.33579 15 9 15.3358 9 15.75C9 16.1642 9.33579 16.5 9.75 16.5C10.1642 16.5 10.5 16.1642 10.5 15.75C10.5 15.3358 10.1642 15 9.75 15L9.75 15Z" id="Shape" fill="#D3D3D3" fill-rule="evenodd" stroke="none" />
    </g>
  </g>
</svg>