<?xml version="1.0" encoding="utf-8"?>
<svg width="32px" height="32px" viewBox="0 0 32 32" version="1.1" xmlns:xlink="http://www.w3.org/1999/xlink" xmlns="http://www.w3.org/2000/svg">
  <defs>
    <path d="M0 0L32 0L32 32L0 32L0 0Z" id="path_1" />
    <clipPath id="mask_1">
      <use xlink:href="#path_1" />
    </clipPath>
  </defs>
  <g id="Figma">
    <path d="M0 0L32 0L32 32L0 32L0 0Z" id="Background" fill="#FFFFFF" fill-opacity="0" fill-rule="evenodd" stroke="none" />
    <g clip-path="url(#mask_1)">
      <path d="M12.5 1C9.467 1 7 3.467 7 6.5C7 8.15792 7.74051 9.64316 8.9043 10.6523C7.17737 11.581 6 13.4055 6 15.5C6 17.3606 6.93166 19.0043 8.34961 20C6.93166 20.9957 6 22.6394 6 24.5C6 27.533 8.467 30 11.5 30C14.533 30 17 27.533 17 24.5L17 19L17 12L20.5 12C23.533 12 26 9.533 26 6.5C26 3.467 23.533 1 20.5 1L12.5 1L12.5 1ZM12.5 3L20.5 3C22.43 3 24 4.57 24 6.5C24 8.43 22.43 10 20.5 10L17 10L12.5 10C10.57 10 9 8.43 9 6.5C9 4.57 10.57 3 12.5 3L12.5 3ZM11.5 12L12.5 12L15 12L15 19L11.5 19C9.57 19 8 17.43 8 15.5C8 13.57 9.57 12 11.5 12L11.5 12ZM21 12C18.7909 12 17 13.7909 17 16C17 18.2091 18.7908 20 21 20C23.2091 20 25 18.2092 25 16C25 13.7909 23.2092 12 21 12L21 12ZM11.5 21L15 21L15 24.5C15 26.43 13.43 28 11.5 28C9.57 28 8 26.43 8 24.5C8 22.57 9.57 21 11.5 21L11.5 21Z" id="Shape" fill="#D3D3D3" fill-rule="evenodd" stroke="none" />
    </g>
  </g>
</svg>