<?xml version="1.0" encoding="utf-8"?>
<svg width="23.932892px" height="24.000015px" viewBox="0 0 23.932892 24.000015" version="1.1" xmlns:xlink="http://www.w3.org/1999/xlink" xmlns="http://www.w3.org/2000/svg">
  <path d="M2.83315 24L14.5938 12.2323C14.5938 12.2323 15.2245 12.995 17.0336 12.9282C18.8427 12.8615 19.5984 11.8527 19.5984 11.8527L20.4116 11.0302L23.7897 5.46265C23.7897 5.46265 24.1118 4.72343 23.7897 4.45037C23.4675 4.17731 22.9131 4.21253 22.7262 4.45037C22.5393 4.6882 17.9719 9.32196 17.9719 9.32196L17.4089 8.75255L21.6628 3.31155C21.6628 3.31155 22.1071 2.72921 21.6628 2.29927C21.2184 1.86933 20.8804 2.17879 20.787 2.29927C20.6936 2.41975 15.4071 6.79125 15.4071 6.79125L14.7815 6.09531L19.5984 1.16045C19.5984 1.16045 19.9781 0.476051 19.2856 0.0849075C18.5931 -0.306229 17.6591 0.780853 17.6591 0.780853L12.9674 3.81769C12.9674 3.81769 11.2199 5.16113 11.2158 6.79125C11.2116 8.42136 11.9039 9.51175 11.9039 9.51175L0.205765 21.4693C0.205765 21.4693 -0.450546 22.7363 0.5811 23.7469C1.61275 24.7575 2.83315 24 2.83315 24Z" id="Fork" fill="#D3D3D3" fill-rule="evenodd" stroke="none" />
</svg>