<?xml version="1.0" encoding="utf-8"?>
<svg width="25.714294px" height="24px" viewBox="0 0 25.714294 24" version="1.1" xmlns:xlink="http://www.w3.org/1999/xlink" xmlns="http://www.w3.org/2000/svg">
  <path d="M6.64282 6.21429C6.64282 2.78223 9.37708 0 12.75 0C16.1228 0 18.8571 2.78223 18.8571 6.21429C18.8571 9.64634 16.1228 12.4286 12.75 12.4286C9.37708 12.4286 6.64282 9.64634 6.64282 6.21429L6.64282 6.21429ZM10.2858 3.21428C10.2858 3.21428 11.702 1.80527 14.1429 2.57141C16.5838 3.33756 17.3971 4.81979 17.3572 5.57141C17.3173 6.32303 16.9673 8.1221 15.8572 8.99998C14.747 9.87787 12.9229 11.0472 11.7858 9.5357C10.6486 8.02419 9.97769 7.13086 9.75003 5.67855C9.5224 4.22625 10.2858 3.21428 10.2858 3.21428L10.2858 3.21428ZM0 17.7857C0 14.3536 2.73425 11.5714 6.10715 11.5714C9.48001 11.5714 12.2143 14.3536 12.2143 17.7857C12.2143 21.2178 9.48001 24 6.10715 24C2.73425 24 0 21.2178 0 17.7857L0 17.7857ZM19.6071 11.5714C16.2343 11.5714 13.5 14.3536 13.5 17.7857C13.5 21.2178 16.2343 24 19.6071 24C22.98 24 25.7143 21.2178 25.7143 17.7857C25.7143 14.3536 22.98 11.5714 19.6071 11.5714L19.6071 11.5714ZM3.64288 14.7857C3.64288 14.7857 5.05908 13.3767 7.5 14.1429C9.94095 14.909 10.7542 16.3913 10.7143 17.1429C10.6744 17.8945 10.3244 19.6936 9.21429 20.5715C8.10416 21.4493 6.28 22.6187 5.14288 21.1072C4.00574 19.5957 3.33481 18.7023 3.10715 17.25C2.87952 15.7977 3.64288 14.7857 3.64288 14.7857L3.64288 14.7857ZM21 14.1429C18.5591 13.3767 17.1429 14.7857 17.1429 14.7857C17.1429 14.7857 16.3795 15.7977 16.6071 17.25C16.8348 18.7023 17.5057 19.5957 18.6429 21.1072C19.78 22.6187 21.6042 21.4493 22.7143 20.5715C23.8244 19.6936 24.1744 17.8945 24.2143 17.1429C24.2542 16.3913 23.4409 14.909 21 14.1429L21 14.1429Z" id="Getx" fill="#D3D3D3" fill-rule="evenodd" stroke="none" />
</svg>