<?xml version="1.0" encoding="utf-8"?>
<svg width="17.03894px" height="23.999939px" viewBox="0 0 17.03894 23.999939" version="1.1" xmlns:xlink="http://www.w3.org/1999/xlink" xmlns="http://www.w3.org/2000/svg">
  <path d="M14.961 4.46753L9.974 4.46753L11.5324 0C11.5324 0 13.8466 0.500839 14.3376 1.97403C14.8286 3.44721 14.961 4.46753 14.961 4.46753L14.961 4.46753ZM11.2207 1.35063L11.6363 0.519463C11.6363 0.519463 11.7489 0.370483 12.0519 0.519463C12.3549 0.668442 13.5976 1.05631 14.0259 2.18179C14.4316 2.77016 13.922 2.80517 13.922 2.80517L10.8051 3.22075C10.8051 3.22075 10.4897 3.25601 10.5974 3.01296C10.705 2.76991 11.2207 1.35063 11.2207 1.35063L11.2207 1.35063ZM14.3377 4.25967L10.3896 4.25967C10.3896 4.25967 10.3134 4.21291 10.2857 4.15579C10.2829 4.14987 10.2801 4.14433 10.2773 4.13903C10.2539 4.09318 10.2392 4.06437 10.2857 3.94798C10.3377 3.81811 10.3837 3.70688 10.4935 3.63631C10.6033 3.56575 10.8052 3.53242 10.8052 3.53242C10.8052 3.53242 13.5732 3.07207 13.9221 3.01292C14.271 2.95378 14.3377 3.11682 14.3377 3.11682C14.3377 3.11682 14.5146 3.62745 14.6494 3.94799C14.7841 4.26853 14.3377 4.25967 14.3377 4.25967L14.3377 4.25967ZM0 4.88306L2.07791 23.9999L14.6494 23.9999L17.039 4.88306L14.8571 4.88306C14.8571 4.88306 13.8783 6.81427 12.5714 7.58436C11.2645 8.35445 8.72726 8.62331 8.72726 8.62331L9.87012 4.88306L0 4.88306L0 4.88306ZM9.87015 5.50643L10.1819 5.19475C10.1819 5.19475 10.3594 4.9834 10.7013 4.98693C11.0433 4.99046 14.2338 4.88306 14.2338 4.88306C14.2338 4.88306 14.5122 5.03839 14.4416 5.19475C14.3709 5.3511 12.6234 7.63631 11.6364 7.58436C11.182 7.58842 11.0753 7.37656 11.0753 7.37656L9.97406 6.23371C9.97406 6.23371 9.7767 6.02571 9.76624 5.92202C9.75577 5.81832 9.87015 5.50643 9.87015 5.50643L9.87015 5.50643ZM9.55844 6.7533L9.14285 8.00006C9.14285 8.00006 9.13834 8.02522 9.03897 8.20785C8.93958 8.39047 9.14285 8.41563 9.14285 8.41563C9.14285 8.41563 10.3627 8.142 10.8052 8.00005C11.2477 7.85811 11.013 7.68837 11.013 7.68837C11.013 7.68837 10.0502 6.67799 9.87012 6.54552C9.69009 6.41304 9.55844 6.7533 9.55844 6.7533L9.55844 6.7533ZM5.50653 10.0779C4.30154 10.0779 3.32471 11.0547 3.32471 12.2597C3.32471 13.4647 4.30154 14.4415 5.50653 14.4415C6.71152 14.4415 7.68835 13.4647 7.68835 12.2597C7.68835 11.0547 6.71152 10.0779 5.50653 10.0779L5.50653 10.0779ZM11.7403 10.0779C10.5353 10.0779 9.55847 11.0547 9.55847 12.2597C9.55847 13.4647 10.5353 14.4415 11.7403 14.4415C12.9453 14.4415 13.9221 13.4647 13.9221 12.2597C13.9221 11.0547 12.9453 10.0779 11.7403 10.0779L11.7403 10.0779ZM11.4464 11.1956C11.6825 11.3158 11.8441 11.5611 11.8441 11.8441C11.8441 12.2458 11.5185 12.5714 11.1169 12.5714C11.0319 12.5714 10.9504 12.5568 10.8746 12.5301C11.0248 12.9189 11.4023 13.1947 11.8441 13.1947C12.4179 13.1947 12.8831 12.7296 12.8831 12.1558C12.8831 11.582 12.4179 11.1168 11.8441 11.1168C11.7033 11.1168 11.5689 11.1449 11.4464 11.1956L11.4464 11.1956ZM5.54089 11.8442C5.54089 11.5612 5.37924 11.316 5.14322 11.1958C5.26572 11.145 5.40005 11.1169 5.54089 11.1169C6.11472 11.1169 6.57986 11.5821 6.57986 12.1559C6.57986 12.7297 6.11472 13.1949 5.54089 13.1949C5.09906 13.1949 4.72162 12.9191 4.57141 12.5302C4.64719 12.557 4.7287 12.5715 4.81363 12.5715C5.2153 12.5715 5.54089 12.2459 5.54089 11.8442L5.54089 11.8442ZM7.48053 15.0649C7.48053 15.4092 7.99222 15.6883 8.62338 15.6883C9.25458 15.6883 9.76624 15.4092 9.76624 15.0649C9.76624 14.7206 9.25458 14.4415 8.62338 14.4415C7.99222 14.4415 7.48053 14.7206 7.48053 15.0649L7.48053 15.0649ZM7.27274 15.1677C7.27274 15.1611 7.27292 15.1545 7.27328 15.1479C6.05457 15.3078 5.19482 15.6952 5.19482 16.1478C5.19482 16.7432 6.68332 17.2259 8.5195 17.2259C10.3557 17.2259 11.8442 16.7432 11.8442 16.1478C11.8442 15.7215 11.0812 15.353 9.97391 15.178C9.96301 15.5522 9.36255 15.8537 8.62338 15.8537C7.87744 15.8537 7.27274 15.5466 7.27274 15.1677L7.27274 15.1677ZM9.97406 18.4729L9.97406 17.4337C9.69952 17.523 9.66064 17.6078 9.35068 17.6416C9.29681 17.6425 9.25012 17.6435 9.20834 17.6444C9.01779 17.6483 8.92896 17.6502 8.72729 17.6416L8.72729 18.4729C8.72729 18.6449 8.78815 18.7918 8.90982 18.9135C9.03149 19.0352 9.17838 19.096 9.35046 19.096L9.35089 19.096C9.52295 19.096 9.66983 19.0352 9.7915 18.9135C9.91321 18.7918 9.97403 18.6449 9.97406 18.4729L9.97406 18.4729ZM7.27271 18.4729C7.27271 18.6449 7.33356 18.7918 7.45523 18.9135C7.5769 19.0352 7.72379 19.096 7.89587 19.096L7.8963 19.096C8.06839 19.096 8.21527 19.0352 8.33694 18.9135C8.45862 18.7918 8.51947 18.6449 8.51947 18.4729L8.51947 17.6415C8.39993 17.6378 8.3183 17.6393 8.22772 17.6409L8.22733 17.6409C8.1394 17.6425 8.04321 17.6442 7.89609 17.6415C7.58609 17.6077 7.54721 17.523 7.27271 17.4337L7.27271 18.4729L7.27271 18.4729Z" id="Gin" fill="#D3D3D3" fill-rule="evenodd" stroke="none" />
</svg>