<?xml version="1.0" encoding="utf-8"?>
<svg width="24px" height="24px" viewBox="0 0 24 24" version="1.1" xmlns:xlink="http://www.w3.org/1999/xlink" xmlns="http://www.w3.org/2000/svg">
  <defs>
    <path d="M0 0L24 0L24 24L0 24L0 0Z" id="path_1" />
    <clipPath id="mask_1">
      <use xlink:href="#path_1" />
    </clipPath>
  </defs>
  <g id="Git">
    <path d="M0 0L24 0L24 24L0 24L0 0Z" id="Background" fill="none" fill-rule="evenodd" stroke="none" />
    <g clip-path="url(#mask_1)">
      <path d="M22.4606 10.6031L13.3969 1.53934C13.0125 1.15309 12.5062 0.959961 12 0.959961C11.4937 0.959961 10.9875 1.15309 10.6031 1.53934L8.81062 3.33184L11.0287 5.54996C11.7656 5.11684 12.7256 5.21059 13.3575 5.84246C13.9894 6.47434 14.0812 7.43434 13.6481 8.16934L15.8287 10.35C16.5656 9.91684 17.5256 10.0106 18.1575 10.6425C18.9075 11.3925 18.9075 12.6075 18.1575 13.3575C17.4075 14.1075 16.1925 14.1075 15.4425 13.3575C14.8106 12.7256 14.7169 11.7656 15.15 11.0287L12.9694 8.84809C12.8137 8.93996 12.6506 9.00746 12.48 9.05059L12.48 14.9475C13.3069 15.1612 13.92 15.9056 13.92 16.8C13.92 17.8612 13.0612 18.72 12 18.72C10.9387 18.72 10.08 17.8612 10.08 16.8C10.08 15.9056 10.6931 15.1612 11.52 14.9475L11.52 9.05059C11.1994 8.96809 10.8937 8.80871 10.6425 8.55746C10.0106 7.92559 9.91874 6.96559 10.3519 6.23059L8.13187 4.01059L1.53937 10.6031C0.766866 11.3737 0.766866 12.6262 1.53937 13.3968L10.6031 22.4606C10.9875 22.8468 11.4937 23.04 12 23.04C12.5062 23.04 13.0125 22.8468 13.3969 22.4606L22.4606 13.3968C23.2331 12.6262 23.2331 11.3737 22.4606 10.6031L22.4606 10.6031Z" id="Shape" fill="#D3D3D3" stroke="none" />
    </g>
  </g>
</svg>