<?xml version="1.0" encoding="utf-8"?>
<svg width="187.29999px" height="80px" viewBox="0 0 187.29999 80" version="1.1" xmlns:xlink="http://www.w3.org/1999/xlink" xmlns="http://www.w3.org/2000/svg">
  <defs>
    <path d="M0 0L34 0L34 34L0 34L0 0Z" id="path_1" />
    <clipPath id="mask_1">
      <use xlink:href="#path_1" />
    </clipPath>
  </defs>
  <g id="GithubCover">
    <path d="M0 0L187.3 0L187.3 80L0 80L0 0Z" id="Rectangle" fill="#0F766E" fill-rule="evenodd" stroke="none" />
    <path d="M90.1308 34.2212C90.6353 34.6879 91.2408 34.9212 91.947 34.9212C92.6597 34.9212 93.2667 34.6879 93.7681 34.2212C94.2695 33.7545 94.5202 33.1932 94.5202 32.5373C94.5202 31.8815 94.2695 31.3202 93.7681 30.8535C93.2667 30.3868 92.6597 30.1534 91.947 30.1534C91.2408 30.1534 90.6353 30.3868 90.1308 30.8535C89.6262 31.3202 89.374 31.8815 89.374 32.5373C89.374 33.1932 89.6262 33.7545 90.1308 34.2212L90.1308 34.2212ZM80.2167 36.449C80.7528 36.8116 81.0997 37.324 81.2573 37.9862L86.5738 37.9862C86.4414 36.6871 85.9889 35.5377 85.2163 34.5381C84.4437 33.5385 83.4394 32.7533 82.2033 32.1826C80.9672 31.6118 79.5861 31.3264 78.0599 31.3264C76.3193 31.3264 74.7331 31.7143 73.3016 32.49C71.8699 33.2657 70.7284 34.3978 69.877 35.8861C69.0257 37.3745 68.6 39.1845 68.6 41.3161C68.6 43.3594 68.9988 45.1221 69.7967 46.6042C70.5945 48.0863 71.706 49.2277 73.1312 50.0287C74.5565 50.8296 76.212 51.2301 78.0977 51.2301C79.7879 51.2301 81.2873 50.8974 82.5959 50.2321C83.9045 49.5667 84.9325 48.6081 85.6798 47.3563C86.4272 46.1044 86.8009 44.5955 86.8009 42.8297L86.8009 40.1431L78.2112 40.1431L78.2112 43.8892L81.7304 43.8892C81.7051 44.7343 81.3945 45.4059 80.7985 45.9042C80.2026 46.4024 79.3149 46.6515 78.1356 46.6515C76.7733 46.6515 75.7454 46.1753 75.0516 45.223C74.3579 44.2707 74.011 42.9432 74.011 41.2404C74.011 39.5629 74.3737 38.2542 75.0989 37.3145C75.8242 36.3749 76.849 35.905 78.1734 35.905C78.9996 35.905 79.6807 36.0863 80.2167 36.449L80.2167 36.449ZM113.213 50.9651L113.213 42.7917C113.219 42.0728 113.415 41.5083 113.799 41.0984C114.184 40.6885 114.695 40.4835 115.332 40.4835C116.001 40.4835 116.516 40.6885 116.879 41.0984C117.241 41.5083 117.42 42.0728 117.413 42.7917L117.413 50.9651L122.635 50.9651L122.635 41.6944C122.641 40.6349 122.435 39.6952 122.015 38.8753C121.596 38.0555 121.006 37.4122 120.246 36.9455C119.486 36.4788 118.593 36.2455 117.565 36.2455C116.492 36.2455 115.575 36.5056 114.812 37.0259C114.049 37.5462 113.503 38.2699 113.175 39.197L113.024 39.197L113.024 31.5912L107.991 31.5912L107.991 50.9651L113.213 50.9651L113.213 50.9651ZM142.425 31.5912L142.425 50.9651L147.609 50.9651L147.609 48.5812L147.723 48.5812C148.026 49.3191 148.521 49.9324 149.208 50.4212C149.895 50.9099 150.75 51.1543 151.772 51.1543C152.806 51.1543 153.757 50.8831 154.624 50.3408C155.491 49.7984 156.185 48.9754 156.705 47.8717C157.225 46.7681 157.485 45.3775 157.485 43.6999C157.485 41.9466 157.213 40.5214 156.667 39.424C156.122 38.3267 155.415 37.5226 154.548 37.0117C153.681 36.5009 152.768 36.2455 151.81 36.2455C150.731 36.2455 149.851 36.5151 149.17 37.0543C148.489 37.5935 148.007 38.2321 147.723 38.9699L147.647 38.9699L147.647 31.5912L142.425 31.5912L142.425 31.5912ZM105.872 40.2187L105.872 36.4347L103.375 36.4347L103.375 32.9535L98.1529 32.9535L98.1529 36.4347L96.2988 36.4347L96.2988 40.2187L98.1529 40.2187L98.1529 46.7839C98.134 48.3038 98.5864 49.4406 99.5104 50.1942C100.434 50.9479 101.798 51.2742 103.602 51.1733C104.195 51.1418 104.707 51.0755 105.139 50.9746C105.571 50.8738 105.904 50.7886 106.137 50.7192L105.38 47.0488C105.279 47.074 105.123 47.1055 104.912 47.1434C104.701 47.1812 104.516 47.2001 104.359 47.2001C103.703 47.2001 103.375 46.8974 103.375 46.292L103.375 40.2187L105.872 40.2187L105.872 40.2187ZM89.3361 36.4348L89.3361 50.9653L94.5579 50.9653L94.5579 36.4348L89.3361 36.4348L89.3361 36.4348ZM134.63 36.4348L134.63 44.6082C134.637 45.3271 134.447 45.8916 134.063 46.3015C133.678 46.7114 133.161 46.9164 132.511 46.9164C131.855 46.9164 131.346 46.7114 130.983 46.3015C130.621 45.8916 130.436 45.3271 130.43 44.6082L130.43 36.4348L125.208 36.4348L125.208 45.7055C125.214 46.765 125.427 47.7047 125.847 48.5246C126.266 49.3444 126.856 49.9877 127.616 50.4544C128.376 50.9211 129.263 51.1544 130.279 51.1544C131.363 51.1544 132.3 50.8943 133.088 50.374C133.877 49.8537 134.428 49.13 134.744 48.203L134.895 48.203L134.895 50.9653L139.852 50.9653L139.852 36.4348L134.63 36.4348L134.63 36.4348ZM148.148 46.2165C147.739 45.5984 147.534 44.7596 147.534 43.7001C147.534 42.6217 147.739 41.7782 148.148 41.1696C148.558 40.561 149.123 40.2567 149.842 40.2567C150.561 40.2567 151.119 40.561 151.516 41.1696C151.914 41.7782 152.112 42.6217 152.112 43.7001C152.112 44.7785 151.914 45.6221 151.516 46.2306C151.119 46.8392 150.561 47.1435 149.842 47.1435C149.123 47.1435 148.558 46.8345 148.148 46.2165L148.148 46.2165Z" id="Vector" fill="#4AC9BF" fill-rule="evenodd" stroke="none" />
    <g id="Github-2" transform="translate(29.200012 23.000122)">
      <path d="M0 0L34 0L34 34L0 34L0 0Z" id="Background" fill="#FFFFFF" fill-opacity="0" fill-rule="evenodd" stroke="none" />
      <g clip-path="url(#mask_1)">
        <path d="M15.9375 2.125C8.30908 2.125 2.125 8.30078 2.125 15.9126C2.125 22.0054 6.08447 27.1768 11.5713 29.0029C12.2603 29.1274 12.75 28.4219 12.75 27.8906C12.75 27.5669 12.7583 27.1768 12.75 26.0312C8.90674 26.8613 7.70312 24.1719 7.70312 24.1719C7.07227 22.5781 6.30859 22.1216 6.30859 22.1216C5.05518 21.2666 6.3999 21.2915 6.3999 21.2915C7.78613 21.3828 8.5 22.5781 8.5 22.5781C9.5625 24.4375 11.9614 24.2549 12.75 23.9062C12.75 23.0596 12.8413 22.4453 13.0737 22.0552C8.73242 21.2915 6.3667 18.7847 6.375 15.3149C6.3833 13.2646 7.08887 11.6709 8.23438 10.4922C7.73633 9.86133 7.396 7.70312 8.41699 6.375C10.9819 6.375 12.5093 8.22607 12.5093 8.22607C12.5093 8.22607 13.7129 7.70312 15.9292 7.70312C18.1538 7.70312 19.3491 8.20117 19.3491 8.20117C19.3491 8.20117 20.8848 6.375 23.4497 6.375C24.4707 7.70312 24.1304 9.86133 23.7319 10.4507C24.8276 11.6045 25.5 13.1982 25.5 15.3149C25.5 18.7847 23.1426 21.2915 18.8096 22.0469C19.0835 22.4619 19.125 23.043 19.125 23.9062C19.125 25.749 19.125 27.4341 19.125 27.8906C19.125 28.4219 19.6064 29.1357 20.312 29.0029C25.7988 27.1685 29.75 22.0054 29.75 15.9126C29.75 8.30078 23.5659 2.125 15.9375 2.125L15.9375 2.125Z" id="Shape" fill="#4AC9BF" fill-rule="evenodd" stroke="none" />
      </g>
    </g>
  </g>
</svg>