<?xml version="1.0" encoding="utf-8"?>
<svg width="24px" height="24px" viewBox="0 0 24 24" version="1.1" xmlns:xlink="http://www.w3.org/1999/xlink" xmlns="http://www.w3.org/2000/svg">
  <defs>
    <path d="M0 0L24 0L24 24L0 24L0 0Z" id="path_1" />
    <clipPath id="mask_1">
      <use xlink:href="#path_1" />
    </clipPath>
  </defs>
  <g id="Github">
    <path d="M0 0L24 0L24 24L0 24L0 0Z" id="Background" fill="#FFFFFF" fill-opacity="0" fill-rule="evenodd" stroke="none" />
    <g clip-path="url(#mask_1)">
      <path d="M11.25 1.5C5.86523 1.5 1.5 5.85937 1.5 11.2324C1.5 15.5332 4.29492 19.1836 8.16797 20.4727C8.6543 20.5605 9 20.0625 9 19.6875C9 19.459 9.00586 19.1836 9 18.375C6.28711 18.9609 5.4375 17.0625 5.4375 17.0625C4.99219 15.9375 4.45312 15.6152 4.45312 15.6152C3.56836 15.0117 4.51758 15.0293 4.51758 15.0293C5.49609 15.0937 6 15.9375 6 15.9375C6.75 17.25 8.44336 17.1211 9 16.875C9 16.2773 9.06445 15.8437 9.22852 15.5684C6.16406 15.0293 4.49414 13.2598 4.5 10.8105C4.50586 9.36328 5.00391 8.23828 5.8125 7.40625C5.46094 6.96094 5.2207 5.4375 5.94141 4.5C7.75195 4.5 8.83008 5.80664 8.83008 5.80664C8.83008 5.80664 9.67969 5.4375 11.2441 5.4375C12.8145 5.4375 13.6582 5.78906 13.6582 5.78906C13.6582 5.78906 14.7422 4.5 16.5527 4.5C17.2734 5.4375 17.0332 6.96094 16.752 7.37695C17.5254 8.19141 18 9.31641 18 10.8105C18 13.2598 16.3359 15.0293 13.2773 15.5625C13.4707 15.8555 13.5 16.2656 13.5 16.875C13.5 18.1758 13.5 19.3652 13.5 19.6875C13.5 20.0625 13.8398 20.5664 14.3379 20.4727C18.2109 19.1777 21 15.5332 21 11.2324C21 5.85937 16.6348 1.5 11.25 1.5L11.25 1.5Z" id="Shape" fill="#D3D3D3" stroke="none" />
    </g>
  </g>
</svg>