<?xml version="1.0" encoding="utf-8"?>
<svg width="64.48764px" height="24px" viewBox="0 0 64.48764 24" version="1.1" xmlns:xlink="http://www.w3.org/1999/xlink" xmlns="http://www.w3.org/2000/svg">
  <path d="M29.2621 10.0386L39.8101 10.0386C39.8101 10.0386 42.6644 3.56901 46.9555 1.87242C51.2466 0.175827 57.0549 -0.337456 59.545 1.87242C62.035 4.08229 64.6606 6.65724 64.4787 11.2295C64.2969 15.8017 60.9037 20.4511 58.3541 21.7774C58.271 21.8206 58.1887 21.8635 58.1071 21.906C55.6847 23.1685 53.8728 24.1129 50.0178 23.9891C46.0329 23.8612 44.5155 22.7229 43.5529 21.7774C42.5903 20.8319 41.1974 19.9939 39.8101 16.6736C38.3634 18.8582 36.0953 22.6635 31.6439 23.4787C27.1926 24.2939 24.6404 23.9095 21.9466 22.4579C19.2528 21.0064 17.1528 16.9963 17.183 15.4827C17.2132 13.9691 17.183 11.2295 17.183 11.2295C17.183 11.2295 17.8462 7.84563 21.096 4.2542C24.3457 0.662781 28.8037 0.018692 30.6231 0.000999451C32.4426 -0.0167007 37.9108 0.133781 40.4906 6.29575C37.7776 7.29853 34.7062 8.16703 34.7062 8.16703C34.7062 8.16703 33.0688 5.9287 30.7933 5.95537C28.5177 5.98203 26.0925 6.59368 24.8388 9.18781C23.585 11.7819 23.2076 14.0435 24.8388 16.1631C26.4699 18.2827 28.5816 18.2046 28.5816 18.2046C28.5816 18.2046 32.4641 18.4473 34.0257 14.9722C32.2842 14.876 27.3907 14.9722 27.3907 14.9722L29.2621 10.0386L29.2621 10.0386ZM48.3546 17.5304C51.0031 19.3168 54.7686 18.3654 56.7652 15.4053C58.7617 12.4453 58.2333 8.59753 55.5848 6.81113C52.9363 5.02473 49.1708 5.97617 47.1743 8.9362C45.1777 11.8963 45.7062 15.744 48.3546 17.5304L48.3546 17.5304ZM16.3323 7.31642L17.183 6.29565L5.61424 6.29565L4.42334 7.31642L16.3323 7.31642L16.3323 7.31642ZM15.6518 9.0177L0.850641 9.0177L0 10.3787L14.9713 10.3787L15.6518 9.0177L15.6518 9.0177ZM8.16617 12.08L7.48566 13.1007L14.631 13.1007L14.631 12.08L8.16617 12.08L8.16617 12.08Z" id="Go" fill="#D3D3D3" fill-rule="evenodd" stroke="none" />
</svg>