<?xml version="1.0" encoding="utf-8"?>
<svg width="32.771423px" height="24px" viewBox="0 0 32.771423 24" version="1.1" xmlns:xlink="http://www.w3.org/1999/xlink" xmlns="http://www.w3.org/2000/svg">
  <path d="M14.8705 5.10143L20.2308 5.10143C20.2308 5.10143 21.6812 1.81371 23.8619 0.95153C26.0426 0.0893555 28.9943 -0.171486 30.2597 0.95153C31.5251 2.07455 32.8593 3.38309 32.7669 5.7066C32.6745 8.03014 30.9501 10.3929 29.6544 11.0669C29.6122 11.0888 29.5704 11.1106 29.529 11.1322C28.2979 11.7738 27.3772 12.2537 25.4181 12.1908C23.3931 12.1258 22.6219 11.5474 22.1328 11.0669C21.6436 10.5864 20.9358 10.1605 20.2307 8.47321C19.4956 9.58337 18.343 11.5172 16.0809 11.9314C13.8188 12.3457 12.5218 12.1503 11.1529 11.4127C9.78394 10.675 8.71674 8.63721 8.73209 7.86801C8.74744 7.09882 8.73209 5.7066 8.73209 5.7066C8.73209 5.7066 9.06912 3.987 10.7206 2.16191C12.372 0.336815 14.6375 0.0094986 15.5621 0.00050354C16.4868 -0.00848389 19.2656 0.0679855 20.5766 3.19938C19.1979 3.70898 17.6371 4.15034 17.6371 4.15034C17.6371 4.15034 16.805 3.01285 15.6486 3.02641C14.4922 3.03996 13.2597 3.35078 12.6226 4.66907C11.9855 5.98735 11.7937 7.13663 12.6226 8.21377C13.4515 9.2909 14.5247 9.25124 14.5247 9.25124C14.5247 9.25124 16.4977 9.37457 17.2912 7.60857C16.4062 7.55969 13.9195 7.60857 13.9195 7.60857L14.8705 5.10143L14.8705 5.10143ZM24.5729 8.90862C25.9188 9.81643 27.8324 9.33293 28.847 7.82868C29.8616 6.32445 29.5931 4.36909 28.2472 3.46128C26.9013 2.55346 24.9877 3.03696 23.9731 4.5412C22.9585 6.04544 23.2271 8.00079 24.5729 8.90862L24.5729 8.90862ZM8.29977 3.71808L8.73206 3.19934L2.85306 3.19934L2.24786 3.71808L8.29977 3.71808L8.29977 3.71808ZM7.95395 4.58264L0.432281 4.58264L0 5.27428L7.60812 5.27428L7.95395 4.58264L7.95395 4.58264ZM4.1499 6.13879L3.80408 6.65753L7.43524 6.65753L7.43524 6.13879L4.1499 6.13879L4.1499 6.13879ZM7.78732 15.1299L6.31476 24L12.309 24L12.5688 22.4538L8.44998 22.4538L8.79648 20.3359L12.5905 20.3359L12.8504 18.7897L9.05634 18.7897L9.40283 16.6761L13.5044 16.6761L13.7642 15.1299L7.78732 15.1299L7.78732 15.1299ZM21.205 24L22.6776 15.1299L20.8109 15.1299L19.8883 20.7084L19.8147 20.7084L16.9042 15.1299L15.2584 15.1299L13.7858 24L15.6612 24L16.5924 18.4172L16.6617 18.4172L19.5851 24L21.205 24L21.205 24ZM26.8571 21.8691L25.8263 15.1299L23.743 15.1299L25.3326 24L27.7493 24L32.2796 15.1299L30.2007 15.1299L26.9394 21.8691L26.8571 21.8691L26.8571 21.8691Z" id="GoDotEnv" fill="#D3D3D3" fill-rule="evenodd" stroke="none" />
</svg>