<?xml version="1.0" encoding="utf-8"?>
<svg width="106.398285px" height="24px" viewBox="0 0 106.398285 24" version="1.1" xmlns:xlink="http://www.w3.org/1999/xlink" xmlns="http://www.w3.org/2000/svg">
  <path d="M50.9813 4.00909C50.5371 3.54298 50.355 2.98952 50.4351 2.34866C50.5152 1.70054 50.8284 1.14703 51.3746 0.688225C51.9208 0.229424 52.5362 0 53.2207 0C53.9126 0 54.4788 0.229424 54.9194 0.688225C55.36 1.14703 55.5439 1.70054 55.4711 2.34866C55.3982 2.98952 55.0887 3.54298 54.5425 4.00909C53.9963 4.47518 53.3773 4.70821 52.6855 4.70821C51.9936 4.70821 51.4255 4.47518 50.9813 4.00909L50.9813 4.00909ZM32.9022 1.29987L47.7151 1.29987L47.0596 5.19974L36.9769 5.19974L36.103 10.5306L45.2026 10.5306L44.5471 14.4304L35.4475 14.4304L33.9182 23.672L29.1881 23.672L32.9022 1.29987L32.9022 1.29987ZM59.2616 1.29987L63.9152 1.29987L62.5388 9.71133L62.6699 9.71133C62.9466 9.25253 63.3199 8.79008 63.7896 8.32397C64.2593 7.85787 64.8383 7.46646 65.5265 7.14962C66.2147 6.83284 67.0249 6.67445 67.9571 6.67445C69.1878 6.67445 70.2638 6.99306 71.1851 7.63027C72.1063 8.26755 72.7708 9.2252 73.1787 10.5033C73.5865 11.7814 73.6302 13.3817 73.3098 15.3043C73.0039 17.176 72.4413 18.7545 71.622 20.0399C70.8027 21.3252 69.8232 22.2975 68.6835 22.9565C67.5438 23.6156 66.3367 23.9452 65.0622 23.9452C64.1592 23.9452 63.42 23.7959 62.8447 23.4973C62.2693 23.1987 61.8196 22.8218 61.4955 22.3667C61.1715 21.9115 60.9403 21.4509 60.8019 20.9848L60.5725 20.9848L60.1355 23.672L55.5475 23.672L59.2616 1.29987L59.2616 1.29987ZM27.1882 7.35943L28.642 5.61493L8.87117 5.61493L6.83594 7.35943L27.1882 7.35943L27.1882 7.35943ZM100.718 6.8931L100.226 9.82071L100.401 9.82071C100.882 8.7793 101.528 7.99094 102.34 7.45568C103.152 6.92043 104.028 6.65277 104.967 6.65277C105.499 6.65277 105.976 6.70378 106.398 6.80574L105.699 10.9459C105.495 10.873 105.206 10.8129 104.831 10.7656C104.456 10.7183 104.101 10.6946 103.766 10.6946C102.753 10.6946 101.858 11.0169 101.078 11.6614C100.299 12.3059 99.8148 13.1452 99.6255 14.1793L98.0634 23.6722L93.4098 23.6722L96.2063 6.8931L100.718 6.8931L100.718 6.8931ZM76.8929 21.6732C75.6694 20.122 75.2798 18.0174 75.724 15.3592C76.0153 13.6332 76.6034 12.1184 77.4882 10.8148C78.373 9.51124 79.4854 8.49533 80.8254 7.76711C82.1654 7.03882 83.6584 6.67468 85.3043 6.67468C86.7899 6.67468 88.0753 6.98782 89.1604 7.61414C90.2455 8.24045 91.032 9.18538 91.5199 10.4489C92.0079 11.7124 92.0916 13.2946 91.7712 15.1954L91.5636 16.4734L80.1373 16.4734L80.1154 16.5936C79.9042 17.9117 80.079 18.8967 80.6398 19.5485C81.2005 20.2003 82.0744 20.5262 83.2615 20.5262C84.0407 20.5262 84.7417 20.3624 85.3643 20.0346C85.987 19.7069 86.4695 19.2226 86.8118 18.5818L91.0611 18.8658C90.464 20.4243 89.428 21.6696 87.9533 22.6017C86.4786 23.5339 84.6961 24 82.6061 24C80.0208 24 78.1163 23.2244 76.8929 21.6732L76.8929 21.6732ZM49.8889 6.89313L54.5425 6.89313L51.746 23.6722L47.0924 23.6722L49.8889 6.89313L49.8889 6.89313ZM87.6419 13.5894C87.8094 12.5917 87.6347 11.7688 87.1176 11.1206C86.6005 10.4725 85.8395 10.1484 84.8345 10.1484C84.1645 10.1484 83.5382 10.3068 82.9556 10.6236C82.373 10.9403 81.8778 11.3609 81.4699 11.8853C81.0621 12.4096 80.7926 12.9777 80.6615 13.5894L87.6419 13.5894L87.6419 13.5894ZM61.8342 18.8821C62.2967 19.7888 63.0887 20.2421 64.2102 20.2421C65.3608 20.2421 66.313 19.7815 67.0668 18.8602C67.8206 17.939 68.3176 16.7464 68.5579 15.2826C68.791 13.8261 68.6835 12.6445 68.2357 11.7378C67.7878 10.8311 66.9885 10.3778 65.8379 10.3778C64.7163 10.3778 63.7732 10.8202 63.0086 11.7051C62.2439 12.5899 61.7414 13.7824 61.501 15.2826C61.2607 16.7756 61.3718 17.9754 61.8342 18.8821L61.8342 18.8821ZM26.7487 10.7419L1.45374 10.7419L0 13.0679L25.5857 13.0679L26.7487 10.7419L26.7487 10.7419ZM13.1259 15.8688L11.9629 17.6133L24.1742 17.6133L24.1742 15.8688L13.1259 15.8688L13.1259 15.8688Z" id="GoFiber" fill="#D3D3D3" fill-rule="evenodd" stroke="none" />
</svg>