<?xml version="1.0" encoding="utf-8"?>
<svg width="79.42612px" height="24px" viewBox="0 0 79.42612 24" version="1.1" xmlns:xlink="http://www.w3.org/1999/xlink" xmlns="http://www.w3.org/2000/svg">
  <path d="M36.3271 10.0386L25.7791 10.0386L23.9077 14.9722C23.9077 14.9722 28.8012 14.876 30.5427 14.9722C28.9812 18.4473 25.0986 18.2046 25.0986 18.2046C25.0986 18.2046 22.987 18.2827 21.3558 16.1631C19.7246 14.0435 20.1021 11.7819 21.3558 9.1878C22.6095 6.59367 25.0347 5.98203 27.3103 5.95536C29.5859 5.92869 31.2233 8.16702 31.2233 8.16702C31.2233 8.16702 34.2946 7.29852 37.0076 6.29574C34.4278 0.133774 28.9596 -0.0167084 27.1402 0.000991821C25.3207 0.0186844 20.8627 0.662773 17.613 4.2542C14.3632 7.84563 13.7 11.2295 13.7 11.2295C13.7 11.2295 13.7302 13.9691 13.7 15.4827C13.6698 16.9963 15.7699 21.0064 18.4636 22.4579C21.1574 23.9095 23.7096 24.2939 28.1609 23.4787C32.6123 22.6635 34.8804 18.8582 36.3271 16.6736C37.7145 19.9939 39.1073 20.8319 40.0699 21.7774C41.0325 22.7229 42.5499 23.8611 46.5348 23.9891C50.3899 24.1129 52.2018 23.1685 54.6241 21.906C54.7057 21.8635 54.788 21.8206 54.8711 21.7774C57.4207 20.4511 60.8139 15.8017 60.9958 11.2295C61.1776 6.65723 58.5521 4.08228 56.062 1.87241C53.572 -0.337463 47.7636 0.175819 43.4725 1.87241C39.1814 3.569 36.3271 10.0386 36.3271 10.0386L36.3271 10.0386ZM68.3295 4.84094L64.1108 20.5142L61.1193 20.5142L65.338 4.84094L68.3295 4.84094L68.3295 4.84094ZM53.2822 15.4053C51.2856 18.3654 47.5201 19.3168 44.8717 17.5304C42.2232 15.744 41.6947 11.8962 43.6913 8.9362C45.6878 5.97616 49.4534 5.02472 52.1018 6.81112C54.7503 8.59752 55.2788 12.4453 53.2822 15.4053L53.2822 15.4053ZM0 11.6932L0 14.7614L9.51136 18.571L9.51136 15.3495L3.55398 13.2912L3.55398 13.1634L9.51136 11.1051L9.51136 7.88354L0 11.6932L0 11.6932ZM79.4261 14.7614L69.9148 18.571L69.9148 15.3495L75.8721 13.2912L75.8721 13.1634L69.9148 11.1051L69.9148 7.88354L79.4261 11.6932L79.4261 14.7614L79.4261 14.7614Z" id="GoHTML" fill="#D3D3D3" fill-rule="evenodd" stroke="none" />
</svg>