<?xml version="1.0" encoding="utf-8"?>
<svg width="24.000061px" height="24px" viewBox="0 0 24.000061 24" version="1.1" xmlns:xlink="http://www.w3.org/1999/xlink" xmlns="http://www.w3.org/2000/svg">
  <path d="M20.7426 0L3.25739 0C2.35788 0 1.59009 0.318024 0.954041 0.954041C0.317993 1.59009 -3.05176e-05 2.35788 0 3.25739L0 20.7426C-3.05176e-05 21.6421 0.317993 22.4099 0.954041 23.0459C1.59009 23.6819 2.35788 24 3.25739 24L20.7426 24C21.6422 24 22.4099 23.6819 23.046 23.0459C23.682 22.4099 24 21.6421 24 20.7426L24 3.25739C24 2.35788 23.682 1.59009 23.046 0.954041C22.4099 0.318024 21.6422 0 20.7426 0L20.7426 0ZM8.20099 5.63733C8.12592 5.3219 7.96066 5.07782 7.70532 4.90509C7.45001 4.73236 7.12555 4.646 6.73203 4.646C6.1012 4.646 5.61304 4.86981 5.26758 5.31738C4.92212 5.76501 4.74939 6.38834 4.74939 7.18738C4.74939 7.99847 4.91458 8.63086 5.24506 9.08444C5.5755 9.53802 6.06512 9.76483 6.71399 9.76483C7.27576 9.76483 7.69858 9.64618 7.98245 9.40887C8.26633 9.17157 8.41428 8.85162 8.4263 8.4491L6.75003 8.4491L6.75003 6.6647L10.8415 6.6647L10.8415 7.9444C10.8415 8.78555 10.6635 9.50424 10.3076 10.1006C9.95157 10.6969 9.46191 11.1535 8.83862 11.4704C8.21527 11.7873 7.50107 11.9457 6.69598 11.9457C5.79779 11.9457 5.00922 11.755 4.33032 11.3735C3.6514 10.992 3.12198 10.4482 2.74194 9.74231C2.36194 9.03638 2.17194 8.19675 2.17194 7.22345C2.17194 6.2081 2.37473 5.34592 2.78024 4.63699C3.18579 3.92804 3.72952 3.38882 4.41144 3.01932C5.09335 2.64984 5.84888 2.46509 6.67795 2.46509C7.40494 2.46509 8.06281 2.60101 8.65158 2.87286C9.24039 3.14474 9.71878 3.51874 10.0868 3.99487C10.4548 4.47101 10.6703 5.01849 10.7334 5.63733L8.20099 5.63733L8.20099 5.63733ZM20.9531 7.20541C20.9531 8.23279 20.7534 9.09869 20.3538 9.80313C19.9543 10.5076 19.4151 11.0408 18.7362 11.4028C18.0573 11.7648 17.3002 11.9457 16.4651 11.9457C15.624 11.9457 14.8647 11.7633 14.1873 11.3983C13.5099 11.0333 12.9722 10.4986 12.5742 9.79413C12.1761 9.08969 11.9771 8.22678 11.9771 7.20541C11.9771 6.17807 12.1761 5.31213 12.5742 4.6077C12.9722 3.90326 13.5099 3.37003 14.1873 3.00806C14.8647 2.64609 15.624 2.46509 16.4651 2.46509C17.3002 2.46509 18.0573 2.64609 18.7362 3.00806C19.4151 3.37003 19.9543 3.90326 20.3538 4.6077C20.7534 5.31213 20.9531 6.17807 20.9531 7.20541L20.9531 7.20541ZM18.3756 7.20541C18.3756 6.37631 18.2126 5.74246 17.8867 5.30386C17.5608 4.86526 17.0869 4.646 16.4651 4.646C15.8432 4.646 15.3693 4.86526 15.0434 5.30386C14.7175 5.74246 14.5545 6.37631 14.5545 7.20541C14.5545 8.03452 14.7175 8.66837 15.0434 9.10696C15.3693 9.54553 15.8432 9.76483 16.4651 9.76483C17.0869 9.76483 17.5608 9.54553 17.8867 9.10696C18.2126 8.66837 18.3756 8.03452 18.3756 7.20541L18.3756 7.20541ZM2.17194 17.3756L16.3439 17.3756L16.3439 20.6335L2.17194 20.6335L2.17194 17.3756L2.17194 17.3756Z" id="GoLand" fill="#D3D3D3" fill-rule="evenodd" stroke="none" />
</svg>