<?xml version="1.0" encoding="utf-8"?>
<svg width="29.812622px" height="24px" viewBox="0 0 29.812622 24" version="1.1" xmlns:xlink="http://www.w3.org/1999/xlink" xmlns="http://www.w3.org/2000/svg">
  <path d="M9.91425 3.35596C10.3309 3.74852 10.5778 4.2916 10.6548 4.98519L13.8337 4.98519C13.8627 4.00742 13.6496 3.14404 13.1944 2.39506C12.7393 1.64608 12.095 1.05965 11.2617 0.635788C10.4284 0.211929 9.45306 0 8.33563 0C7.0351 0 5.81171 0.301041 4.66541 0.903114C3.51898 1.5052 2.54608 2.37459 1.74652 3.5113C0.94696 4.64803 0.414734 6.01594 0.14978 7.61505C-0.105469 9.17564 -0.0344849 10.5231 0.362915 11.6574C0.760315 12.7917 1.43219 13.6659 2.37866 14.28C3.32513 14.8941 4.49194 15.2012 5.87915 15.2012C7.12671 15.2012 8.27417 14.9507 9.32178 14.4498C10.3694 13.9489 11.2449 13.2312 11.9481 12.2968C12.6512 11.3624 13.1064 10.2449 13.3136 8.94444L13.6315 7.08041L7.4397 7.08041L7.04956 9.43571L10.2213 9.43571C10.0527 10.3509 9.61084 11.0794 8.89557 11.6213C8.1803 12.1631 7.30005 12.4341 6.25488 12.4341C5.08441 12.4341 4.24152 12.0126 3.72614 11.1697C3.21069 10.3268 3.08069 9.13229 3.336 7.58616C3.50458 6.56022 3.82001 5.68842 4.28241 4.97073C4.74487 4.25306 5.30475 3.70638 5.96228 3.33068C6.61975 2.95499 7.3266 2.76714 8.08276 2.76714C8.88708 2.76714 9.49762 2.96342 9.91425 3.35596L9.91425 3.35596ZM27.8934 11.8272C28.6689 10.7242 29.1891 9.38274 29.454 7.8029C29.7238 6.16043 29.6419 4.7576 29.2084 3.59439C28.7748 2.43119 28.0753 1.54132 27.1096 0.924789C26.1438 0.308266 24.9914 0 23.6524 0C22.3663 0 21.1647 0.290199 20.0472 0.870605C18.9297 1.451 17.9833 2.29391 17.2078 3.39932C16.4323 4.50473 15.9146 5.84977 15.6545 7.43443C15.3847 9.07207 15.4654 10.4701 15.8965 11.6285C16.3275 12.7869 17.0295 13.6719 18.0026 14.2836C18.9755 14.8954 20.1339 15.2012 21.4778 15.2012C22.7589 15.2012 23.9547 14.9146 25.0649 14.3414C26.175 13.7683 27.1179 12.9302 27.8934 11.8272L27.8934 11.8272ZM25.9427 3.9592C26.4581 4.75394 26.5905 5.91232 26.3401 7.43437C26.0752 9.03831 25.5129 10.2726 24.6531 11.1371C23.7933 12.0017 22.7734 12.434 21.5933 12.434C20.5096 12.434 19.7004 12.0439 19.1658 11.2636C18.6311 10.4833 18.4962 9.3297 18.7611 7.80285C19.0212 6.19892 19.5836 4.95865 20.4481 4.08202C21.3127 3.2054 22.3399 2.76709 23.5295 2.76709C24.6229 2.76709 25.4273 3.16446 25.9427 3.9592L25.9427 3.9592ZM20.2995 16.2276L19.3574 21.8802L20.9252 21.8802L21.4514 18.6822C21.5152 18.3338 21.6783 18.0511 21.9409 17.834C22.2034 17.6168 22.5052 17.5083 22.8462 17.5083C22.959 17.5083 23.0786 17.5162 23.205 17.5322C23.3314 17.5481 23.4289 17.5684 23.4976 17.5929L23.733 16.1981C23.5908 16.1638 23.4301 16.1466 23.251 16.1466C22.9345 16.1466 22.6395 16.2368 22.3659 16.4171C22.0923 16.5974 21.8746 16.863 21.7127 17.2138L21.6538 17.2138L21.8194 16.2276L20.2995 16.2276L20.2995 16.2276ZM4.03711 20.9749L3.54028 24L5.10803 24L6.39606 16.2276L4.8504 16.2276L4.68481 17.1771L4.61853 17.1771C4.57684 17.0225 4.50323 16.8667 4.39777 16.7097C4.29224 16.5527 4.14197 16.4208 3.94696 16.3141C3.75189 16.2074 3.49615 16.154 3.17963 16.154C2.76746 16.154 2.37 16.2613 1.98724 16.476C1.60455 16.6907 1.27338 17.0133 0.993652 17.4439C0.713928 17.8745 0.520142 18.4136 0.41217 19.0613C0.309143 19.6918 0.323303 20.2236 0.454529 20.6566C0.585754 21.0896 0.805908 21.4172 1.11511 21.6392C1.42419 21.8612 1.79346 21.9723 2.22284 21.9723C2.52704 21.9723 2.79321 21.922 3.02136 21.8214C3.24951 21.7208 3.44397 21.5938 3.60468 21.4405C3.76538 21.2871 3.89355 21.132 3.98926 20.9749L4.03711 20.9749L4.03711 20.9749ZM13.7931 21.2068C14.2053 21.7294 14.8468 21.9907 15.7178 21.9907C16.4219 21.9907 17.0224 21.8336 17.5192 21.5196C18.016 21.2056 18.365 20.786 18.5662 20.261L17.1346 20.1653C17.0193 20.3812 16.8568 20.5444 16.647 20.6548C16.4373 20.7652 16.2011 20.8204 15.9386 20.8204C15.5387 20.8204 15.2443 20.7106 15.0554 20.491C14.8665 20.2714 14.8076 19.9396 14.8787 19.4955L14.8861 19.4551L18.7355 19.4551L18.8054 19.0245C18.9133 18.3841 18.8851 17.8511 18.7208 17.4255C18.5564 16.9998 18.2914 16.6815 17.9258 16.4705C17.5603 16.2595 17.1273 16.154 16.6268 16.154C16.0723 16.154 15.5693 16.2767 15.1179 16.522C14.6665 16.7673 14.2917 17.1096 13.9937 17.5488C13.6956 17.9879 13.4974 18.4982 13.3993 19.0797C13.2496 19.9752 13.3809 20.6842 13.7931 21.2068L13.7931 21.2068ZM11.2795 16.2276L10.7386 19.4735C10.6772 19.8513 10.5215 20.1383 10.2712 20.3346C10.021 20.5309 9.75476 20.629 9.4726 20.629C9.17572 20.629 8.95435 20.5321 8.80835 20.3383C8.66235 20.1445 8.61639 19.8807 8.67035 19.5471L9.22235 16.2276L7.6546 16.2276L7.05109 19.8268C6.94562 20.4867 7.03699 21.0062 7.32526 21.3853C7.61353 21.7643 8.04224 21.9539 8.61151 21.9539C9.03589 21.9539 9.41498 21.8533 9.74866 21.6521C10.0823 21.4509 10.3362 21.1847 10.5104 20.8535L10.5693 20.8535L10.4 21.8803L11.9052 21.8803L12.8473 16.2276L11.2795 16.2276L11.2795 16.2276ZM23.6705 23.954C23.8374 23.9847 24.0214 24 24.2225 24C24.8015 24 25.2794 23.8632 25.6559 23.5897C26.0325 23.3161 26.3398 22.95 26.5778 22.4912L29.8126 16.2276L28.0941 16.2276L26.2209 20.3861L26.1619 20.3861L25.6835 16.2276L24.0938 16.2276L25.1536 22.0311L25.0138 22.2704C24.8617 22.5329 24.6887 22.6856 24.4949 22.7285C24.3011 22.7715 24.0729 22.7512 23.8104 22.6678L23.2584 23.8381C23.3663 23.8847 23.5037 23.9233 23.6705 23.954L23.6705 23.954ZM17.4143 18.4835L15.0627 18.4835C15.1069 18.2774 15.1976 18.0861 15.335 17.9094C15.4724 17.7328 15.6393 17.5911 15.8355 17.4844C16.0318 17.3776 16.2428 17.3243 16.4685 17.3243C16.8071 17.3243 17.0635 17.4335 17.2377 17.6518C17.4118 17.8702 17.4707 18.1474 17.4143 18.4835L17.4143 18.4835ZM3.87885 20.2665C3.62122 20.572 3.30353 20.7247 2.92566 20.7247C2.54053 20.7247 2.27185 20.5695 2.11975 20.2592C1.96759 19.9488 1.93207 19.5471 2.013 19.0539C2.09644 18.5632 2.26385 18.1652 2.51532 17.8597C2.76678 17.5543 3.08759 17.4016 3.47772 17.4016C3.85797 17.4016 4.12598 17.5506 4.2818 17.8487C4.43762 18.1468 4.47382 18.5485 4.39038 19.0539C4.30695 19.5569 4.13641 19.9611 3.87885 20.2665L3.87885 20.2665Z" id="GoQuery" fill="#D3D3D3" fill-rule="evenodd" stroke="none" />
</svg>