<?xml version="1.0" encoding="utf-8"?>
<svg width="40.443115px" height="24px" viewBox="0 0 40.443115 24" version="1.1" xmlns:xlink="http://www.w3.org/1999/xlink" xmlns="http://www.w3.org/2000/svg">
  <path d="M26.6856 9.96185L28.3347 0L25.2293 0L25.0168 1.25556L26.5045 1.25556L25.2765 8.71022L23.7888 8.71022L23.5801 9.96185L26.6856 9.96185L26.6856 9.96185ZM37.289 9.96185C38.5826 8.57377 39.3869 6.91412 39.7018 4.98289C40.0219 3.04641 39.7673 1.38544 38.9382 0L37.3363 0C37.5514 0.346359 37.7239 0.790466 37.8538 1.33231C37.9837 1.87416 38.0598 2.46258 38.0821 3.09758C38.1044 3.73257 38.0631 4.36101 37.9581 4.98289C37.8532 5.60214 37.6846 6.22926 37.4524 6.86427C37.2202 7.49926 36.9505 8.08768 36.6436 8.62953C36.3365 9.17138 36.0164 9.61549 35.6832 9.96185L37.289 9.96185L37.289 9.96185ZM3.29044 0.00396729C1.99683 1.39204 1.1926 3.05169 0.877716 4.98292C0.557587 6.9194 0.812103 8.58036 1.64127 9.96581L3.24319 9.96581C3.02805 9.61945 2.85553 9.17468 2.72562 8.63152C2.59573 8.08837 2.51965 7.49995 2.49734 6.86626C2.47504 6.23257 2.51636 5.6048 2.62134 4.98292C2.72629 4.36104 2.89487 3.73325 3.12711 3.09958C3.35931 2.46589 3.62958 1.87812 3.9379 1.33627C4.24622 0.794434 4.56567 0.350327 4.8963 0.00396729L3.29044 0.00396729L3.29044 0.00396729ZM6.36044 0.00396729L4.7113 9.96581L7.81674 9.96581L8.0293 8.71024L6.5415 8.71024L7.76953 1.25559L9.25729 1.25559L9.46591 0.00396729L6.36044 0.00396729L6.36044 0.00396729ZM14.9152 1.87151C15.1422 2.08537 15.2766 2.38122 15.3186 2.75906L17.0504 2.75906C17.0662 2.22641 16.95 1.75607 16.7021 1.34804C16.4541 0.94001 16.1031 0.620544 15.6492 0.389633C15.1953 0.15873 14.6639 0.0432739 14.0552 0.0432739C13.3467 0.0432739 12.6802 0.207275 12.0557 0.535263C11.4312 0.863258 10.9012 1.33688 10.4656 1.95614C10.03 2.57539 9.74008 3.32059 9.59576 4.19175C9.4567 5.04191 9.49539 5.77596 9.71185 6.3939C9.92834 7.01184 10.2944 7.48809 10.81 7.82264C11.3256 8.1572 11.9612 8.32448 12.7169 8.32448C13.3965 8.32448 14.0217 8.18803 14.5924 7.91514C15.1631 7.64224 15.64 7.25128 16.0231 6.74223C16.4062 6.23318 16.6542 5.62443 16.767 4.91596L16.9402 3.90049L13.5671 3.90049L13.3546 5.1836L15.0825 5.1836C14.9906 5.68215 14.7498 6.07903 14.3602 6.37422C13.9706 6.66941 13.491 6.81702 12.9216 6.81702C12.284 6.81702 11.8248 6.58742 11.544 6.12822C11.2633 5.66904 11.1924 5.0183 11.3315 4.176C11.4233 3.6171 11.5952 3.14217 11.8471 2.75119C12.099 2.36022 12.4041 2.06241 12.7622 1.85774C13.1204 1.65307 13.5054 1.55074 13.9174 1.55074C14.3556 1.55074 14.6882 1.65766 14.9152 1.87151L14.9152 1.87151ZM18.676 7.93685C19.0801 8.20056 19.5904 8.33241 20.2071 8.33241C20.8132 8.33241 21.3583 8.20319 21.8424 7.94473C22.3265 7.68626 22.7267 7.32481 23.0429 6.86037C23.3591 6.39593 23.5683 5.85539 23.6707 5.23877C23.773 4.61164 23.7415 4.06193 23.5762 3.58961C23.4109 3.1173 23.1262 2.74929 22.7221 2.48559C22.318 2.22188 21.809 2.09003 21.195 2.09003C20.5862 2.09003 20.0391 2.21925 19.5537 2.47771C19.0683 2.73618 18.6681 3.09762 18.3532 3.56207C18.0384 4.0265 17.8311 4.56835 17.7314 5.18761C17.629 5.81211 17.6599 6.36051 17.8239 6.83282C17.9879 7.30513 18.2719 7.67314 18.676 7.93685L18.676 7.93685ZM31.6134 5.69533L31.271 7.77744L32.684 7.77744L33.0264 5.69533L35.1006 5.69533L35.3407 4.28627L33.2625 4.28627L33.6049 2.20416L32.188 2.20416L31.8456 4.28627L29.7674 4.28627L29.5273 5.69533L31.6134 5.69533L31.6134 5.69533ZM21.4252 6.50608C21.1458 6.85769 20.7948 7.03349 20.3723 7.03349C19.9578 7.03349 19.6744 6.86294 19.5222 6.52182C19.37 6.18071 19.3359 5.75038 19.4199 5.23083C19.5064 4.69817 19.6895 4.25473 19.9689 3.9005C20.2484 3.54626 20.6006 3.36914 21.0257 3.36914C21.4403 3.36914 21.7237 3.54036 21.8759 3.88278C22.0281 4.2252 22.0622 4.6575 21.9782 5.17967C21.889 5.71233 21.7047 6.15446 21.4252 6.50608L21.4252 6.50608ZM1.3382 13.5461L0 21.6069L1.70425 21.6069L2.18051 18.7494L3.42032 18.7494L4.47516 21.6069L6.35654 21.6069L5.16394 18.4739C5.6546 18.2771 6.05609 17.9832 6.36835 17.5923C6.68057 17.2013 6.88132 16.7303 6.97055 16.1793C7.10175 15.379 6.95477 14.74 6.52969 14.2625C6.10464 13.7849 5.4342 13.5461 4.51846 13.5461L1.3382 13.5461L1.3382 13.5461ZM3.56598 17.3798L2.40881 17.3798L2.81815 14.9395L3.96744 14.9395C4.50928 14.9395 4.87802 15.0696 5.07367 15.3299C5.22672 15.5334 5.27386 15.8166 5.21512 16.1793C5.08392 16.9796 4.53421 17.3798 3.56598 17.3798L3.56598 17.3798ZM7.98993 20.8867C8.43076 21.4456 9.11691 21.7251 10.0484 21.7251C10.8015 21.7251 11.4437 21.5571 11.9751 21.2213C12.5064 20.8854 12.8797 20.4367 13.0948 19.8752L11.5638 19.7728C11.4404 20.0037 11.2666 20.1782 11.0422 20.2963C10.8179 20.4144 10.5653 20.4734 10.2846 20.4734C9.85687 20.4734 9.54199 20.356 9.33997 20.1212C9.13791 19.8863 9.07495 19.5314 9.15103 19.0565L9.15891 19.0132L13.2759 19.0132L13.3507 18.5527C13.4661 17.8678 13.4359 17.2978 13.2601 16.8425C13.0843 16.3873 12.8009 16.0468 12.41 15.8212C12.019 15.5955 11.5559 15.4827 11.0206 15.4827C10.4276 15.4827 9.88968 15.6139 9.40686 15.8763C8.92404 16.1387 8.52325 16.5047 8.20444 16.9744C7.88562 17.4441 7.67374 17.9899 7.56879 18.6117C7.40872 19.5695 7.5491 20.3278 7.98993 20.8867L7.98993 20.8867ZM14.4448 23.5139C14.8542 23.838 15.4682 24 16.2869 24C16.8615 24 17.385 23.9134 17.8573 23.7402C18.3296 23.5671 18.7199 23.3073 19.0282 22.9609C19.3365 22.6146 19.5314 22.1829 19.6127 21.666L20.6282 15.5614L18.9633 15.5614L18.798 16.5769L18.731 16.5769C18.6838 16.4115 18.6038 16.2449 18.491 16.077C18.3781 15.9091 18.2174 15.768 18.0088 15.6539C17.8002 15.5397 17.5267 15.4827 17.1882 15.4827C16.7473 15.4827 16.3216 15.5975 15.911 15.8271C15.5003 16.0567 15.1448 16.3997 14.8443 16.8563C14.5439 17.3129 14.3372 17.8849 14.2244 18.5724C14.1142 19.2415 14.1332 19.7938 14.2815 20.2294C14.4297 20.665 14.6718 20.989 15.0077 21.2016C15.3435 21.4141 15.7384 21.5204 16.1924 21.5204C16.6726 21.5204 17.0688 21.4187 17.381 21.2153C17.6933 21.012 17.9242 20.7857 18.0738 20.5364L18.1446 20.5364L17.9636 21.6424C17.9006 22.0544 17.734 22.3495 17.4637 22.528C17.1934 22.7064 16.8759 22.7956 16.5112 22.7956C16.1386 22.7956 15.8677 22.7267 15.6984 22.589C15.5292 22.4512 15.4222 22.2905 15.3777 22.1068L13.7875 22.3154C13.8164 22.7904 14.0355 23.1899 14.4448 23.5139L14.4448 23.5139ZM21.6398 20.8867C22.0806 21.4456 22.7668 21.7251 23.6983 21.7251C24.4513 21.7251 25.0935 21.5571 25.6249 21.2213C26.1562 20.8854 26.5295 20.4367 26.7447 19.8752L25.2136 19.7728C25.0903 20.0037 24.9164 20.1782 24.6921 20.2963C24.4677 20.4144 24.2152 20.4734 23.9344 20.4734C23.5067 20.4734 23.1918 20.356 22.9898 20.1212C22.7878 19.8863 22.7248 19.5314 22.8008 19.0565L22.8087 19.0132L26.9257 19.0132L27.0005 18.5527C27.1159 17.8678 27.0858 17.2978 26.91 16.8425C26.7342 16.3873 26.4508 16.0468 26.0598 15.8212C25.6689 15.5955 25.2057 15.4827 24.6704 15.4827C24.0774 15.4827 23.5395 15.6139 23.0567 15.8763C22.5739 16.1387 22.1731 16.5047 21.8543 16.9744C21.5355 17.4441 21.3236 17.9899 21.2186 18.6117C21.0586 19.5695 21.1989 20.3278 21.6398 20.8867L21.6398 20.8867ZM34.9786 15.5614L33.5853 23.8741L35.266 23.8741L35.8012 20.6387L35.8642 20.6387C35.9115 20.8067 35.9928 20.9726 36.1083 21.1366C36.2237 21.3006 36.3857 21.4364 36.5944 21.544C36.8029 21.6516 37.0699 21.7054 37.3953 21.7054C37.8545 21.7054 38.2894 21.5866 38.7001 21.3492C39.1107 21.1117 39.4637 20.7614 39.7589 20.2983C40.054 19.8351 40.2567 19.2664 40.3669 18.5921C40.4824 17.8993 40.4666 17.3227 40.3197 16.8622C40.1728 16.4017 39.9333 16.0567 39.6014 15.8271C39.2695 15.5975 38.8818 15.4827 38.4383 15.4827C38.0999 15.4827 37.8066 15.5397 37.5587 15.6539C37.3107 15.768 37.1034 15.9091 36.9368 16.077C36.7701 16.2449 36.637 16.4115 36.5373 16.5769L36.4625 16.5769L36.6317 15.5614L34.9786 15.5614L34.9786 15.5614ZM30.7553 17.675L29.9996 15.5614L28.2678 15.5614L29.4958 18.5842L27.1973 21.607L28.9291 21.607L30.4483 19.517L31.2946 21.607L33.0067 21.607L31.7118 18.5842L33.9671 15.5614L32.2471 15.5614L30.7553 17.675L30.7553 17.675ZM11.8629 17.9741L9.34784 17.9741C9.39508 17.7537 9.49216 17.5491 9.6391 17.3601C9.78604 17.1712 9.96448 17.0197 10.1744 16.9055C10.3843 16.7914 10.61 16.7343 10.8513 16.7343C11.2135 16.7343 11.4877 16.8511 11.674 17.0846C11.8603 17.3181 11.9232 17.6147 11.8629 17.9741L11.8629 17.9741ZM25.5127 17.9741L22.9976 17.9741C23.0449 17.7537 23.1419 17.5491 23.2889 17.3601C23.4358 17.1712 23.6143 17.0197 23.8242 16.9055C24.0341 16.7914 24.2597 16.7343 24.5012 16.7343C24.8633 16.7343 25.1375 16.8511 25.3238 17.0846C25.5101 17.3181 25.573 17.6147 25.5127 17.9741L25.5127 17.9741ZM17.9341 19.8122C17.6572 20.1113 17.3181 20.2609 16.9166 20.2609C16.5047 20.2609 16.218 20.1087 16.0566 19.8043C15.8952 19.5 15.8565 19.0867 15.9405 18.5645C16.0245 18.0502 16.1983 17.6304 16.462 17.305C16.7257 16.9796 17.0662 16.817 17.4834 16.817C17.8901 16.817 18.1794 16.9757 18.3513 17.2932C18.5231 17.6107 18.5658 18.0345 18.4792 18.5645C18.3926 19.0972 18.2109 19.5131 17.9341 19.8122L17.9341 19.8122ZM36.2342 19.8811C36.0663 19.5544 36.0269 19.1221 36.1161 18.5842C36.2001 18.0437 36.3792 17.614 36.6534 17.2952C36.9276 16.9764 37.268 16.817 37.6747 16.817C38.0894 16.817 38.3773 16.9803 38.5387 17.307C38.7001 17.6337 38.7388 18.0594 38.6548 18.5842C38.563 19.1116 38.3819 19.5413 38.1116 19.8732C37.8414 20.2051 37.5016 20.3711 37.0923 20.3711C36.6881 20.3711 36.4021 20.2077 36.2342 19.8811L36.2342 19.8811Z" id="GoRegepx" fill="#D3D3D3" fill-rule="evenodd" stroke="none" />
</svg>