<?xml version="1.0" encoding="utf-8"?>
<svg width="24px" height="24px" viewBox="0 0 24 24" version="1.1" xmlns:xlink="http://www.w3.org/1999/xlink" xmlns="http://www.w3.org/2000/svg">
  <defs>
    <path d="M0 0L24 0L24 24L0 24L0 0Z" id="path_1" />
    <clipPath id="mask_1">
      <use xlink:href="#path_1" />
    </clipPath>
  </defs>
  <g id="GraphQL">
    <path d="M0 0L24 0L24 24L0 24L0 0Z" id="Background" fill="none" fill-rule="evenodd" stroke="none" />
    <g clip-path="url(#mask_1)">
      <path d="M12.25 22.5805L3.5 17.41L3.5 7.08999L12.25 1.91949L21 7.08999L21 17.41L12.25 22.5805L12.25 22.5805ZM4.5 16.84L12.25 21.4195L20 16.84L20 7.66001L12.25 3.08051L4.5 7.66001L4.5 16.84L4.5 16.84Z" id="Shape" fill="#D3D3D3" fill-rule="evenodd" stroke="none" />
      <path d="M10.5 2.75C10.5 1.7835 11.2835 1 12.25 1C13.2165 1 14 1.7835 14 2.75C14 3.7165 13.2165 4.5 12.25 4.5C11.2835 4.5 10.5 3.7165 10.5 2.75Z" id="Circle" fill="#D3D3D3" fill-rule="evenodd" stroke="none" />
      <path d="M10.5 21.75C10.5 20.7835 11.2835 20 12.25 20C13.2165 20 14 20.7835 14 21.75C14 22.7165 13.2165 23.5 12.25 23.5C11.2835 23.5 10.5 22.7165 10.5 21.75Z" id="Circle" fill="#D3D3D3" fill-rule="evenodd" stroke="none" />
      <path d="M2.5 16.75C2.5 15.7835 3.2835 15 4.25 15C5.2165 15 6 15.7835 6 16.75C6 17.7165 5.2165 18.5 4.25 18.5C3.2835 18.5 2.5 17.7165 2.5 16.75Z" id="Circle" fill="#D3D3D3" fill-rule="evenodd" stroke="none" />
      <path d="M18.5 16.75C18.5 15.7835 19.2835 15 20.25 15C21.2165 15 22 15.7835 22 16.75C22 17.7165 21.2165 18.5 20.25 18.5C19.2835 18.5 18.5 17.7165 18.5 16.75Z" id="Circle" fill="#D3D3D3" fill-rule="evenodd" stroke="none" />
      <path d="M2.5 7.75C2.5 6.7835 3.2835 6 4.25 6C5.2165 6 6 6.7835 6 7.75C6 8.7165 5.2165 9.5 4.25 9.5C3.2835 9.5 2.5 8.7165 2.5 7.75Z" id="Circle" fill="#D3D3D3" fill-rule="evenodd" stroke="none" />
      <path d="M18.5 7.75C18.5 6.7835 19.2835 6 20.25 6C21.2165 6 22 6.7835 22 7.75C22 8.7165 21.2165 9.5 20.25 9.5C19.2835 9.5 18.5 8.7165 18.5 7.75Z" id="Circle" fill="#D3D3D3" fill-rule="evenodd" stroke="none" />
      <path d="M21.36 17.5L3.14001 17.5L12.25 1.48901L21.36 17.5L21.36 17.5ZM4.86002 16.5L19.64 16.5L12.25 3.51099L4.86002 16.5L4.86002 16.5Z" id="Shape" fill="#D3D3D3" fill-rule="evenodd" stroke="none" />
    </g>
  </g>
</svg>