<?xml version="1.0" encoding="utf-8"?>
<svg width="65.51721px" height="23.999939px" viewBox="0 0 65.51721 23.999939" version="1.1" xmlns:xlink="http://www.w3.org/1999/xlink" xmlns="http://www.w3.org/2000/svg">
  <path d="M61.6006 6.66171L65.5172 6.66171C65.3502 5.2489 64.9047 4.0462 64.1803 3.05366C63.4561 2.0611 62.5261 1.30402 61.3904 0.78241C60.2548 0.260803 58.9806 0 57.5679 0C55.9583 0 54.5097 0.368111 53.2221 1.10433C51.9346 1.84053 50.9152 2.9091 50.1639 4.31001C49.4128 5.7109 49.0373 7.40984 49.0373 9.40686C49.0373 11.3979 49.4083 13.0939 50.1506 14.4948C50.8928 15.8957 51.9061 16.9657 53.1909 17.7049C54.4755 18.4441 55.9345 18.8137 57.5679 18.8137C59.1356 18.8137 60.4873 18.5067 61.6229 17.8927C62.7586 17.2787 63.6572 16.4769 64.319 15.4873C64.9806 14.4978 65.3801 13.4426 65.5172 12.3219L61.6006 12.304C61.4159 13.2817 60.9658 14.0402 60.2504 14.5797C59.535 15.1192 58.6617 15.389 57.6304 15.389C56.2415 15.389 55.1163 14.8808 54.2549 13.8644C53.3935 12.848 52.9628 11.3621 52.9628 9.40686C52.9628 7.49926 53.3905 6.02533 54.2459 4.98511C55.1014 3.94489 56.2385 3.42476 57.6572 3.42476C58.7184 3.42476 59.6036 3.71237 60.313 4.28764C61.0223 4.8629 61.4516 5.65426 61.6006 6.66171L61.6006 6.66171ZM16.5246 0.250305L16.5246 18.5633L20.3964 18.5633L20.3964 12.0715L23.2221 12.0715L26.6915 18.5633L30.9657 18.5633L27.0761 11.4455C28.1193 10.9984 28.9196 10.3308 29.4769 9.44255C30.0342 8.55431 30.313 7.48428 30.313 6.23244C30.313 4.41425 29.7392 2.96268 28.5917 1.87773C27.4442 0.79277 25.8301 0.250305 23.7497 0.250305L16.5246 0.250305L16.5246 0.250305ZM33.0492 0.250305L33.0492 18.5633L36.921 18.5633L36.921 12.6259L40.176 12.6259C41.5828 12.6259 42.7825 12.3651 43.775 11.8434C44.7675 11.3218 45.5261 10.5975 46.0507 9.67059C46.5753 8.7436 46.8376 7.67206 46.8376 6.45597C46.8376 5.23988 46.5797 4.16536 46.0641 3.23244C45.5485 2.29949 44.8019 1.56923 43.8242 1.04166C42.8466 0.514099 41.6633 0.250305 40.2743 0.250305L33.0492 0.250305L33.0492 0.250305ZM23.0254 8.95979L20.3964 8.95979L20.3964 3.41583L23.0075 3.41583C25.2192 3.41583 26.325 4.35473 26.325 6.23253C26.325 8.0507 25.2251 8.95979 23.0254 8.95979L23.0254 8.95979ZM39.55 9.52314L36.921 9.52314L36.921 3.41583L39.5321 3.41583C40.6528 3.41583 41.4858 3.69453 42.0312 4.2519C42.5768 4.80927 42.8495 5.54401 42.8495 6.45607C42.8495 7.36217 42.5768 8.09988 42.0312 8.66918C41.4858 9.23849 40.6588 9.52314 39.55 9.52314L39.55 9.52314ZM2.34277 22.8956C3.39795 23.6318 4.84955 23.9999 6.69751 23.9999C8.00903 23.9999 9.16852 23.8017 10.176 23.4053C11.1833 23.0089 11.9747 22.4172 12.55 21.6303C13.1252 20.8434 13.4128 19.8658 13.4128 18.6974L13.4128 4.82854L9.63043 4.82854L9.63043 7.13555L9.48743 7.13555C9.32043 6.76 9.07605 6.38146 8.75409 5.99992C8.43225 5.61842 8.01202 5.29801 7.49329 5.03869C6.97473 4.77937 6.33087 4.64972 5.56189 4.64972C4.56036 4.64972 3.63794 4.91052 2.79437 5.43213C1.95087 5.95374 1.27429 6.73316 0.764587 7.77042C0.254883 8.80768 0 10.1073 0 11.6691C0 13.1892 0.24884 14.444 0.746704 15.4336C1.24445 16.4232 1.91504 17.1594 2.75861 17.6423C3.60211 18.1251 4.53949 18.3666 5.57086 18.3666C6.66766 18.3666 7.53204 18.1356 8.16394 17.6736C8.7959 17.2116 9.237 16.6974 9.48743 16.1311L9.64832 16.1311L9.64832 18.6437C9.64832 19.5856 9.3786 20.2578 8.83905 20.6601C8.29962 21.0625 7.6156 21.2637 6.78687 21.2637C5.94629 21.2637 5.30103 21.1072 4.85095 20.7943C4.401 20.4813 4.09845 20.1162 3.94342 19.6989L0.420349 20.1728C0.64679 21.2518 1.28772 22.1594 2.34277 22.8956L2.34277 22.8956ZM8.91064 14.4858C8.40692 15.1654 7.69611 15.5052 6.77802 15.5052C5.84216 15.5052 5.12677 15.1594 4.63196 14.4679C4.13721 13.7764 3.88977 12.8375 3.88977 11.6512C3.88977 10.4828 4.13568 9.52902 4.6275 8.78981C5.11926 8.05062 5.83612 7.68103 6.77802 7.68103C7.70203 7.68103 8.41437 8.04168 8.91516 8.763C9.41583 9.48431 9.66626 10.447 9.66626 11.6512C9.66626 12.8613 9.41443 13.8062 8.91064 14.4858L8.91064 14.4858Z" id="Grpc" fill="#D3D3D3" fill-rule="evenodd" stroke="none" />
</svg>