<?xml version="1.0" encoding="utf-8"?>
<svg width="24px" height="24px" viewBox="0 0 24 24" version="1.1" xmlns:xlink="http://www.w3.org/1999/xlink" xmlns="http://www.w3.org/2000/svg">
  <defs>
    <path d="M0 0L24 0L24 24L0 24L0 0Z" id="path_1" />
    <clipPath id="mask_1">
      <use xlink:href="#path_1" />
    </clipPath>
  </defs>
  <g id="Heroku">
    <path d="M0 0L24 0L24 24L0 24L0 0Z" id="Background" fill="#FFFFFF" fill-opacity="0" fill-rule="evenodd" stroke="none" />
    <g clip-path="url(#mask_1)">
      <path d="M19.2 0.959961L5.75999 0.959961C4.43624 0.959961 3.35999 2.03621 3.35999 3.35996L3.35999 20.64C3.35999 21.9637 4.43624 23.04 5.75999 23.04L19.2 23.04C20.5237 23.04 21.6 21.9637 21.6 20.64L21.6 3.35996C21.6 2.03621 20.5237 0.959961 19.2 0.959961L19.2 0.959961ZM7.94812 19.6387L7.94812 14.863L10.3369 17.2518L7.94812 19.6387ZM16.9256 19.6537L14.6381 19.6537L14.6381 11.2669C14.6381 11.2669 15.1837 9.25874 7.91809 12.0881C7.90497 12.1237 7.90497 4.33124 7.90497 4.33124L10.2787 4.31812L10.2787 9.30937C10.2787 9.30937 16.9256 6.69186 16.9256 11.295L16.9256 19.6537ZM15.99 7.33868L13.4719 7.33868C14.3794 6.23055 15.1987 4.33118 15.1987 4.33118L17.8031 4.33118C17.8031 4.33118 17.3569 5.56868 15.99 7.33868L15.99 7.33868Z" id="Shape" fill="#D3D3D3" fill-rule="evenodd" stroke="none" />
    </g>
  </g>
</svg>