<?xml version="1.0" encoding="utf-8"?>
<svg width="24px" height="24px" viewBox="0 0 24 24" version="1.1" xmlns:xlink="http://www.w3.org/1999/xlink" xmlns="http://www.w3.org/2000/svg">
  <defs>
    <path d="M0 0L24 0L24 24L0 24L0 0Z" id="path_1" />
    <clipPath id="mask_1">
      <use xlink:href="#path_1" />
    </clipPath>
  </defs>
  <g id="Javascript">
    <path d="M0 0L24 0L24 24L0 24L0 0Z" id="Background" fill="none" fill-rule="evenodd" stroke="none" />
    <g clip-path="url(#mask_1)">
      <path d="M20.8013 1.92004L3.20064 1.92004C2.49376 1.92004 1.92001 2.49379 1.92001 3.20067L1.92001 20.7994C1.92001 21.5063 2.49376 22.08 3.20064 22.08L20.7994 22.08C21.5063 22.08 22.08 21.5063 22.08 20.8013L22.08 3.20067C22.08 2.49379 21.5063 1.92004 20.8013 1.92004L20.8013 1.92004ZM12.96 17.3682C12.96 19.2863 11.835 20.16 10.1925 20.16C8.70751 20.16 7.63689 19.1644 7.20001 18.24L8.70939 17.3269C9.00001 17.8425 9.44251 18.24 10.08 18.24C10.6894 18.24 11.04 18.0019 11.04 17.0757L11.04 11.04L12.96 11.04L12.96 17.3682ZM17.1244 20.16C15.4238 20.16 14.4581 19.3032 13.92 18.24L15.36 17.28C15.7519 17.9213 16.1794 18.5344 17.0831 18.5344C17.8425 18.5344 18.24 18.1557 18.24 17.6307C18.24 17.0044 17.8275 16.7813 16.9931 16.4157L16.5356 16.2188C15.2138 15.6563 14.3344 14.9513 14.3344 13.4588C14.3344 12.0863 15.3825 11.04 17.0175 11.04C18.1819 11.04 19.0181 11.445 19.6219 12.5063L18.1969 13.4232C17.8819 12.8588 17.5444 12.6375 17.0175 12.6375C16.4813 12.6375 16.1419 12.9788 16.1419 13.4232C16.1419 13.9725 16.4813 14.1938 17.2669 14.535L17.7244 14.7319C19.2825 15.3975 20.16 16.0782 20.16 17.6082C20.16 19.2563 18.8644 20.16 17.1244 20.16L17.1244 20.16Z" id="Shape" fill="#D3D3D3" fill-rule="evenodd" stroke="none" />
    </g>
  </g>
</svg>