<?xml version="1.0" encoding="utf-8"?>
<svg width="24px" height="24px" viewBox="0 0 24 24" version="1.1" xmlns:xlink="http://www.w3.org/1999/xlink" xmlns="http://www.w3.org/2000/svg">
  <defs>
    <path d="M0 0L24 0L24 24L0 24L0 0Z" id="path_1" />
    <clipPath id="mask_1">
      <use xlink:href="#path_1" />
    </clipPath>
  </defs>
  <g id="JQuery">
    <path d="M0 0L24 0L24 24L0 24L0 0Z" id="Background" fill="none" fill-rule="evenodd" stroke="none" />
    <g clip-path="url(#mask_1)">
      <path d="M14.3362 1.44373C14.2856 1.45123 14.235 1.46623 14.1862 1.48873C13.7737 1.69311 13.305 2.30061 13.215 2.42061C13.2094 2.42811 13.2037 2.43561 13.2 2.44311C12.7369 3.13686 12.4894 3.94873 12.48 4.79436C12.4744 5.42811 12.5981 6.05623 12.8494 6.66186C13.4344 8.06623 14.6494 9.22873 16.095 9.77248C16.1437 9.78936 16.1906 9.80623 16.275 9.83623C16.2825 9.83998 16.3537 9.86248 16.365 9.86436L16.4175 9.88311C16.4925 9.90748 16.5694 9.93186 16.6444 9.94686C17.025 10.0237 17.3962 10.0669 17.745 10.0781C17.805 10.0781 17.865 10.08 17.925 10.08C20.5556 10.08 21.5756 8.22373 21.915 7.60498C21.9487 7.54498 21.9731 7.49623 21.9956 7.46623C21.9956 7.46436 21.9956 7.46436 21.9975 7.46248C22.1456 7.24311 22.0894 6.94498 21.87 6.79498C21.6525 6.64686 21.3544 6.70311 21.2044 6.92248C21.2044 6.92248 21.2025 6.92248 21.2025 6.92248C20.5012 7.95561 19.3012 8.26873 17.6381 7.85623C17.5144 7.82623 17.3794 7.77936 17.2594 7.73436C17.1019 7.67811 16.9444 7.61248 16.7981 7.54123C16.5075 7.39686 16.2337 7.22436 15.9862 7.03311C14.5237 5.89873 13.9519 3.53811 14.8069 2.17498C14.9212 1.99311 14.9006 1.75686 14.7562 1.59748C14.6475 1.47748 14.49 1.42311 14.3362 1.44373L14.3362 1.44373ZM10.0837 2.39997C9.97498 2.3981 9.86435 2.43372 9.77435 2.50872C9.04873 3.09935 8.30623 4.06685 8.27435 4.10622C8.2706 4.11372 8.26685 4.11935 8.26123 4.12685C6.94873 6.03747 6.84935 8.75622 8.00998 11.0531C8.19185 11.4168 8.3981 11.7637 8.61748 12.0825L8.6831 12.1762C8.86873 12.4481 9.07685 12.7556 9.3431 12.9956C9.43498 13.1006 9.53435 13.2018 9.63185 13.2993L9.67873 13.3481L9.7181 13.3875C9.81748 13.4831 9.91873 13.5806 10.0237 13.6743C10.0237 13.6743 10.0256 13.6743 10.0256 13.6743C10.0331 13.6856 10.0444 13.6931 10.0537 13.7025C10.1719 13.8075 10.2919 13.9068 10.4512 14.0325L10.4944 14.0643C10.6181 14.1637 10.7437 14.2575 10.8731 14.3493C10.8862 14.3587 10.8994 14.3681 10.9125 14.3775C10.9575 14.4075 11.0025 14.4356 11.0475 14.4675L11.0925 14.4975L11.145 14.5312C11.2406 14.595 11.3344 14.6531 11.4675 14.73C11.5537 14.7825 11.6456 14.835 11.7056 14.865C11.7319 14.88 11.76 14.895 11.8256 14.9306L11.9719 15.0075C11.9794 15.0112 12.0131 15.0262 12.0206 15.03C12.1162 15.0787 12.2156 15.1256 12.315 15.1706L12.4669 15.2381C12.5662 15.2812 12.6675 15.3225 12.7912 15.3693L12.8475 15.39C12.8512 15.3937 12.8981 15.4106 12.9019 15.4125C12.9919 15.4443 13.0837 15.4762 13.1756 15.5062L13.3856 15.5756C13.4906 15.6112 13.6125 15.6525 13.7456 15.675C14.4 15.7837 15.0356 15.84 15.6375 15.84C15.7087 15.84 15.78 15.8381 15.8494 15.8381C21.1481 15.7218 22.5262 11.22 22.5394 11.175C22.605 10.9481 22.4981 10.7062 22.2844 10.605C22.0706 10.5037 21.8156 10.575 21.6825 10.77C20.34 12.7312 17.8012 13.56 15.2156 12.8775C15.0956 12.8475 14.9794 12.8137 14.835 12.7668C14.8106 12.7593 14.79 12.7518 14.7506 12.7368C14.6662 12.7106 14.5837 12.6825 14.49 12.6468L14.3569 12.5962C14.28 12.5662 14.2031 12.5362 14.1094 12.495L14.0475 12.4668C13.9331 12.4181 13.8225 12.3637 13.7231 12.315L13.4494 12.1725C13.3875 12.1425 13.3331 12.1087 13.2487 12.0581L13.2019 12.0318L13.155 12.0037C13.0856 11.9625 13.0162 11.9193 12.9525 11.8743L12.9075 11.8462C12.9037 11.8443 12.8662 11.8181 12.8625 11.8143C12.8062 11.7787 12.7519 11.7431 12.6994 11.7093C12.5831 11.6268 12.4687 11.5406 12.3356 11.4356L12.2831 11.3925C11.0456 10.4043 10.1306 9.08435 9.70123 7.66872C9.30185 6.36935 9.5981 4.66872 10.4944 3.11997C10.6106 2.91935 10.5675 2.66435 10.3894 2.51435C10.3012 2.43935 10.1925 2.39997 10.0837 2.39997L10.0837 2.39997ZM4.80187 3.83997C4.68749 3.83997 4.57124 3.88122 4.47937 3.96372C3.56249 4.78684 2.87624 5.85372 2.80124 5.97559C0.839992 8.83121 1.21874 13.2693 2.56499 15.9825C2.59124 16.0387 2.61937 16.0931 2.64749 16.1475L2.66624 16.1775C2.69062 16.2318 2.71874 16.2881 2.72812 16.2993C2.74312 16.335 2.76562 16.3743 2.77499 16.3856C2.79749 16.4325 2.81999 16.4737 2.86124 16.545L3.01499 16.8093C3.03749 16.845 3.05999 16.8825 3.06749 16.8956C3.09749 16.9443 3.12937 16.995 3.16124 17.0456L3.23624 17.1656C3.25874 17.2012 3.28124 17.2331 3.29624 17.2518C3.37124 17.3681 3.44624 17.4843 3.52874 17.595C3.53249 17.6006 3.53624 17.6043 3.53999 17.6081L3.56999 17.6493C3.63749 17.7468 3.70687 17.8406 3.76874 17.9175L4.04249 18.2643C4.04624 18.2681 4.07624 18.3037 4.07812 18.3075L4.11749 18.3525C4.19999 18.4537 4.28812 18.555 4.37624 18.6525C4.38937 18.6675 4.40249 18.6806 4.41562 18.6956C4.49999 18.7875 4.58624 18.8793 4.67624 18.975L4.76249 19.0575C4.83374 19.1325 4.90499 19.2056 4.97999 19.275C4.97999 19.2768 5.01562 19.3106 5.01562 19.3106L5.09062 19.38C5.18062 19.4662 5.27437 19.5525 5.34562 19.6125C5.34937 19.6181 5.41687 19.6762 5.42249 19.68C5.51062 19.7587 5.59874 19.8337 5.68874 19.9068L6.14812 20.2706C6.22499 20.3268 6.30374 20.3831 6.39374 20.4487C6.42374 20.4712 6.45562 20.4937 6.48749 20.5143C6.50062 20.5256 6.51562 20.5368 6.52499 20.5425L6.86999 20.7731C6.99562 20.8556 7.12124 20.9325 7.27499 21.0243L7.35749 21.0712C7.45312 21.1275 7.55062 21.1837 7.64249 21.2325C7.69687 21.2625 7.75124 21.2887 7.79812 21.3131C7.86374 21.3487 7.93499 21.3881 8.04374 21.4406C8.05312 21.4462 8.12999 21.4837 8.13937 21.4875C8.24812 21.5418 8.35874 21.5925 8.49749 21.6543C8.49749 21.6562 8.54249 21.6768 8.54249 21.6768C8.66999 21.7312 8.79374 21.7837 8.95687 21.8493C8.98312 21.8606 9.00937 21.87 9.01499 21.8718C9.13124 21.9168 9.25312 21.9618 9.35249 21.9975C9.36187 22.0012 9.41249 22.0218 9.42187 22.0256C9.55499 22.0706 9.68624 22.1137 9.85499 22.1662C9.88312 22.1756 9.91312 22.185 9.91687 22.185L10.0125 22.215C10.1287 22.2506 10.245 22.2881 10.3706 22.3125C11.2631 22.4756 12.135 22.56 12.96 22.56L12.9619 22.56C19.8375 22.56 22.0275 17.0268 22.05 16.9706C22.1344 16.7475 22.0425 16.4962 21.8325 16.38C21.6262 16.2656 21.3637 16.32 21.2175 16.5093C19.4531 18.8325 16.125 19.695 12.315 18.8193C12.2231 18.7968 12.1294 18.7706 12.0375 18.7425L11.8575 18.6881C11.7356 18.6506 11.6137 18.6093 11.4956 18.5681C11.4937 18.5681 11.4394 18.5475 11.4394 18.5475C11.3344 18.5118 11.2294 18.4706 11.1375 18.435L11.0325 18.3937C10.9162 18.3468 10.8 18.2981 10.6875 18.2475L10.6219 18.2193C10.5206 18.1725 10.4231 18.1275 10.3256 18.0787C10.3181 18.075 10.2412 18.0375 10.2337 18.0356C10.1662 18.0018 10.0987 17.9662 10.0125 17.9193L9.62062 17.7093C9.58124 17.6831 9.53999 17.6587 9.50062 17.6381C9.38249 17.565 9.26062 17.4918 9.14062 17.415C9.11249 17.3981 9.08812 17.3793 9.04124 17.3475C8.95874 17.295 8.87812 17.2406 8.75999 17.1581L8.71312 17.1243C8.63249 17.0681 8.55374 17.0081 8.48812 16.9593C8.44687 16.9293 8.40562 16.8956 8.33812 16.845C8.27812 16.7981 8.21812 16.7531 8.16187 16.7081L8.05687 16.6218C7.96874 16.5506 7.88624 16.4756 7.79999 16.4025C7.78874 16.3912 7.77937 16.3837 7.76624 16.3743C7.67062 16.2862 7.57312 16.1981 7.45687 16.0875L7.11749 15.75C7.03499 15.6656 6.95249 15.5793 6.85874 15.4762C6.77249 15.3806 6.68999 15.285 6.57937 15.1537L6.37687 14.9062C6.35249 14.8706 6.32624 14.835 6.29437 14.7975C6.22499 14.7037 6.15562 14.6118 6.08624 14.5143C4.21874 11.9418 3.73124 6.57184 5.18624 4.60497C5.33249 4.40809 5.30624 4.13059 5.12249 3.96372C5.03249 3.88122 4.91624 3.83997 4.80187 3.83997L4.80187 3.83997Z" id="Shape" fill="#D3D3D3" fill-rule="evenodd" stroke="none" />
    </g>
  </g>
</svg>