<?xml version="1.0" encoding="utf-8"?>
<svg width="24px" height="24px" viewBox="0 0 24 24" version="1.1" xmlns:xlink="http://www.w3.org/1999/xlink" xmlns="http://www.w3.org/2000/svg">
  <defs>
    <path d="M0 0L24 0L24 24L0 24L0 0Z" id="path_1" />
    <clipPath id="mask_1">
      <use xlink:href="#path_1" />
    </clipPath>
  </defs>
  <g id="Linux">
    <path d="M0 0L24 0L24 24L0 24L0 0Z" id="Background" fill="#FFFFFF" fill-opacity="0" fill-rule="evenodd" stroke="none" />
    <g clip-path="url(#mask_1)">
      <g id="Group" transform="translate(0.44244385 0.4215088)">
        <path d="M11.1663 5.67696C11.1663 5.75388 11.0761 5.75388 11.0761 5.75388L10.9859 5.75388C10.8957 5.75388 10.8957 5.67696 10.8054 5.60003C10.8054 5.60003 10.7152 5.52311 10.7152 5.44619C10.7152 5.36926 10.7152 5.36926 10.8054 5.36926L10.9859 5.44619C11.0761 5.52311 11.1663 5.60003 11.1663 5.67696M9.54227 4.90774C9.54227 4.52313 9.36182 4.29236 9.09114 4.29236C9.09114 4.29236 9.09114 4.36928 9.00092 4.36928L9.00092 4.52313L9.27159 4.52313C9.27159 4.67698 9.36182 4.7539 9.36182 4.90774L9.54227 4.90774M12.7001 4.52313C12.8806 4.52313 12.9708 4.67698 13.0611 4.90774L13.2415 4.90774C13.1513 4.83082 13.1513 4.7539 13.1513 4.67698C13.1513 4.60005 13.1513 4.52313 13.0611 4.44621C12.9708 4.36928 12.8806 4.29236 12.7904 4.29236C12.7904 4.29236 12.7001 4.36928 12.6099 4.36928C12.6099 4.44621 12.7001 4.44621 12.7001 4.52313M9.99336 5.75388C9.90314 5.75388 9.90314 5.75388 9.90314 5.67696C9.90314 5.60003 9.90314 5.52311 9.99336 5.44619C10.1738 5.44619 10.264 5.36926 10.264 5.36926C10.3543 5.36926 10.3543 5.44619 10.3543 5.44619C10.3543 5.52311 10.264 5.60003 10.0836 5.75388L9.99336 5.75388M9.00088 5.6769C8.63997 5.52305 8.54975 5.29228 8.54975 4.90767C8.54975 4.6769 8.54975 4.52305 8.7302 4.36921C8.82043 4.21536 9.00088 4.13844 9.18133 4.13844C9.36178 4.13844 9.452 4.21536 9.63245 4.36921C9.72268 4.59998 9.81291 4.83074 9.81291 5.06151L9.81291 5.13844L9.81291 5.21536L9.90313 5.21536L9.90313 5.13844C9.99336 5.13844 9.99336 4.98459 9.99336 4.6769C9.99336 4.44613 9.99336 4.21536 9.81291 3.98459C9.63245 3.75382 9.452 3.59998 9.0911 3.59998C8.82043 3.59998 8.54975 3.75382 8.45952 3.98459C8.27907 4.29228 8.24298 4.52305 8.24298 4.90767C8.24298 5.21536 8.3693 5.52305 8.7302 5.83074C8.82043 5.75382 8.91065 5.75382 9.00088 5.6769M20.2791 16.5231C20.3693 16.5231 20.3693 16.4923 20.3693 16.4231C20.3693 16.2539 20.2791 16.0539 20.0084 15.8308C19.7377 15.6 19.2866 15.4539 18.7452 15.3923C18.655 15.3846 18.5648 15.3846 18.5648 15.3846C18.4746 15.3693 18.4746 15.3693 18.3843 15.3693C18.2941 15.3616 18.1137 15.3462 18.0234 15.3308C18.2941 14.6154 18.3843 13.9846 18.3843 13.4308C18.3843 12.6616 18.2039 12.1231 17.843 11.6616C17.4821 11.2 17.1212 10.9693 16.6701 10.8923C16.5798 10.9693 16.5798 10.9693 16.5798 11.0462C17.031 11.2 17.4821 11.5077 17.7528 11.9693C18.0234 12.5077 18.1137 12.9693 18.1137 13.5077C18.1137 13.9385 18.0234 14.577 17.6625 15.3923C17.3016 15.5154 16.9407 15.8 16.6701 16.2462C16.6701 16.3154 16.6701 16.3539 16.7603 16.3539C16.7603 16.3539 16.8505 16.2846 16.9407 16.1539C17.1212 16.0231 17.2114 15.8923 17.3919 15.7616C17.6625 15.6308 17.843 15.5616 18.1137 15.5616C18.5648 15.5616 19.0159 15.6154 19.2866 15.7231C19.6475 15.8231 19.828 15.9308 19.9182 16.0539C20.0084 16.1693 20.0986 16.277 20.1889 16.3769C20.1889 16.4769 20.2791 16.5231 20.2791 16.5231M11.9784 5.36925C11.8881 5.29232 11.8881 5.13848 11.8881 4.98463C11.8881 4.67694 11.8881 4.52309 12.0686 4.29232C12.249 4.13848 12.4295 4.06155 12.6099 4.06155C12.8806 4.06155 13.0611 4.2154 13.2415 4.36925C13.3317 4.60001 13.422 4.75386 13.422 4.98463C13.422 5.36925 13.2415 5.60001 12.8806 5.67694C12.8806 5.67694 12.9708 5.75386 13.0611 5.75386C13.2415 5.75386 13.3317 5.83078 13.5122 5.90771C13.6024 5.44617 13.6927 5.13848 13.6927 4.75386C13.6927 4.29232 13.6024 3.98463 13.422 3.75386C13.1513 3.52309 12.8806 3.44617 12.5197 3.44617C12.249 3.44617 11.9784 3.52309 11.7077 3.67694C11.5272 3.90771 11.437 4.06155 11.437 4.29232C11.437 4.67694 11.5272 4.98463 11.7077 5.29232C11.7979 5.29232 11.8881 5.36925 11.9784 5.36925M13.0611 6.59995C11.8881 7.29226 10.9859 7.59995 10.2641 7.59995C9.63248 7.59995 9.0009 7.36918 8.45955 6.98456C8.54978 7.13841 8.64 7.29226 8.73023 7.36918L9.27158 7.83072C9.63248 8.13841 10.0836 8.29226 10.5347 8.29226C11.1663 8.29226 11.8881 7.98456 12.7904 7.4461L13.6024 6.98456C13.7829 6.83072 13.9633 6.67687 13.9633 6.4461C13.9633 6.36918 13.9633 6.29226 13.8731 6.29226C13.7829 6.13841 13.3317 5.90764 12.4295 5.67687C11.6174 5.36918 10.9859 5.21533 10.625 5.21533C10.3543 5.21533 9.90316 5.36918 9.27158 5.67687C8.73023 5.98456 8.36932 6.29226 8.36932 6.59995C8.36932 6.59995 8.45955 6.67687 8.54978 6.83072C9.09113 7.21533 9.63248 7.4461 10.1738 7.4461C10.8956 7.4461 11.7979 7.13841 12.9708 6.36918L12.9708 6.52302C13.0611 6.52302 13.0611 6.59995 13.0611 6.59995M15.1362 22.1385C15.4971 22.7169 16.1287 23.0077 16.8505 23.0077C17.031 23.0077 17.2114 22.9846 17.3919 22.9385C17.5723 22.9077 17.7528 22.8539 17.843 22.7923C17.9332 22.7385 18.0234 22.6846 18.1137 22.6231C18.2941 22.5693 18.2941 22.5308 18.3844 22.4923L19.9182 21.3616C20.2791 21.1162 20.64 20.9016 21.0911 20.7154C21.452 20.5308 21.8129 20.4077 21.9934 20.3385C22.2641 20.277 22.4445 20.1846 22.625 20.0616C22.7152 19.9462 22.8054 19.8 22.8054 19.6154C22.8054 19.3923 22.625 19.2231 22.4445 19.1C22.2641 18.977 22.0836 18.8923 21.9031 18.8385C21.7227 18.7846 21.5422 18.6616 21.2716 18.4539C21.0911 18.2539 20.9107 17.9769 20.8204 17.6154L20.7302 17.1693C20.64 16.9616 20.64 16.8077 20.5498 16.7231C20.5498 16.7 20.5498 16.6923 20.4595 16.6923C20.3693 16.6923 20.1889 16.7616 20.0986 16.8923C19.9182 17.0231 19.7377 17.1693 19.5573 17.3231C19.4671 17.4769 19.1964 17.6154 19.0159 17.7462C18.7453 17.8769 18.4746 17.9462 18.2941 17.9462C17.5723 17.9462 17.2114 17.777 16.9407 17.4462C16.7603 17.2 16.6701 16.9154 16.5798 16.5923C16.3994 16.4616 16.3092 16.3923 16.1287 16.3923C15.6776 16.3923 15.4971 16.7923 15.4971 17.6L15.4971 17.8539L15.4971 18.7462L15.4971 19.4308L15.4971 19.7616L15.4971 19.9923C15.4971 20.0616 15.4069 20.2154 15.4069 20.4539C15.3167 20.6923 15.3167 20.9631 15.3167 21.2693L15.1362 22.1231L15.1362 22.1362M2.05351 21.7293C2.8926 21.8339 3.85802 22.0577 4.94975 22.3993C6.04147 22.7377 6.70914 22.9146 6.95275 22.9146C7.58433 22.9146 8.10764 22.6762 8.54072 22.2154C8.63095 22.0662 8.63095 21.8908 8.63095 21.6893C8.63095 20.9623 8.11666 20.0431 7.08809 18.9277L6.47456 18.2277C6.34824 18.0816 6.19486 17.8585 5.99636 17.5585C5.80689 17.2585 5.63546 17.0277 5.50012 16.8662C5.38283 16.6893 5.19335 16.5123 4.94975 16.3354C4.71516 16.1585 4.44448 16.0431 4.14674 15.9816C3.76779 16.0431 3.50614 16.1508 3.37982 16.297C3.2535 16.4431 3.18132 16.6046 3.16328 16.7739C3.13621 16.9354 3.08208 17.0431 2.99185 17.097C2.90163 17.1431 2.74824 17.1816 2.54072 17.22C2.49561 17.22 2.41441 17.22 2.29711 17.2277L2.0535 17.2277C1.57531 17.2277 1.2505 17.2739 1.07907 17.3508C0.853505 17.5739 0.736212 17.8277 0.736212 18.097C0.736212 18.22 0.772302 18.4277 0.844483 18.72C0.916663 19.0046 0.952754 19.2354 0.952754 19.397C0.952754 19.7123 0.844483 20.0277 0.618919 20.3431C0.393355 20.6739 0.276062 20.92 0.276062 21.0954C0.366288 21.3939 0.961776 21.6039 2.05351 21.727M5.05806 14.7346C5.05806 14.2038 5.22047 13.6192 5.5543 12.9269C5.87911 12.2346 6.20392 11.7731 6.51971 11.4654C6.50167 11.3885 6.45656 11.3885 6.38438 11.3885L6.29415 11.3115C6.0325 11.5423 5.71671 12.0808 5.33776 12.85C4.95881 13.5423 4.76031 14.1808 4.76031 14.65C4.76031 14.9962 4.85956 15.2962 5.04001 15.5577C5.23851 15.8115 5.71671 16.1808 6.4746 16.65L7.43099 17.1808C8.45054 17.9346 8.99189 18.4577 8.99189 18.7654C8.99189 18.9269 8.90167 19.0885 8.63099 19.2654C8.45054 19.45 8.20693 19.5423 7.99941 19.5423C7.98137 19.5423 7.97234 19.5577 7.97234 19.5962C7.97234 19.6039 8.06257 19.7577 8.25204 20.0577C8.63099 20.4962 9.44302 20.7115 10.5257 20.7115C12.5107 20.7115 14.0445 20.0192 15.2175 18.6346C15.2175 18.25 15.2175 18.0115 15.1272 17.9115L15.1272 17.6269C15.1272 17.1269 15.2175 16.75 15.3979 16.5038C15.5784 16.2577 15.7588 16.1423 16.0295 16.1423C16.2099 16.1423 16.3904 16.1962 16.5708 16.3115C16.6611 15.7192 16.6611 15.2038 16.6611 14.7423C16.6611 14.0423 16.6611 13.4654 16.4806 12.9269C16.3904 12.4654 16.2099 12.0808 16.0295 11.7731C15.849 11.5423 15.6686 11.3115 15.4881 11.0808C15.3077 10.85 15.2175 10.6192 15.037 10.3885C14.9468 10.0808 14.8566 9.85 14.8566 9.46539C14.5859 9.08077 14.4054 8.69616 14.1348 8.31154C13.9543 7.92693 13.7738 7.54231 13.5934 7.23462L12.7814 7.77308C11.8791 8.31154 11.1573 8.54231 10.5257 8.54231C9.98438 8.54231 9.53325 8.46539 9.26257 8.1577L8.72122 7.77308C8.72122 8.00385 8.63099 8.31154 8.45054 8.61924L7.88212 9.54231C7.62949 10.0808 7.49415 10.3885 7.46708 10.6192C7.43099 10.7731 7.40392 10.9269 7.38588 10.9269L6.70919 12.0808C5.97836 13.2346 5.60844 14.3038 5.60844 15.1885C5.60844 15.3654 5.62648 15.55 5.66257 15.7346C5.25656 15.4962 5.05806 15.1654 5.05806 14.7346M11.5182 22.0115C10.3453 22.0115 9.44301 22.1469 8.81143 22.4154L8.81143 22.3923C8.3603 22.8538 7.85504 23.0923 7.15128 23.0923C6.70917 23.0923 6.01444 22.9462 5.07609 22.6538C4.12872 22.3769 3.28962 22.1646 2.5588 22.0246C2.48662 22.0069 2.32421 21.9808 2.06256 21.9454C1.80992 21.9108 1.57534 21.8754 1.36782 21.84C1.17835 21.8054 0.961805 21.7531 0.727218 21.6823C0.501654 21.6215 0.321203 21.5423 0.185865 21.4462C0.0613533 21.3492 0 21.24 0 21.1177C0 20.9946 0.0306767 20.8631 0.0920301 20.7231C0.149774 20.6385 0.212932 20.5538 0.27609 20.4769C0.339248 20.3923 0.393384 20.3154 0.429474 20.2385C0.483609 20.1692 0.519699 20.1 0.555789 20.0231C0.59188 19.9538 0.62797 19.8846 0.646015 19.8C0.66406 19.7231 0.682105 19.6462 0.682105 19.5692C0.682105 19.4923 0.646015 19.2615 0.573835 18.8538C0.501654 18.4538 0.465564 18.2 0.465564 18.0923C0.465564 17.7538 0.555789 17.4846 0.754286 17.2923C0.952782 17.1 1.14226 17 1.34075 17L2.37835 17C2.45955 17 2.58586 16.9615 2.77534 16.8692C2.8385 16.7462 2.89263 16.6462 2.92872 16.5538C2.97383 16.4615 2.99188 16.3923 3.00992 16.3615C3.02797 16.3154 3.04602 16.2692 3.06406 16.2308C3.10015 16.1769 3.14526 16.1154 3.20842 16.0538C3.13624 15.9769 3.10015 15.8769 3.10015 15.7538C3.10015 15.6692 3.10015 15.5923 3.1182 15.5462C3.1182 15.2692 3.27158 14.8769 3.59639 14.3615L3.91218 13.8769C4.17383 13.4615 4.37233 13.1538 4.51669 12.8462C4.67008 12.5385 4.83248 12.0769 5.01293 11.4615C5.15729 10.9231 5.50015 10.3846 6.0415 9.84615L6.7182 9.15385C7.18737 8.69231 7.49414 8.30769 7.66556 8C7.83699 7.69231 7.92722 7.30769 7.92722 7C7.92722 6.84615 7.88211 6.38461 7.78286 5.61539C7.69263 4.84615 7.64752 4.07692 7.64752 3.38461C7.64752 2.84615 7.70165 2.46154 7.81895 2.07692C7.93624 1.69231 8.14376 1.30769 8.45053 1C8.7212 0.692309 9.08211 0.384617 9.62346 0.23077C10.1648 0.0769244 10.7964 0 11.5182 0C11.7889 0 12.0595 0 12.3302 0.0769244C12.6009 0.0769244 12.9618 0.153847 13.4129 0.307692C13.7738 0.461539 14.1347 0.615385 14.4054 0.846154C14.7663 1.07692 15.037 1.46154 15.3077 1.84616C15.4881 2.30769 15.6686 2.76923 15.7588 3.38462C15.849 3.76923 15.849 4.15385 15.9392 4.69231C15.9392 5.15385 16.0295 5.46154 16.0295 5.69231C16.1197 5.92308 16.1197 6.23077 16.2099 6.61539C16.3002 6.92308 16.3904 7.23077 16.5708 7.46154C16.7513 7.76923 16.9317 8.07692 17.2024 8.38462C17.4731 8.76923 17.834 9.15385 18.1949 9.61539C19.0069 10.3846 19.6385 11.2308 19.9994 12.0769C20.4505 12.8462 20.7212 13.8462 20.7212 14.9154C20.7212 15.4462 20.631 15.9615 20.4505 16.4615C20.631 16.4615 20.7212 16.5231 20.8114 16.6308C20.9017 16.7385 20.9919 16.9692 21.0821 17.3308L21.1723 17.9C21.2626 18.0692 21.3528 18.2308 21.6235 18.3692C21.8039 18.5077 21.9844 18.6231 22.255 18.7154C22.4355 18.7923 22.7062 18.9 22.8866 19.0385C23.0671 19.1923 23.1573 19.3538 23.1573 19.5231C23.1573 19.7846 23.0671 19.9769 22.8866 20.1154C22.7062 20.2692 22.5257 20.3769 22.255 20.4462C22.0746 20.5231 21.7137 20.6769 21.1723 20.8938C20.7212 21.1215 20.2701 21.3977 19.8189 21.7246L18.9167 22.3792C18.5558 22.6792 18.1949 22.8946 17.9242 23.0254C17.6535 23.1638 17.2926 23.2331 16.9317 23.2331L16.3002 23.1715C15.5783 23.01 15.1272 22.7023 14.8565 22.2331C13.4129 22.0838 12.24 22.01 11.5182 22.01" id="Shape" fill="#D3D3D3" fill-rule="evenodd" stroke="none" />
      </g>
    </g>
  </g>
</svg>