<?xml version="1.0" encoding="utf-8"?>
<svg width="26.526306px" height="24px" viewBox="0 0 26.526306 24" version="1.1" xmlns:xlink="http://www.w3.org/1999/xlink" xmlns="http://www.w3.org/2000/svg">
  <path d="M10.6668 0L2.52618 0C1.82858 0 1.23315 0.246643 0.739899 0.739899C0.246613 1.23315 0 1.82858 0 2.52618L0 21.4738C0 22.1714 0.246613 22.7668 0.739899 23.2601C1.23315 23.7534 1.82858 24 2.52618 24L10.6668 24C11.3644 24 11.9598 23.7534 12.4531 23.2601C12.9464 22.7668 13.193 22.1714 13.193 21.4738L13.193 2.52618C13.193 1.82858 12.9464 1.23315 12.4531 0.739899C11.9598 0.246643 11.3644 0 10.6668 0L10.6668 0ZM17.6842 9.54382C17.6842 9.54382 21.3103 10.5569 21.3333 12.9123C21.8763 12.1375 21.8257 9.67545 24.9825 9.54382C21.7574 9.65802 21.3333 5.61401 21.3333 5.61401C21.3333 5.61401 20.7386 9.491 17.6842 9.54382L17.6842 9.54382ZM14.0351 23.8596L26.5263 24L26.5263 16.4912L14.0351 23.8596L14.0351 23.8596Z" id="Lunacy" fill="#D3D3D3" fill-rule="evenodd" stroke="none" />
</svg>