<?xml version="1.0" encoding="utf-8"?>
<svg width="18.447754px" height="24px" viewBox="0 0 18.447754 24" version="1.1" xmlns:xlink="http://www.w3.org/1999/xlink" xmlns="http://www.w3.org/2000/svg">
  <path d="M13.9702 0L0 0L0 24L18.4478 24L18.4478 3.58209L13.9702 3.58209L13.9702 0L13.9702 0ZM18.4478 2.50748L14.8657 0L14.8657 2.50748L18.4478 2.50748L18.4478 2.50748ZM15.0084 10.9983L13.4418 10.7422C13.3501 10.4279 13.2247 10.1257 13.0678 9.83969L13.9823 8.53632C14.0562 8.43106 14.0435 8.28766 13.9526 8.19647L12.9217 7.16614C12.8297 7.07443 12.685 7.0625 12.5795 7.13858L11.2957 8.06131C11.0071 7.9017 10.7022 7.77499 10.386 7.68304L10.1127 6.1228C10.0905 5.99609 9.98044 5.90332 9.85162 5.90332L8.39371 5.90332C8.26382 5.90332 8.15305 5.99741 8.13208 6.1257L7.87866 7.67746C7.56058 7.76892 7.25522 7.89429 6.96762 8.05176L5.68732 7.13724C5.58154 7.06171 5.43759 7.07388 5.34561 7.16534L4.31528 8.19568C4.22437 8.28662 4.21164 8.42975 4.28558 8.53497L5.18658 9.82404C5.02621 10.1143 4.89844 10.4215 4.80539 10.7412L3.25977 10.9986C3.13199 11.0198 3.03815 11.1306 3.03815 11.2599L3.03815 12.7179C3.03815 12.8464 3.1304 12.9564 3.25684 12.9789L4.80249 13.2531C4.89499 13.5719 5.02277 13.8792 5.18365 14.1702L4.27155 15.446C4.19626 15.5512 4.20819 15.6957 4.29965 15.7877L5.33023 16.8191C5.42117 16.91 5.56458 16.9227 5.6698 16.8488L6.96072 15.9446C7.25046 16.1039 7.55661 16.2303 7.8739 16.3221L8.1326 17.8757C8.15356 18.0032 8.2641 18.0967 8.39371 18.0967L9.85162 18.0967C9.98019 18.0967 10.0902 18.0045 10.1125 17.8781L10.3895 16.3168C10.7073 16.2232 11.0119 16.096 11.2987 15.9364L12.5988 16.8485C12.7043 16.923 12.8475 16.91 12.9387 16.8191L13.9693 15.7877C14.061 15.6957 14.0729 15.5507 13.9969 15.4452L13.0696 14.1577C13.2268 13.8715 13.3517 13.5688 13.4426 13.2544L15.0113 12.9789C15.1383 12.9567 15.2305 12.8464 15.2305 12.7179L15.2305 11.2599C15.2308 11.1301 15.1367 11.0193 15.0084 10.9983L15.0084 10.9983ZM9.13434 13.8554C8.10956 13.8554 7.27881 13.0247 7.27881 11.9999C7.27881 10.9752 8.10956 10.1444 9.13434 10.1444C10.1591 10.1444 10.9898 10.9752 10.9898 11.9999C10.9898 13.0247 10.1591 13.8554 9.13434 13.8554L9.13434 13.8554Z" id="Makefile" fill="#D3D3D3" fill-rule="evenodd" stroke="none" />
</svg>