<?xml version="1.0" encoding="utf-8"?>
<svg width="37.78308px" height="23.999939px" viewBox="0 0 37.78308 23.999939" version="1.1" xmlns:xlink="http://www.w3.org/1999/xlink" xmlns="http://www.w3.org/2000/svg">
  <path d="M27.5069 7.43062C27.5051 8.73129 29.8336 11.3085 29.8336 11.3085C29.8336 11.3085 29.6395 11.3755 29.3811 11.1146C28.0125 10.2361 27.3775 8.65862 27.3775 8.65862C27.3775 8.65862 27.225 9.09106 26.9251 10.4036C24.2894 9.23398 25.7617 5.36244 25.7617 5.36244C25.7617 5.36244 24.9054 5.11131 24.7277 3.74666C24.55 2.38202 24.1496 2.17065 23.7582 1.6785C23.3669 1.18633 23.2357 0.820145 23.3704 0.38588C23.5051 -0.0483856 24.1183 -0.0497589 24.8569 0.0627289C25.5956 0.175217 26.2788 0.902924 26.2788 0.902924C26.2788 0.902924 27.7018 0.524185 30.2213 2.71259C32.7408 4.90099 33.776 8.52936 33.776 8.52936C33.776 8.52936 33.5393 8.56342 34.4223 8.91713C37.4206 10.1701 37.3307 11.1146 37.3307 11.1146L35.1979 11.6316C35.1979 11.6316 35.1278 11.8197 36.1673 12.4072C37.2068 12.9947 37.7831 14.1522 37.7831 14.1522C37.7831 14.1522 36.977 13.4627 36.1673 12.9889C35.2012 12.8449 34.412 11.3242 34.4223 11.3085C34.4257 11.3033 34.6674 11.2528 34.9917 11.185C35.6647 11.0443 36.6932 10.8292 36.6844 10.7914C36.6713 10.7355 35.2749 9.53632 34.4223 9.43419C33.5697 9.33206 33.1296 8.65862 33.1296 8.65862C33.1296 8.65862 32.7575 7.78267 31.9663 6.13802C31.1588 4.05113 29.6728 2.90245 28.4116 2.00165C27.1504 1.10085 25.9556 1.35532 25.9556 1.35532C25.9556 1.35532 25.4791 0.888443 24.8569 0.579742C23.1605 0.10347 23.9536 1.12122 24.146 1.35532C24.3384 1.58943 24.8601 2.32964 25.0508 2.84183C25.2415 3.35402 25.126 3.07191 25.2447 3.74666C25.3635 4.4214 25.797 4.67723 26.085 4.97466C26.373 5.27206 26.3385 5.43179 26.085 6.00874C25.5095 8.37189 26.168 9.34018 26.6666 9.75734C26.5372 8.49629 27.5069 7.43062 27.5069 7.43062L27.5069 7.43062ZM26.0849 2.38947C26.0849 2.38947 26.7553 2.67297 26.8605 3.42357C26.8605 3.42357 27.1727 2.76146 26.9251 2.4541C26.6775 2.14674 26.0849 2.38947 26.0849 2.38947L26.0849 2.38947ZM20.7349 15.7457C20.6927 15.371 20.5186 15.0802 20.2126 14.8731C19.9066 14.666 19.5214 14.5625 19.0571 14.5625C18.5585 14.5625 18.1628 14.6759 17.87 14.9028C17.5772 15.1297 17.4308 15.4159 17.4308 15.7615C17.4308 16.02 17.5092 16.2304 17.6662 16.3926C17.8232 16.5549 18.0157 16.6822 18.2439 16.7745C18.4721 16.8668 18.6917 16.9407 18.9028 16.9961L19.6942 17.2018C19.9527 17.2652 20.2178 17.3515 20.4895 17.461C20.7613 17.5705 21.0132 17.713 21.2453 17.8884C21.4775 18.0638 21.6655 18.2821 21.8092 18.5433C21.953 18.8044 22.0249 19.1171 22.0249 19.4811C22.0249 19.9375 21.9068 20.345 21.6707 20.7038C21.4346 21.0626 21.0936 21.3442 20.6478 21.5486C20.202 21.7531 19.6612 21.8553 19.0255 21.8553C18.118 21.8553 17.3958 21.6429 16.859 21.2182C16.3221 20.7935 16.0339 20.2145 15.9944 19.4811L17.221 19.4811C17.258 19.9216 17.4492 20.2488 17.7948 20.4624C18.1404 20.6761 18.548 20.7829 19.0175 20.7829C19.5372 20.7829 19.9666 20.6629 20.3055 20.4229C20.6445 20.1828 20.814 19.8649 20.814 19.4692C20.814 19.2292 20.7461 19.032 20.6102 18.8777C20.4744 18.7233 20.291 18.5967 20.0602 18.4978C19.8294 18.3988 19.5689 18.3111 19.2787 18.2346L18.3211 17.9735C17.6695 17.7967 17.1551 17.5369 16.7778 17.1939C16.4006 16.851 16.212 16.3972 16.212 15.8327C16.212 15.3658 16.3386 14.9582 16.5919 14.61C16.8451 14.2618 17.1887 13.9907 17.6227 13.7968C18.0566 13.6029 18.544 13.506 19.0848 13.506C19.6335 13.506 20.1183 13.6023 20.539 13.7948C20.9598 13.9874 21.2915 14.2525 21.5342 14.5902C21.7769 14.9279 21.9035 15.313 21.9141 15.7457L20.7349 15.7457L20.7349 15.7457ZM30.5246 17.6688C30.5246 18.4153 30.4039 19.0728 30.1625 19.6414C29.9211 20.2099 29.5907 20.6709 29.1713 21.0243L30.2634 22.4489L29.013 22.4489L28.3205 21.5506C27.8773 21.7379 27.3959 21.8316 26.8762 21.8316C26.1745 21.8316 25.5486 21.6647 24.9986 21.331C24.4485 20.9973 24.0152 20.5192 23.6987 19.8966C23.3821 19.274 23.2238 18.5314 23.2238 17.6688C23.2238 16.8035 23.3821 16.0602 23.6987 15.439C24.0152 14.8177 24.4485 14.3403 24.9986 14.0065C25.5486 13.6728 26.1745 13.506 26.8762 13.506C27.5753 13.506 28.1998 13.6728 28.7498 14.0065C29.2999 14.3403 29.7332 14.8177 30.0497 15.439C30.3663 16.0602 30.5246 16.8035 30.5246 17.6688L30.5246 17.6688ZM0 13.6167L1.48389 13.6167L4.06387 19.9163L4.15884 19.9163L6.73883 13.6167L8.22272 13.6167L8.22272 21.7207L7.05936 21.7207L7.05936 15.8564L6.98416 15.8564L4.59412 21.7088L3.6286 21.7088L1.23855 15.8524L1.16338 15.8524L1.16338 21.7207L0 21.7207L0 13.6167L0 13.6167ZM32.048 13.6167L33.2708 13.6167L33.2708 20.6681L36.9429 20.6681L36.9429 21.7207L32.048 21.7207L32.048 13.6167L32.048 13.6167ZM26.4647 19.0933L27.6676 19.0933L28.4471 20.1102C28.7162 19.857 28.9279 19.5253 29.0822 19.115C29.2366 18.7048 29.3137 18.2227 29.3137 17.6687C29.3137 17.0092 29.2076 16.4533 28.9952 16.0009C28.7828 15.5484 28.4926 15.2055 28.1246 14.972C27.7566 14.7386 27.3405 14.6218 26.8762 14.6218C26.4119 14.6218 25.9957 14.7386 25.6277 14.972C25.2597 15.2055 24.9696 15.5484 24.7572 16.0009C24.5448 16.4533 24.4387 17.0092 24.4387 17.6687C24.4387 18.3256 24.5448 18.8809 24.7572 19.3347C24.9696 19.7884 25.2597 20.132 25.6277 20.3655C25.9957 20.5989 26.4119 20.7157 26.8762 20.7157C27.1374 20.7157 27.384 20.6787 27.6161 20.6049L26.4647 19.0933L26.4647 19.0933ZM10.6563 24C10.4796 24 10.3186 23.9861 10.1736 23.9584C10.0285 23.9307 9.9203 23.901 9.84908 23.8694L10.134 22.8999C10.4585 22.9896 10.7308 22.9968 10.9511 22.9217C11.1714 22.8465 11.3567 22.6071 11.5071 22.2035L11.6535 21.7998L9.42963 15.6427L10.6959 15.6427L12.2352 20.3595L12.2985 20.3595L13.8378 15.6427L15.108 15.6427L12.6032 22.5319C12.4264 23.0094 12.1797 23.3734 11.8632 23.624C11.5466 23.8746 11.1443 24 10.6563 24L10.6563 24Z" id="MySQL" fill="#D3D3D3" fill-rule="evenodd" stroke="none" />
</svg>