<?xml version="1.0" encoding="utf-8"?>
<svg width="21.810547px" height="24px" viewBox="0 0 21.810547 24" version="1.1" xmlns:xlink="http://www.w3.org/1999/xlink" xmlns="http://www.w3.org/2000/svg">
  <path d="M6.73959 21.8071L8.37083 21.0344L10.6031 22.3651C10.6031 22.3651 10.8773 22.576 11.204 22.3651C11.5308 22.1542 20.0471 17.3855 20.0471 17.3855C20.0471 17.3855 20.2722 17.2508 20.2617 16.7846C20.2513 16.3183 20.2617 6.95425 20.2617 6.95425C20.2617 6.95425 20.3472 6.86278 20.0471 6.65376C19.747 6.44475 11.204 1.63128 11.204 1.63128C11.204 1.63128 10.9132 1.44728 10.6031 1.63128C10.2929 1.81528 1.80295 6.65376 1.80295 6.65376C1.80295 6.65376 1.64262 6.67649 1.63124 6.95425C1.61985 7.23201 1.63124 16.7846 1.63124 16.7846C1.63124 16.7846 1.56813 17.2801 1.80295 17.3855C2.03777 17.491 4.55029 18.888 4.55029 18.888C4.55029 18.888 4.72495 19.0101 4.85078 18.9738C4.97664 18.9376 5.4947 18.9738 5.4947 18.9738C5.4947 18.9738 6.39745 18.7732 6.39617 17.9436C6.3949 17.114 6.39617 7.76987 6.39617 7.76987C6.39617 7.76987 6.36272 7.56392 6.65373 7.55523C6.94475 7.54654 7.94156 7.55523 7.94156 7.55523C7.94156 7.55523 8.11901 7.61031 8.11327 7.76987C8.10751 7.92941 8.11327 18.2441 8.11327 18.2441C8.11327 18.2441 7.9891 19.3193 7.42643 19.8324C6.86376 20.3455 6.53654 20.5266 6.13861 20.5622C5.74068 20.5977 4.67908 20.5622 4.67908 20.5622C4.67908 20.5622 4.41892 20.5227 3.69175 20.2187C2.96458 19.9148 1.37367 18.9738 1.37367 18.9738C1.37367 18.9738 0.133507 18.2155 0.0858536 17.6431C0.0382004 17.0707 0 16.7846 0 16.7846L0.0858536 6.39619C0.0858536 6.39619 0.0510559 5.81739 0.858543 5.36594C1.66604 4.9145 10.2167 0.128834 10.2167 0.128834C10.2167 0.128834 10.4422 -0.00297928 10.6889 5.14984e-05C10.9356 0.00308037 11.3757 5.14984e-05 11.3757 5.14984e-05C11.3757 5.14984e-05 11.5781 0.0219307 11.7621 0.128834C11.9461 0.235737 21.0343 5.36594 21.0343 5.36594C21.0343 5.36594 21.8061 5.98181 21.807 6.48205C21.808 6.98229 21.807 17.5143 21.807 17.5143C21.807 17.5143 21.8899 17.9641 21.249 18.4587C20.6081 18.9534 17.9006 20.4334 17.9006 20.4334L11.4615 23.9963L10.4742 23.9963C10.4742 23.9963 10.478 24.0271 10.2167 23.9105C9.95538 23.7938 6.73959 21.9358 6.73959 21.9358L6.73959 21.8071L6.73959 21.8071ZM16.3553 10.5601L17.6431 10.5601C17.6431 10.5601 17.8973 10.5318 17.8577 10.3026C17.8518 10.2682 17.8485 10.222 17.8444 10.1652C17.8214 9.8429 17.7739 9.17996 17.085 8.41379C16.2747 7.51259 14.9287 7.3378 14.6811 7.34061C14.4335 7.34342 12.2343 7.34061 12.2343 7.34061C12.2343 7.34061 11.1355 7.42773 10.3025 8.07037C9.4696 8.71301 9.27972 9.45802 9.27227 9.83038C9.27192 9.84801 9.2714 9.86738 9.27084 9.88835C9.25959 10.3102 9.23109 11.3788 10.1737 11.9338C11.1633 12.5165 11.0603 12.4927 12.5347 12.7065C14.0091 12.9203 15.7911 13.0056 16.2265 13.5221C16.6618 14.0387 16.4872 15.0294 15.6255 15.2392C14.7638 15.449 14.7659 15.4946 13.6938 15.4968C12.6217 15.4989 12.136 15.3935 12.1055 15.368C12.0749 15.3425 10.7306 15.2053 10.603 13.7797C10.568 13.5184 10.5184 13.5193 10.3744 13.5218L10.3743 13.5218C10.3526 13.5221 10.3288 13.5226 10.3025 13.5221C10.1019 13.5187 9.27227 13.5221 9.27227 13.5221C9.27227 13.5221 8.97116 13.5172 8.97177 13.7797C8.97238 14.0422 9.01799 15.365 9.87325 15.969C10.7285 16.5729 11.1056 16.8411 12.5347 16.9992C13.9638 17.1573 15.4538 16.9134 15.4538 16.9134C15.4538 16.9134 17.6069 16.5129 18.0723 15.0246C18.5377 13.5363 17.8188 12.3925 17.4284 12.1914C17.038 11.9903 16.2422 11.4468 14.2089 11.2899C12.1756 11.133 11.6707 10.8468 11.6333 10.8177C11.6306 10.8156 11.6223 10.8112 11.6095 10.8045C11.4416 10.7158 10.5029 10.2202 11.4615 9.2294C12.3253 8.78598 12.8049 8.81809 13.0872 8.83699C13.138 8.84039 13.1824 8.84336 13.2216 8.84306C13.4779 8.84104 14.6811 8.84306 14.6811 8.84306C14.6811 8.84306 15.7288 9.09541 15.9689 9.7016C16.209 10.3078 16.3553 10.5601 16.3553 10.5601L16.3553 10.5601Z" id="NodeJS" fill="#D3D3D3" fill-rule="evenodd" stroke="none" />
</svg>