<?xml version="1.0" encoding="utf-8"?>
<svg width="24px" height="24px" viewBox="0 0 24 24" version="1.1" xmlns:xlink="http://www.w3.org/1999/xlink" xmlns="http://www.w3.org/2000/svg">
  <path d="M12 0C5.37259 0 0 5.37259 0 12C0 18.6274 5.37259 24 12 24C18.6274 24 24 18.6274 24 12C24 5.37259 18.6274 0 12 0ZM15.4265 7.06409C15.4265 6.10541 16.2036 5.32825 17.1623 5.32825C17.628 5.32825 18.0509 5.51166 18.3627 5.81018L17.0869 7.20749L18.3458 8.33395C18.0357 8.62305 17.6197 8.79996 17.1623 8.79996C16.2036 8.79996 15.4265 8.02277 15.4265 7.06409ZM17.3887 7.20749L18.5209 5.98352C18.757 6.28003 18.8982 6.65558 18.8982 7.06409C18.8982 7.48993 18.7448 7.87997 18.4903 8.18198L17.3887 7.20749ZM14.1786 8.33957C14.7274 7.88974 15.6125 8.33957 15.6125 8.33957L11.4616 11.9999L10.7823 11.1698C10.7823 11.1698 13.6297 8.78937 14.1786 8.33957ZM11.688 12.2641L15.537 8.9433C15.537 8.9433 15.8874 8.68683 16.1408 8.90558C16.3943 9.1243 16.2579 9.35519 16.0653 9.50937C15.8728 9.66351 12.1031 12.7924 12.1031 12.7924L11.688 12.2641ZM12.9333 13.6981C12.6664 13.4627 12.3672 13.0943 12.3672 13.0943L16.0654 10C16.0654 10 13.8578 12.9245 12.9333 13.6981ZM10.6314 11.434L9.87665 12.1132L11.2351 12.1887L10.6314 11.434ZM10.8955 12.981L11.537 12.4905L11.9144 12.9433L10.8955 12.981ZM12.6691 13.9244L12.1408 13.3207L10.4805 13.3207L6.93329 16.0754L7.68802 17.2452L7.91443 16.3018C7.91443 16.3018 10.3616 15.682 11.0842 15.2075C11.8068 14.7329 12.6691 13.9244 12.6691 13.9244ZM6.58115 16.3849L7.29813 17.3283L5.07172 17.3283L6.58115 16.3849Z" id="Postman" fill="#D3D3D3" fill-rule="evenodd" stroke="none" />
</svg>