<?xml version="1.0" encoding="utf-8"?>
<svg width="24px" height="24px" viewBox="0 0 24 24" version="1.1" xmlns:xlink="http://www.w3.org/1999/xlink" xmlns="http://www.w3.org/2000/svg">
  <defs>
    <path d="M0 0L24 0L24 24L0 24L0 0Z" id="path_1" />
    <clipPath id="mask_1">
      <use xlink:href="#path_1" />
    </clipPath>
  </defs>
  <g id="PostgreSQL">
    <path d="M0 0L24 0L24 24L0 24L0 0Z" id="Background" fill="none" fill-rule="evenodd" stroke="none" />
    <g clip-path="url(#mask_1)">
      <path d="M13 2.00006C9.28125 2.00006 8.31641 4.82818 7.99219 6.46881C8.4375 6.2774 9.53516 6.00006 10 6.00006L10.0195 6.00006C11.1641 6.00787 11.5195 6.33209 11.75 7.39068C11.918 8.16803 12.0039 9.37896 12 10.0001C11.9961 11.3594 11.668 12.2969 11.4258 12.9258L11.3477 13.129C11.2891 13.2969 11.2187 13.4532 11.1562 13.5977C11.0938 13.7501 11.0391 13.8829 11 14.0001C11.2422 14.0547 11.4336 14.1329 11.5625 14.1876L11.6367 14.2227C11.6602 14.2344 11.6836 14.2422 11.7031 14.2579C12.1289 14.5157 12 15.1094 12 15.5782C12 15.9688 12.0117 17.5235 12 19.004C12.043 19.6446 12.207 20.1836 12.3477 20.5782C12.5547 21.1329 13.0195 21.9571 14 22.0001C14.7734 22.0352 15.8906 21.629 16 20.004L16 16.004C16.0742 14.668 17.6055 14.1368 18 13.8438C17.9453 13.7696 17.7344 13.1172 17.5117 12.7696L17.4688 12.6876C17.4375 12.6094 17.3555 12.4688 17.2539 12.2813C16.6641 11.211 15.4297 8.4649 16.2734 7.05865C16.6406 6.44146 17 6.086 18 6.00006C17.5938 4.8399 16.4688 2.05865 13 2.00006L13 2.00006ZM6.4375 2.00006C4.56641 2.07037 2 3.23053 2 7.01178C2 9.57428 3.74219 17.0001 6.49219 17.0001C6.61719 17.0001 6.74219 16.9571 6.87109 16.8907C6.62891 16.6797 6.45312 16.4063 6.42969 16.0469C6.38672 15.3204 6.91406 14.8087 8.05078 14.5196C8.10547 14.5118 8.39453 14.4258 9.03125 14.0665C8.69531 13.9219 8.34375 13.7266 8.05469 13.4258C7.26172 12.5977 6.85938 11.4376 7.00781 10.3946C7.14844 9.37896 7.06641 8.38287 7.02344 7.85162L7.01953 7.80084L7.00781 7.62506L6.98438 7.25787L7.01562 6.2735C7.33984 4.60943 8.01953 3.32037 9 2.42975C8.25781 2.18756 7.32422 1.96881 6.4375 2.00006L6.4375 2.00006ZM16.9336 2.00396C16.7422 2.00787 16.5625 2.0235 16.3867 2.04303C17.3906 2.74225 18.3125 3.87115 18.9414 5.67193L18.9844 7.04693C18.9883 7.09381 18.9961 7.14068 19.0039 7.18756C19.0352 7.35943 19.0742 7.59381 19.043 7.87506C19.0039 8.19537 18.9648 8.5235 18.9531 8.85162C18.9453 9.17584 18.9883 9.49225 19.0352 9.82818C19.1211 10.4258 19.0742 11.0313 18.8867 11.6797L18.5937 12.6876C18.6719 12.8594 18.7461 13.0352 18.8203 13.2188C18.8359 13.2657 18.8516 13.3008 18.8633 13.3321L19.1914 13.7852C20.957 12.2305 22 8.97662 22 5.62506C22 4.97662 21.8242 4.47662 21.5977 4.18756C20.2578 2.47271 18.4023 1.98053 16.9336 2.00396L16.9336 2.00396ZM10 7.00006C9.71875 7.00006 8.75 7.23053 8.38281 7.38678L8.02344 7.53912C8.01562 7.54693 8.00781 7.55474 8.00391 7.56256C8.00781 7.61724 8.01562 7.68365 8.02344 7.76568C8.06641 8.3399 8.15234 9.40631 7.99609 10.5352C7.89062 11.2774 8.19141 12.1211 8.78125 12.7344C9.11719 13.086 9.71875 13.3165 10.1562 13.4141C10.1836 13.3438 10.207 13.2852 10.2383 13.2071C10.293 13.0743 10.3555 12.9336 10.4141 12.7774L10.4922 12.5665C10.668 12.1094 10.9961 11.254 11 9.99615C11.0039 9.58209 10.957 8.82818 10.8711 8.18365C10.8594 8.19928 10.8516 8.19928 10.8438 8.21881C10.6953 8.36725 10.4648 8.50006 10.2109 8.461C9.79688 8.39459 9.48047 7.89068 9.5 7.70318C9.52344 7.51959 9.87891 7.42193 10.293 7.48834C10.4336 7.51178 10.5664 7.55474 10.6758 7.60162C10.7148 7.63287 10.7461 7.6524 10.7812 7.67584C10.7773 7.6524 10.7773 7.62506 10.7695 7.60162C10.6758 7.16021 10.5977 7.07818 10.5938 7.07428C10.5898 7.07037 10.4844 7.00396 10 7.00006L10 7.00006ZM17.9844 7.01178C17.5 7.07037 17.3633 7.19928 17.1875 7.48443C17.5273 7.48443 17.7734 7.59771 17.8008 7.80865C17.8281 7.98834 17.6758 8.16021 17.6094 8.22662C17.4688 8.35943 17.293 8.44928 17.1172 8.46881C17.0859 8.47662 17.0547 8.47662 17.0195 8.47662C17.0117 8.47662 17.0078 8.47271 17 8.47271C17.0586 9.29693 17.4297 10.4102 17.9258 11.4024C18.0625 10.9258 18.1172 10.461 18.0469 9.96881C17.9961 9.60553 17.9414 9.23053 17.9531 8.82037C17.9688 8.44928 18.0078 8.10162 18.0469 7.76178C18.0781 7.50006 17.9766 7.25787 17.9844 7.01178L17.9844 7.01178ZM20.1797 14.5313C20.1016 14.5196 19.9922 14.5274 19.8594 14.5547C19.2305 14.6837 18.8125 14.7188 18.5039 14.6993C18.3945 14.7735 18.2812 14.8438 18.1406 14.9219C17.5781 15.2305 17.0781 15.5508 17.0117 16.0001L17.0117 16.5821C17.6719 16.6133 18.5547 16.2032 19.0625 15.9688C20.0195 15.5274 20.7383 14.6055 20.1797 14.5313L20.1797 14.5313ZM9.83594 14.7618C9.28516 15.0899 8.66406 15.4141 8.25 15.5001C6.78125 15.8907 7.69141 16.3477 8.21094 16.3985C8.76562 16.5352 10.125 16.8438 11 16.129C11 16.129 11 16.129 11 16.1251L11 15.5782C11 15.4727 11.0039 15.3672 11.0117 15.254C11.0117 15.1954 11.0156 15.1172 11.0156 15.0469C10.9492 15.0196 10.8672 14.9962 10.7773 14.9727L9.83594 14.7618Z" id="Shape" fill="#D3D3D3" fill-rule="evenodd" stroke="none" />
    </g>
  </g>
</svg>