<?xml version="1.0" encoding="utf-8"?>
<svg width="22.52472px" height="24px" viewBox="0 0 22.52472 24" version="1.1" xmlns:xlink="http://www.w3.org/1999/xlink" xmlns="http://www.w3.org/2000/svg">
  <path d="M0.0160828 22.9462L0.0160828 0.963074C0.0160828 0.963074 -0.0390396 0.0600739 1.04654 0.0184784C2.1321 -0.0231018 3.45094 0.0184784 3.45094 0.0184784C3.45094 0.0184784 4.6511 0.322647 4.65314 0.963074C4.65518 1.6035 4.65314 8.60564 4.65314 8.60564C4.65314 8.60564 4.53625 9.5795 5.42599 9.63609C6.31571 9.69267 7.65865 9.63609 7.65865 9.63609C7.65865 9.63609 8.47688 9.76753 8.51736 8.60564C8.55784 7.44373 8.51736 0.963074 8.51736 0.963074C8.51736 0.963074 8.63791 0.059082 9.54781 0.0184937C10.4577 -0.0220947 12.2957 0.0184937 12.2957 0.0184937C12.2957 0.0184937 13.4158 0.388977 13.412 0.963074C13.4083 1.53717 13.412 8.60564 13.412 8.60564C13.412 8.60564 13.3016 9.63727 14.5284 9.63609C15.7551 9.63492 21.3122 9.63609 21.3122 9.63609C21.3122 9.63609 22.5073 9.55225 22.5144 10.9242C22.5215 12.2961 22.5144 22.9462 22.5144 22.9462C22.5144 22.9462 22.7185 23.924 21.3122 23.9766C19.9059 24.0292 1.04654 23.9766 1.04654 23.9766C1.04654 23.9766 0.453369 24.0879 0.18782 23.8049C-0.0777283 23.5219 0.0160828 22.9462 0.0160828 22.9462L0.0160828 22.9462ZM14.614 14.5308L17.0188 14.5308C17.3033 14.5308 17.5461 14.6313 17.7473 14.8325C17.9485 15.0337 18.0491 15.2765 18.0491 15.5611L18.0491 18.1375C18.0491 18.422 17.9485 18.6649 17.7473 18.8661C17.5461 19.0672 17.3033 19.1678 17.0188 19.1678L14.614 19.1678C14.3295 19.1678 14.0867 19.0672 13.8855 18.8661C13.6843 18.6649 13.5837 18.422 13.5837 18.1375L13.5837 15.5611C13.5837 15.2765 13.6843 15.0337 13.8855 14.8325C14.0867 14.6313 14.3295 14.5308 14.614 14.5308L14.614 14.5308Z" id="RabbitMQ" fill="#D3D3D3" fill-rule="evenodd" stroke="none" />
</svg>