<?xml version="1.0" encoding="utf-8"?>
<svg width="44.41272px" height="24px" viewBox="0 0 44.41272 24" version="1.1" xmlns:xlink="http://www.w3.org/1999/xlink" xmlns="http://www.w3.org/2000/svg">
  <path d="M7.58478 23.6794L7.58478 21.8665C6.51184 21.8665 5.7749 21.6121 5.37411 21.1033C4.97333 20.5946 4.77286 19.8007 4.77286 18.7215L4.77286 15.0216C4.77286 14.2693 4.60641 13.6264 4.27338 13.093C3.9404 12.5596 3.24353 12.1881 2.18292 11.9784L2.18292 11.701C3.24353 11.4913 3.9404 11.1197 4.27338 10.5863C4.60641 10.0529 4.77286 9.41008 4.77286 8.65776L4.77286 4.95786C4.77286 3.87256 4.97333 3.07707 5.37411 2.57143C5.7749 2.06578 6.51184 1.81294 7.58478 1.81294L7.58478 0C5.77185 0 4.51697 0.400818 3.82013 1.20247C3.12329 2.00409 2.7749 3.25589 2.7749 4.95786L2.7749 7.91779C2.7749 8.92911 2.56985 9.65057 2.15982 10.0822C1.74969 10.5139 1.02982 10.7297 0 10.7297L0 12.9497C1.02982 12.9497 1.74969 13.1655 2.15982 13.5971C2.56985 14.0288 2.7749 14.7503 2.7749 15.7616L2.7749 18.7215C2.7749 20.4235 3.12329 21.6753 3.82013 22.4769C4.51697 23.2786 5.77185 23.6794 7.58478 23.6794L7.58478 23.6794ZM36.8279 24C38.6409 24 39.8958 23.5992 40.5926 22.7976C41.2895 21.9959 41.6378 20.7441 41.6378 19.0422L41.6378 16.0822C41.6378 15.0709 41.8429 14.3494 42.2529 13.9178C42.663 13.4861 43.3829 13.2703 44.4127 13.2703L44.4127 11.0504C43.3829 11.0504 42.663 10.8345 42.2529 10.4028C41.8429 9.97119 41.6378 9.24973 41.6378 8.2384L41.6378 5.27847C41.6378 3.57651 41.2895 2.32471 40.5926 1.52309C39.8958 0.721436 38.6409 0.320618 36.8279 0.320618L36.8279 2.13356C37.9009 2.13356 38.6378 2.3864 39.0386 2.89204C39.4394 3.39769 39.6399 4.19318 39.6399 5.27847L39.6399 8.97838C39.6399 9.7307 39.8063 10.3736 40.1393 10.907C40.4723 11.4404 41.1692 11.8119 42.2298 12.0216L42.2298 12.2991C41.1692 12.5087 40.4723 12.8802 40.1393 13.4137C39.8063 13.9471 39.6399 14.5899 39.6399 15.3422L39.6399 19.0422C39.6399 20.1213 39.4394 20.9152 39.0386 21.424C38.6378 21.9327 37.9009 22.1871 36.8279 22.1871L36.8279 24L36.8279 24ZM26.4209 4.83377C26.4027 4.60683 26.3182 4.42979 26.1673 4.3027C26.0164 4.1756 25.7877 4.11206 25.4813 4.11206C25.1885 4.11206 24.9752 4.16199 24.8413 4.26184C24.7074 4.36169 24.6393 4.4888 24.6371 4.64313C24.628 4.80881 24.7 4.94385 24.8532 5.04825C25.0064 5.15265 25.2476 5.24002 25.5766 5.31038L26.1486 5.43294C26.9179 5.59862 27.4728 5.86357 27.8133 6.22783C28.1537 6.5921 28.325 7.03976 28.3273 7.57085C28.325 8.25851 28.0732 8.78674 27.5716 9.15555C27.07 9.52434 26.3778 9.70874 25.4949 9.70874C24.8889 9.70874 24.3607 9.61909 23.9102 9.4398C23.4597 9.26051 23.1102 8.98419 22.8617 8.61086C22.6132 8.23752 22.4878 7.7592 22.4855 7.17593L24.283 7.17593C24.2989 7.49594 24.4095 7.73935 24.6149 7.90616C24.8203 8.07297 25.1046 8.15637 25.4677 8.15637C25.7718 8.15637 26.0016 8.1019 26.1571 7.99297C26.3125 7.88403 26.3914 7.74332 26.3937 7.57085C26.3914 7.41197 26.3131 7.27977 26.1588 7.17424C26.0045 7.0687 25.7332 6.97395 25.3452 6.88997L24.6507 6.74019C24.0334 6.60629 23.5471 6.38217 23.1919 6.06784C22.8367 5.75351 22.6603 5.32399 22.6626 4.77931C22.6603 4.33675 22.7789 3.94922 23.0183 3.61673C23.2578 3.28424 23.5902 3.02495 24.0157 2.83885C24.4413 2.65274 24.9298 2.55969 25.4813 2.55969C26.0442 2.55969 26.531 2.65387 26.9418 2.84225C27.3525 3.03062 27.6697 3.29559 27.8933 3.63716C28.1168 3.97873 28.2297 4.37759 28.232 4.83377L26.4209 4.83377L26.4209 4.83377ZM10.2981 9.627L10.2981 2.65497L13.3075 2.65497C13.825 2.65497 14.2777 2.74915 14.6658 2.93753C15.0539 3.1259 15.3558 3.39711 15.5714 3.75116C15.787 4.10521 15.8948 4.5296 15.8948 5.02437C15.8948 5.50778 15.7898 5.91743 15.5799 6.25333C15.3699 6.58922 15.08 6.8468 14.7101 7.02611L16.1263 9.627L14.0701 9.627L12.8445 7.32568L12.1909 7.32568L12.1909 9.627L10.2981 9.627L10.2981 9.627ZM16.6981 9.627L16.6981 2.65497L21.7229 2.65497L21.7229 4.1801L18.5909 4.1801L18.5909 5.37842L21.4641 5.37842L21.4641 6.90355L18.5909 6.90355L18.5909 8.10185L21.7093 8.10185L21.7093 9.627L16.6981 9.627L16.6981 9.627ZM28.8583 4.1801L28.8583 2.65497L34.918 2.65497L34.918 4.1801L32.821 4.1801L32.821 9.627L30.9554 9.627L30.9554 4.1801L28.8583 4.1801L28.8583 4.1801ZM12.1909 5.85504L12.8581 5.85504C13.1895 5.85504 13.4493 5.79092 13.6377 5.6627C13.8261 5.53447 13.9203 5.32172 13.9203 5.0244C13.9203 4.72482 13.8261 4.50694 13.6377 4.37077C13.4493 4.2346 13.1895 4.1665 12.8581 4.1665L12.1909 4.1665L12.1909 5.85504L12.1909 5.85504ZM13.417 22.3803L10.3281 22.3803L13.8082 11.8369L17.7208 11.8369L21.201 22.3803L18.1121 22.3803L17.5046 20.3622L14.0244 20.3622L13.417 22.3803L13.417 22.3803ZM22.21 22.3803L22.21 11.8369L26.761 11.8369C27.5435 11.8369 28.2281 11.9913 28.8151 12.3002C29.4019 12.6091 29.8584 13.0432 30.1845 13.6027C30.5105 14.1621 30.6736 14.8159 30.6736 15.5641C30.6736 16.3192 30.5062 16.973 30.1716 17.5256C29.837 18.0781 29.3685 18.5037 28.7661 18.8023C28.1638 19.1009 27.4611 19.2502 26.658 19.2502L25.0724 19.2502L25.0724 22.3803L22.21 22.3803L22.21 22.3803ZM34.5862 11.8369L34.5862 22.3803L31.7238 22.3803L31.7238 11.8369L34.5862 11.8369L34.5862 11.8369ZM25.0724 17.0261L26.0814 17.0261C26.5825 17.0261 26.9755 16.8948 27.2603 16.6322C27.5452 16.3697 27.6877 16.0136 27.6877 15.564C27.6877 15.111 27.5452 14.7574 27.2603 14.5035C26.9755 14.2495 26.5825 14.1225 26.0814 14.1225L25.0724 14.1225L25.0724 17.0261L25.0724 17.0261ZM14.673 18.2205L16.8559 18.2205L15.8056 14.7404L15.7233 14.7404L14.673 18.2205L14.673 18.2205Z" id="RESTAPI" fill="#D3D3D3" fill-rule="evenodd" stroke="none" />
</svg>