<?xml version="1.0" encoding="utf-8"?>
<svg width="24px" height="24px" viewBox="0 0 24 24" version="1.1" xmlns:xlink="http://www.w3.org/1999/xlink" xmlns="http://www.w3.org/2000/svg">
  <defs>
    <path d="M0 0L24 0L24 24L0 24L0 0Z" id="path_1" />
    <clipPath id="mask_1">
      <use xlink:href="#path_1" />
    </clipPath>
  </defs>
  <g id="Sass">
    <path d="M0 0L24 0L24 24L0 24L0 0Z" id="Background" fill="none" fill-rule="evenodd" stroke="none" />
    <g clip-path="url(#mask_1)">
      <path d="M12 2C6.486 2 2 6.486 2 12C2 17.514 6.486 22 12 22C17.514 22 22 17.514 22 12C22 6.486 17.514 2 12 2L12 2ZM14.3379 6.00586C15.5547 6.07158 16.5208 6.5668 16.7383 7.41992C17.0803 8.76392 15.9139 10.3703 14.4219 10.9473C13.0899 11.4623 11.9882 11.3814 11.5352 11.2324C11.0202 11.0634 10.7185 10.7232 10.6445 10.5312C10.6155 10.4562 10.5655 10.3311 10.6445 10.2871C10.6925 10.2601 10.7128 10.2662 10.8418 10.4082C10.9648 10.5432 11.4585 10.9077 12.3965 10.8027C14.8595 10.5267 16.343 8.61203 15.875 7.58203C15.547 6.86103 13.6483 6.53675 11.2773 7.71875C8.38234 9.16275 8.22422 10.3537 8.19922 10.8047C8.13122 12.0467 9.73261 12.699 10.5996 13.623L10.6602 13.6895C10.9222 13.5915 11.2843 13.5373 11.8613 13.5273C13.2623 13.5033 14.0545 14.4289 14.0215 15.2539C13.9955 15.9039 13.3991 16.1705 13.2871 16.1895C13.2061 16.2034 13.1643 16.2056 13.1523 16.1426C13.1443 16.0996 13.1736 16.0795 13.2676 16.0215C13.3626 15.9635 13.6443 15.769 13.6953 15.416C13.7463 15.064 13.4808 14.2225 12.1328 14.0645C11.6548 14.0085 11.279 14.0459 10.957 14.1309C11.191 14.6459 11.2353 15.6824 10.6973 16.4844C10.1403 17.3164 9.1028 17.822 8.0918 17.541C7.7658 17.45 7.27226 16.7759 7.69726 15.8359C8.10027 14.9449 9.82359 14.073 10.0586 13.957L10.0586 13.9531C9.26059 13.2661 7.32087 12.3418 7.04687 10.9258C6.96887 10.5248 7.15789 9.56298 8.33789 8.45898C9.32989 7.53098 10.7104 6.82019 11.9844 6.36719C12.7876 6.08181 13.6078 5.96643 14.3379 6.00586L14.3379 6.00586ZM10.3887 14.3789C10.3647 14.3919 10.3414 14.406 10.3184 14.418L10.3184 14.4199C10.3184 14.4199 9.51794 14.7977 8.96094 15.3867C8.44294 15.9337 8.29989 16.6211 8.58789 16.7891C8.85589 16.9441 9.47978 16.7604 9.92578 16.2734C10.0718 16.1134 10.1903 15.9409 10.2793 15.7559C10.2973 15.7189 10.3141 15.6806 10.3301 15.6426C10.3451 15.6046 10.3581 15.5663 10.3711 15.5273C10.4861 15.1783 10.5007 14.7929 10.3887 14.3789L10.3887 14.3789Z" id="Shape" fill="#D3D3D3" fill-rule="evenodd" stroke="none" />
    </g>
  </g>
</svg>