<?xml version="1.0" encoding="utf-8"?>
<svg width="25.043488px" height="24px" viewBox="0 0 25.043488 24" version="1.1" xmlns:xlink="http://www.w3.org/1999/xlink" xmlns="http://www.w3.org/2000/svg">
  <path d="M5.21634 0L19.8271 0C21.2676 0 22.4971 0.509247 23.5156 1.5278C24.5342 2.54636 25.0435 3.77585 25.0435 5.21634L25.0435 18.7837C25.0435 20.2241 24.5342 21.4536 23.5156 22.4721C22.4971 23.4907 21.2676 24 19.8271 24L5.21634 24C3.77588 24 2.54636 23.4907 1.52782 22.4721C0.509262 21.4536 -1.52588e-05 20.2241 0 18.7837L0 5.21634C-1.52588e-05 3.77585 0.509277 2.54636 1.52783 1.5278C2.54636 0.509247 3.77588 0 5.21634 0L5.21634 0ZM7.43108 17.4782L7.43108 18.6403L8.28186 18.6403L8.28186 17.473C9.39551 17.4038 10.2575 17.0822 10.868 16.5081C11.4784 15.934 11.7836 15.2233 11.7836 14.3759C11.7836 13.8987 11.6894 13.4888 11.5009 13.1465C11.3124 12.804 11.066 12.5179 10.7616 12.2878C10.4573 12.0579 10.127 11.8711 9.77075 11.7276C9.41452 11.584 9.06696 11.4708 8.72801 11.3878L8.28186 11.2737L8.28186 7.9483C8.7868 8.00366 9.20183 8.1636 9.52693 8.42819C9.85202 8.69278 10.0405 9.04294 10.0924 9.4787L11.6383 9.4787C11.6245 8.94263 11.4749 8.46191 11.1896 8.0365C10.9043 7.61111 10.5126 7.26785 10.0146 7.00674C9.51654 6.74561 8.93898 6.5943 8.28186 6.5528L8.28186 5.35962L7.43108 5.35962L7.43108 6.56317C6.80162 6.62201 6.24135 6.78452 5.75024 7.05084C5.25914 7.31717 4.87178 7.66733 4.5882 8.10135C4.3046 8.5354 4.1628 9.03256 4.1628 9.59283C4.1628 10.3329 4.41008 10.9278 4.90465 11.3774C5.3992 11.827 6.07362 12.1677 6.92787 12.3994L7.43108 12.5343L7.43108 16.062C6.90884 16.0066 6.46443 15.8398 6.09782 15.5613C5.73122 15.2829 5.52718 14.8878 5.48566 14.3759L3.87747 14.3759C3.92589 15.282 4.26309 16.0084 4.88907 16.5548C5.51506 17.1012 6.36238 17.409 7.43108 17.4782L7.43108 17.4782ZM7.43106 7.95886L7.43106 11.0456C7.17168 10.9695 6.91316 10.8692 6.6555 10.7447C6.39784 10.6202 6.18428 10.4576 6.01482 10.257C5.84535 10.0565 5.76062 9.80396 5.76062 9.49963C5.76062 9.10535 5.90933 8.76727 6.20676 8.48541C6.5042 8.20355 6.91231 8.02802 7.43106 7.95886L7.43106 7.95886ZM9.66437 15.5043C9.30988 15.8069 8.84903 15.9911 8.28183 16.0569L8.28183 12.7678C8.82483 12.9165 9.27962 13.1042 9.64622 13.3307C10.0128 13.5572 10.1961 13.9005 10.1961 14.3604C10.1961 14.8204 10.0189 15.2017 9.66437 15.5043L9.66437 15.5043ZM19.2643 18.6299L19.2643 17.3123L12.515 17.3123L12.515 18.6299L19.2643 18.6299L19.2643 18.6299Z" id="Shell" fill="#D3D3D3" fill-rule="evenodd" stroke="none" />
</svg>