<?xml version="1.0" encoding="utf-8"?>
<svg width="23.873047px" height="24px" viewBox="0 0 23.873047 24" version="1.1" xmlns:xlink="http://www.w3.org/1999/xlink" xmlns="http://www.w3.org/2000/svg">
  <path d="M15.1418 18.4643C15.1418 18.4643 15.6729 16.511 17.7468 15.5336C18.4298 14.7195 20.1483 12.3181 20.1483 12.3181L17.177 13.1728L20.5554 11.6261C20.5554 11.6261 22.8082 8.07076 23.0383 7.02657C23.0988 6.75185 23.1945 6.45451 23.2997 6.1272C23.5945 5.21037 23.965 4.05824 23.8524 2.50844C23.6996 0.405334 21.5571 -0.790222 19.8634 0.595367C18.1697 1.98096 15.3443 5.47713 14.0428 11.0969C14.4285 11.8424 14.7755 13.1728 14.7755 13.1728L13.9207 11.7075L13.5544 12.8472L14.287 14.801L13.3915 13.417L13.1066 14.7603C13.1066 14.7603 13.9555 17.26 13.9207 18.4643C13.8858 19.6686 14.0152 21.9479 14.6534 24C14.7028 23.1885 14.4905 21.2321 14.4905 21.2321L14.6126 17.7316L15.5488 13.3763C15.5488 13.3763 16.9815 8.7144 18.1132 7.02657C19.2448 5.33873 20.6775 3.60744 20.6775 3.60744L18.4795 7.88133L14.8976 18.3015L15.1418 18.4643L15.1418 18.4643ZM0.162811 2.7119C0.364258 2.9514 0.595444 2.94499 1.01122 3.04729C1.427 3.14957 4.25494 3.68591 5.08798 3.6888C5.21036 3.68922 5.51685 3.69368 5.95297 3.70001L5.95316 3.70003C8.48593 3.73682 15.389 3.83708 15.9845 3.58076C16.6824 3.2803 17.584 1.77573 17.584 1.77573C17.584 1.77573 10.4329 1.0528 8.05936 1.32799C5.68585 1.60318 2.00137 1.83768 1.48161 1.97923C0.961884 2.1208 0.387527 2.39917 0.284927 2.46768L0.280548 2.47061C0.180588 2.53732 0.121994 2.57643 0.162811 2.7119L0.162811 2.7119ZM8.22217 8.12561C3.64719 8.16013 0.0814209 6.82309 0.0814209 6.82309L0.0814209 3.36328C0.0814209 3.36328 2.0726 3.78366 3.86685 4.05524C5.66113 4.32683 12.6485 4.23996 16.1187 4.05524C15.0313 5.36653 14.2463 8.08492 14.2463 8.08492C14.2463 8.08492 12.7971 8.09111 8.22217 8.12561L8.22217 8.12561ZM0.0814056 11.7075C0.0814056 11.7075 4.11526 13.0697 7.89651 13.01C11.6778 12.9503 12.781 13.01 12.781 13.01L14.0428 8.614C14.0428 8.614 7.42725 8.76985 4.11108 8.36978C0.794922 7.96971 0 7.43359 0 7.43359L0.0814056 11.7075L0.0814056 11.7075ZM7.89651 17.7316C3.4686 17.7565 0.0814056 16.4291 0.0814056 16.4291L0 12.318C0 12.318 1.42999 13.0233 4.55881 13.3356C7.68765 13.6479 12.5775 13.6205 12.5775 13.6205L12.3739 15.208L13.1066 17.7316C13.1066 17.7316 12.3244 17.7067 7.89651 17.7316L7.89651 17.7316ZM16.2001 17.5688C16.2001 17.5688 16.9103 16.2751 17.9096 16.022L20.3112 12.7657L20.9624 12.318L20.9624 16.3884C20.9624 16.3884 19.5266 17.1442 18.4795 17.2838C17.4324 17.4235 16.2001 17.5688 16.2001 17.5688L16.2001 17.5688ZM0 20.8251C0 20.8251 4.76804 22.8261 13.5951 22.1277C13.5883 22.0965 13.5815 22.0649 13.5746 22.0328C13.3933 21.1934 13.1464 20.0504 13.188 18.3829C12.6714 18.3726 12.0761 18.3668 11.4293 18.3605C7.48453 18.3224 1.62386 18.2657 0 17.0397C0.0437317 18.8449 0 20.8251 0 20.8251L0 20.8251ZM15.0604 19.8482C14.8272 20.8732 15.0604 21.9648 15.0604 21.9648C15.0604 21.9648 15.2861 22.0319 16.7699 21.9648C18.2537 21.8978 20.9624 20.8658 20.9624 20.8658C20.9624 20.8658 20.9442 18.1028 20.9624 17.0397C19.6148 17.9417 15.9151 18.2201 15.9151 18.2201L15.6302 18.7899L15.3046 18.7899C15.3046 18.7899 15.2935 18.8232 15.0604 19.8482L15.0604 19.8482Z" id="SQLite" fill="#D3D3D3" fill-rule="evenodd" stroke="none" />
</svg>