<?xml version="1.0" encoding="utf-8"?>
<svg width="24.73706px" height="24px" viewBox="0 0 24.73706 24" version="1.1" xmlns:xlink="http://www.w3.org/1999/xlink" xmlns="http://www.w3.org/2000/svg">
  <path d="M18.3981 23.7864L12.2482 20.6487L6.47476 23.7864C6.47476 23.7864 5.49716 24.267 4.84314 23.7864C4.18915 23.3059 4.0495 22.7933 4.09009 22.5941C4.13071 22.3949 5.28244 15.4401 5.28244 15.4401L0.324844 10.4825C0.324844 10.4825 -0.0704651 10.0197 0.0110779 9.22745C0.0926208 8.43515 0.678162 8.15025 0.952393 8.09787C1.22662 8.04549 7.98087 6.96829 7.98087 6.96829L10.9303 0.881134C10.9303 0.881134 11.3436 -0.0552826 12.3109 0.00257874C13.2782 0.0604324 13.4427 0.409813 13.6915 0.881134C13.9404 1.35246 16.641 6.96829 16.641 6.96829L23.7322 8.09787C23.7322 8.09787 24.77 8.55711 24.7362 9.47845C24.7025 10.3998 24.1087 10.7963 24.1087 10.7963L19.4649 15.3146L20.5317 22.1548C20.5317 22.1548 20.6857 23.2808 20.0297 23.6609C19.3736 24.0411 18.3981 23.7864 18.3981 23.7864Z" id="Star" fill="#D3D3D3" fill-rule="evenodd" stroke="none" />
</svg>