<?xml version="1.0" encoding="utf-8"?>
<svg width="34.814636px" height="24px" viewBox="0 0 34.814636 24" version="1.1" xmlns:xlink="http://www.w3.org/1999/xlink" xmlns="http://www.w3.org/2000/svg">
  <path d="M2.9267 0L31.888 0C32.6961 0 33.386 0.285734 33.9574 0.857204C34.5289 1.42867 34.8146 2.1185 34.8146 2.92668L34.8146 3.51234C34.8146 4.32052 34.5289 5.01035 33.9574 5.58182C33.386 6.15329 32.6961 6.43902 31.888 6.43902L2.9267 6.43902C2.1185 6.43902 1.42868 6.15329 0.857208 5.58182C0.285736 5.01035 0 4.32052 0 3.51234L0 2.92668C0 2.1185 0.285736 1.42867 0.857208 0.857204C1.42868 0.285734 2.1185 0 2.9267 0L2.9267 0ZM1.91705 3.21954C1.91705 4.43187 2.89984 5.41466 4.11218 5.41466C5.32449 5.41466 6.30731 4.43187 6.30731 3.21954C6.30731 2.0072 5.32449 1.02441 4.11218 1.02441C2.89984 1.02441 1.91705 2.0072 1.91705 3.21954L1.91705 3.21954ZM2.9267 8.78052L31.888 8.78052C32.6961 8.78052 33.386 9.06625 33.9574 9.63772C34.5289 10.2092 34.8146 10.899 34.8146 11.7072L34.8146 12.2929C34.8146 13.101 34.5289 13.7909 33.9574 14.3623C33.386 14.9338 32.6961 15.2195 31.888 15.2195L2.9267 15.2195C2.1185 15.2195 1.42868 14.9338 0.857208 14.3623C0.285736 13.7909 0 13.101 0 12.2929L0 11.7072C0 10.899 0.285736 10.2092 0.857208 9.63772C1.42868 9.06625 2.1185 8.78052 2.9267 8.78052L2.9267 8.78052ZM1.91705 12C1.91705 13.2123 2.89984 14.1951 4.11218 14.1951C5.32449 14.1951 6.30731 13.2123 6.30731 12C6.30731 10.7877 5.32449 9.80487 4.11218 9.80487C2.89984 9.80487 1.91705 10.7877 1.91705 12L1.91705 12ZM2.9267 17.561L31.888 17.561C32.6961 17.561 33.386 17.8467 33.9574 18.4182C34.5289 18.9896 34.8146 19.6795 34.8146 20.4877L34.8146 21.0733C34.8146 21.8815 34.5289 22.5713 33.9574 23.1428C33.386 23.7143 32.6961 24 31.888 24L2.9267 24C2.1185 24 1.42868 23.7143 0.857208 23.1428C0.285736 22.5713 0 21.8815 0 21.0733L0 20.4877C0 19.6795 0.285736 18.9896 0.857208 18.4182C1.42868 17.8467 2.1185 17.561 2.9267 17.561L2.9267 17.561ZM1.91705 20.7805C1.91705 21.9928 2.89984 22.9756 4.11218 22.9756C5.32449 22.9756 6.30731 21.9928 6.30731 20.7805C6.30731 19.5682 5.32449 18.5854 4.11218 18.5854C2.89984 18.5854 1.91705 19.5682 1.91705 20.7805L1.91705 20.7805Z" id="Storage" fill="#D3D3D3" fill-rule="evenodd" stroke="none" />
</svg>