<?xml version="1.0" encoding="utf-8"?>
<svg width="24px" height="24px" viewBox="0 0 24 24" version="1.1" xmlns:xlink="http://www.w3.org/1999/xlink" xmlns="http://www.w3.org/2000/svg">
  <defs>
    <path d="M0 0L24 0L24 24L0 24L0 0L0 0Z" id="path_1" />
    <clipPath id="mask_1">
      <use xlink:href="#path_1" />
    </clipPath>
  </defs>
  <g id="Svelte">
    <path d="M0 0L24 0L24 24L0 24L0 0L0 0Z" id="Vector-shape" fill="#FFFFFF" fill-opacity="0" fill-rule="evenodd" stroke="none" />
    <g clip-path="url(#mask_1)">
      <path d="M10.967 2.1215C13.8 0.323495 18.176 1.499 20.1555 4.34999C21.1175 5.67549 21.0635 7.00599 20.755 8.641C20.628 9.40349 20.3375 10.13 19.9015 10.7835C20.537 11.964 20.7365 13.326 20.5005 14.6515C20.228 16.2315 19.284 17.6295 17.922 18.483L12.9655 21.845C10.133 23.6425 6.17351 22.623 4.17601 19.772C3.23201 18.446 2.85051 16.7755 3.14101 15.1595C3.26801 14.3965 4.09001 13.4065 4.52601 12.753C4.45338 12.6181 4.3795 12.4844 4.30596 12.3512C3.73595 11.319 3.18598 10.323 3.39501 9.149C3.66751 7.56899 4.61151 6.171 5.97351 5.31749L10.967 2.1215ZM6.238 18.464C7.182 19.826 8.871 20.4615 10.487 20.044C10.85 19.935 11.195 19.79 11.5035 19.59L16.851 16.248C17.668 15.7395 18.249 14.8865 18.4125 13.942C18.576 12.9615 18.1925 11.632 17.6115 10.833C16.667 9.47102 14.79 9.33002 13.174 9.74751C12.8105 9.85651 12.4655 10.002 12.157 10.2015L10.2505 11.418C10.16 11.4725 10.051 11.5085 9.942 11.545C9.4515 11.672 8.943 11.4905 8.6525 11.073C8.489 10.8365 8.4165 10.528 8.471 10.2375C8.5255 9.94702 8.689 9.71102 8.943 9.54752L13.8735 6.40802C13.964 6.35352 14.073 6.31752 14.182 6.28102C14.672 6.15402 15.2255 6.29752 15.516 6.71502C15.661 6.93302 15.7335 7.20552 15.7155 7.45952L15.6975 7.64102L15.879 7.69552C16.587 7.91352 17.241 8.24002 17.84 8.67602L17.8925 8.71352C17.992 8.78452 18.132 8.73802 18.1685 8.62102L18.1855 8.56752C18.24 8.40402 18.276 8.25902 18.3125 8.09552C18.476 7.11452 18.258 6.11602 17.677 5.31702C16.733 3.95502 15.044 3.31952 13.428 3.73702C13.0645 3.84602 12.7195 3.99152 12.411 4.19102L7.451 7.01152C6.634 7.52002 6.053 8.37302 5.8895 9.31752C5.708 10.298 5.9105 11.654 6.4735 12.453C7.4175 13.815 9.1065 14.4505 10.7225 14.033C11.086 13.942 11.431 13.7965 11.7395 13.597L13.646 12.3805C13.737 12.326 14.0755 12.206 14.1845 12.1695C14.675 12.0425 15.1835 12.224 15.474 12.6415C15.6375 12.878 15.71 13.1865 15.6555 13.477C15.601 13.7675 15.5715 14.207 15.3175 14.3705L10.2225 17.4615C10.132 17.516 10.023 17.552 9.914 17.5885C9.4235 17.7155 8.671 17.483 8.3805 17.0655C8.2355 16.8475 8.163 16.575 8.181 16.321L8.199 16.1395L8.0175 16.085C7.3095 15.867 6.6925 15.362 6.0935 14.926L5.8395 14.7445L5.7115 15.2135C5.675 15.377 5.639 15.522 5.6025 15.6855C5.439 16.6665 5.657 17.665 6.238 18.464Z" id="Shape-Difference" fill="#DECBC6" fill-rule="evenodd" stroke="none" />
      <path d="M9.82 22.973C9.28801 22.973 8.7455 22.908 8.203 22.7765C6.4905 22.361 4.993 21.341 3.9865 19.9045C3.00551 18.5275 2.614 16.7825 2.913 15.1185C3.021 14.47 3.571 13.7 4.0135 13.0815C4.0995 12.9615 4.18151 12.8465 4.25551 12.7395C4.205 12.647 4.15401 12.5545 4.10351 12.463C3.5335 11.4305 2.94401 10.363 3.16751 9.10852C3.45051 7.46652 4.42901 6.01252 5.85101 5.12152L10.843 1.92652C13.717 0.10252 18.245 1.19402 20.3445 4.21602C21.323 5.56502 21.3145 6.92502 20.983 8.68102C20.8575 9.43152 20.584 10.142 20.1695 10.796C20.7685 11.9745 20.9675 13.352 20.729 14.692C20.446 16.3325 19.4695 17.7855 18.049 18.6765L13.096 22.0365C13.094 22.038 13.092 22.039 13.09 22.0405C12.118 22.657 10.9935 22.973 9.82 22.973L9.82 22.973ZM14.109 1.49304C13.0255 1.49304 11.9745 1.75654 11.092 2.31654L6.09901 5.51204C4.78651 6.33454 3.88451 7.67404 3.62351 9.18804C3.42851 10.2825 3.95351 11.233 4.50851 12.239C4.58251 12.373 4.65701 12.5075 4.73001 12.6435C4.77051 12.719 4.76601 12.8105 4.71901 12.8815C4.62301 13.0255 4.51001 13.1835 4.39051 13.351C3.97601 13.9305 3.46051 14.652 3.36951 15.1975C3.09151 16.7425 3.45451 18.36 4.36501 19.6375C6.34151 22.4585 10.1415 23.3605 12.839 21.651L17.7925 18.291C17.795 18.2895 17.797 18.288 17.7995 18.2865C19.1105 17.465 20.012 16.1255 20.273 14.612C20.502 13.327 20.2975 12.0065 19.698 10.893C19.6575 10.8175 19.662 10.726 19.709 10.655C20.13 10.0235 20.405 9.33304 20.527 8.60254C20.5275 8.60104 20.5275 8.59904 20.528 8.59754C20.845 6.91804 20.8555 5.70704 19.9685 4.48604C19.9675 4.48454 19.9665 4.48354 19.9655 4.48204C18.6475 2.58304 16.312 1.49304 14.109 1.49304L14.109 1.49304Z" id="Shape" fill="none" fill-rule="evenodd" stroke="none" />
      <path d="M9.4905 20.403C8.995 20.403 8.502 20.3145 8.03 20.1385C7.2255 19.8385 6.5405 19.306 6.0495 18.5985C5.4375 17.756 5.1975 16.708 5.3745 15.648C5.375 15.644 5.376 15.64 5.377 15.636C5.3955 15.5535 5.4135 15.475 5.432 15.397C5.45 15.321 5.468 15.2445 5.486 15.1635C5.487 15.16 5.4875 15.1565 5.4885 15.153L5.6165 14.684C5.6365 14.611 5.691 14.5525 5.762 14.527C5.8335 14.5015 5.9125 14.5125 5.974 14.5565L6.228 14.738C6.313 14.7995 6.396 14.8615 6.4805 14.9235C6.988 15.2995 7.513 15.688 8.0855 15.864L8.2655 15.918C8.3715 15.95 8.4405 16.0525 8.4295 16.1625L8.4115 16.3405C8.398 16.542 8.458 16.7645 8.573 16.937C8.7925 17.252 9.435 17.469 9.8485 17.366C9.9455 17.3335 10.0365 17.303 10.1035 17.2625L12.5025 15.5835L15.1945 14.1745C15.321 14.0905 15.3685 13.7975 15.403 13.5835C15.4115 13.531 15.4195 13.481 15.4285 13.4345C15.4705 13.2115 15.4165 12.9645 15.284 12.7735C15.053 12.4415 14.648 12.292 14.2505 12.392C14.0785 12.4495 13.823 12.5465 13.768 12.578L11.8645 13.7925C11.541 14.002 11.1755 14.1585 10.7795 14.2575C9.94351 14.4735 9.07351 14.4285 8.26601 14.127C7.46051 13.8265 6.96501 13.2065 6.47401 12.498C5.83301 11.588 5.48601 10.2305 5.66301 9.27497C5.83551 8.27747 6.45901 7.35647 7.33001 6.81448C7.33251 6.81297 7.33501 6.81148 7.33801 6.80998L12.2925 3.99248C12.5985 3.79548 12.949 3.63898 13.363 3.51498C13.366 3.51398 13.3685 3.51348 13.3715 3.51248C14.209 3.29598 15.079 3.34098 15.887 3.64248C16.6915 3.94248 17.3765 4.47498 17.8675 5.18248C18.4795 6.02497 18.7195 7.07298 18.5425 8.13297C18.542 8.13697 18.541 8.14097 18.54 8.14497C18.507 8.29247 18.468 8.45498 18.4065 8.63997L18.391 8.68948C18.352 8.81498 18.254 8.91498 18.1295 8.95648C18.005 8.99848 17.8665 8.97748 17.7595 8.90147L17.707 8.86398C17.1295 8.44398 16.493 8.12547 15.8125 7.91647L15.6325 7.86247C15.5265 7.83047 15.4575 7.72797 15.4685 7.61797L15.4865 7.43997C15.5005 7.23547 15.4415 7.01847 15.325 6.84347C15.109 6.53297 14.676 6.39497 14.249 6.50297C14.153 6.53497 14.063 6.56547 13.9965 6.60497L11.37 8.12597L9.06851 9.74248C8.86651 9.87247 8.74201 10.0535 8.69951 10.28C8.65751 10.503 8.71151 10.75 8.84401 10.941C9.07501 11.273 9.48051 11.423 9.87751 11.3225C9.97301 11.2905 10.063 11.26 10.13 11.2205L11.9815 10.182C12.2875 9.98398 12.6395 9.82648 13.0565 9.70148C13.0595 9.70047 13.0535 9.70197 13.0565 9.70148C13.9635 9.46698 14.8615 9.42048 15.6375 9.57148C16.5495 9.74848 17.2795 10.1995 17.749 10.8745C18.403 11.775 18.8085 12.978 18.642 13.9795C18.4685 14.9815 17.845 15.902 16.9745 16.444L11.6275 19.7855C11.3235 19.9825 10.9715 20.14 10.5545 20.265C10.5515 20.266 10.549 20.2665 10.546 20.2675C10.197 20.358 9.843 20.403 9.4905 20.403L9.4905 20.403ZM5.83 15.73C5.6755 16.6655 5.887 17.588 6.4255 18.328C6.4265 18.3295 6.4275 18.331 6.4285 18.332C7.3145 19.61 8.92 20.2075 10.425 19.8205C10.7975 19.7085 11.1095 19.569 11.3785 19.395L16.729 16.0515C17.49 15.578 18.0345 14.7745 18.1855 13.902C18.3315 13.027 17.9525 11.941 17.373 11.1445C17.372 11.143 17.371 11.1415 17.37 11.14C16.24 9.50998 13.887 9.96498 13.185 10.146C12.8125 10.258 12.501 10.397 12.2315 10.5715L10.376 11.613C10.374 11.614 10.3725 11.6155 10.3705 11.6165C10.258 11.684 10.135 11.725 10.016 11.7645C10.011 11.766 10.006 11.7675 10.001 11.769C9.412 11.9215 8.8085 11.7005 8.4635 11.205C8.259 10.91 8.1795 10.542 8.2445 10.195C8.3105 9.84348 8.509 9.55198 8.819 9.35298L11.1255 7.73298L13.7505 6.21298C13.752 6.21198 13.754 6.21098 13.7555 6.20998C13.868 6.14248 13.991 6.10148 14.11 6.06198C14.115 6.06048 14.1205 6.05898 14.1255 6.05748C14.742 5.89748 15.3775 6.10898 15.7075 6.58348C15.883 6.84648 15.9695 7.16998 15.948 7.47498C16.6755 7.69898 17.3555 8.03848 17.9705 8.48448C18.0205 8.33248 18.053 8.20098 18.0865 8.05148C18.241 7.11598 18.0295 6.19348 17.491 5.45348C17.49 5.45198 17.489 5.45048 17.488 5.44898C16.602 4.17098 14.9965 3.57348 13.491 3.96048C13.1185 4.07248 12.8065 4.21148 12.5375 4.38598C12.534 4.38848 12.53 4.39048 12.526 4.39298L7.57 7.21098C6.8115 7.68448 6.2685 8.48698 6.118 9.35798C5.935 10.3475 6.359 11.5335 6.853 12.234C7.741 13.5145 9.1585 14.199 10.665 13.81C11.0135 13.723 11.332 13.5865 11.614 13.404L13.522 12.1865C13.524 12.1855 13.5255 12.184 13.5275 12.183C13.664 12.101 14.1075 11.9525 14.112 11.951C14.117 11.9495 14.122 11.948 14.127 11.9465C14.716 11.794 15.3195 12.015 15.6645 12.5105C15.869 12.8055 15.9485 13.1735 15.8835 13.5205C15.8755 13.5635 15.868 13.61 15.86 13.658C15.8085 13.976 15.745 14.3715 15.443 14.566C15.4415 14.567 15.4395 14.568 15.438 14.569L12.747 16.049L10.3425 17.66C10.229 17.728 10.1065 17.769 9.9875 17.8085C9.9825 17.81 9.97701 17.812 9.97151 17.813C9.37101 17.9685 8.52201 17.6755 8.19001 17.1985C8.01451 16.9355 7.92801 16.612 7.94951 16.307C7.30001 16.107 6.74301 15.6945 6.20451 15.296C6.12751 15.239 6.05101 15.1825 5.97451 15.1265L5.93551 15.2695C5.91751 15.35 5.89951 15.4265 5.88151 15.503C5.8645 15.5775 5.8475 15.6515 5.83 15.73L5.83 15.73Z" id="Shape" fill="none" fill-rule="evenodd" stroke="none" />
    </g>
  </g>
</svg>