<?xml version="1.0" encoding="utf-8"?>
<svg width="39.45404px" height="24px" viewBox="0 0 39.45404 24" version="1.1" xmlns:xlink="http://www.w3.org/1999/xlink" xmlns="http://www.w3.org/2000/svg">
  <path d="M36.6559 9.56613C38.2406 7.92289 39.454 4.10974 39.454 4.10974C39.454 4.10974 37.3073 7.28643 34.1376 7.18771C30.9679 7.089 28.6812 4.10974 28.6812 4.10974C28.6812 4.10974 25.8349 0.675211 22.3853 0.192314C18.9356 -0.290585 16.1728 0.207838 14.9702 0.891853C13.7675 1.57587 11.1782 2.65441 9.79355 7.60742C11.482 5.82057 12.5877 4.77977 14.1307 4.80926C15.6737 4.83876 16.5091 4.80926 16.5091 4.80926C16.5091 4.80926 17.604 4.78002 20.1467 7.18771C22.6895 9.59541 25.0995 11.3417 27.1421 11.6647C29.1847 11.9878 32.2331 11.9145 32.8784 11.6647C33.5236 11.415 35.0711 11.2094 36.6559 9.56613L36.6559 9.56613ZM26.8623 21.6857C28.4471 20.0425 29.6605 16.2293 29.6605 16.2293C29.6605 16.2293 27.5137 19.406 24.3441 19.3073C21.1743 19.2086 18.8876 16.2293 18.8876 16.2293C18.8876 16.2293 16.0414 12.7948 12.5917 12.3119C9.14209 11.829 6.37924 12.3274 5.17661 13.0114C3.97395 13.6954 1.38467 14.774 0 19.727C1.68848 17.9401 2.79413 16.8993 4.33716 16.9288C5.88017 16.9583 6.71558 16.9288 6.71558 16.9288C6.71558 16.9288 7.81046 16.8996 10.3532 19.3073C12.8959 21.715 15.306 23.4613 17.3486 23.7843C19.3911 24.1074 22.4395 24.0341 23.0848 23.7843C23.7301 23.5346 25.2775 23.3289 26.8623 21.6857L26.8623 21.6857Z" id="Tailwind" fill="#D3D3D3" fill-rule="evenodd" stroke="none" />
</svg>