<?xml version="1.0" encoding="utf-8"?>
<svg width="24px" height="24px" viewBox="0 0 24 24" version="1.1" xmlns:xlink="http://www.w3.org/1999/xlink" xmlns="http://www.w3.org/2000/svg">
  <defs>
    <path d="M0 0L24 0L24 24L0 24L0 0Z" id="path_1" />
    <clipPath id="mask_1">
      <use xlink:href="#path_1" />
    </clipPath>
  </defs>
  <g id="Telegram-App-icon">
    <path d="M0 0L24 0L24 24L0 24L0 0Z" id="Background" fill="#FFFFFF" fill-opacity="0" fill-rule="evenodd" stroke="none" />
    <g clip-path="url(#mask_1)">
      <path d="M2.91499 11.808C9.19899 9.04349 17.331 5.67299 18.4535 5.20649C21.398 3.98549 22.3015 4.21949 21.851 6.92349C21.5275 8.86699 20.594 15.3015 19.85 19.3065C19.4085 21.6815 18.418 21.963 16.8605 20.9355C16.1115 20.441 12.331 17.941 11.5105 17.354C10.7615 16.819 9.72849 16.1755 11.024 14.908C11.485 14.4565 14.507 11.571 16.8615 9.32499C17.17 9.02999 16.7825 8.54549 16.4265 8.78199C13.253 10.8865 8.85299 13.8075 8.29299 14.188C7.44699 14.7625 6.63449 15.026 5.17599 14.607C4.07399 14.2905 2.99749 13.913 2.57849 13.769C0.964994 13.215 1.34799 12.4975 2.91499 11.808L2.91499 11.808Z" id="Shape" fill="#D3D3D3" stroke="none" />
    </g>
  </g>
</svg>