<?xml version="1.0" encoding="utf-8"?>
<svg width="42.918945px" height="24px" viewBox="0 0 42.918945 24" version="1.1" xmlns:xlink="http://www.w3.org/1999/xlink" xmlns="http://www.w3.org/2000/svg">
  <path d="M11.243 0L18.1622 0L18.1622 0.000221252C18.1622 0.597214 18.3733 1.10679 18.7954 1.52894C19.2176 1.95109 19.7271 2.16216 20.3241 2.16216L22.2057 2.16216C22.8027 2.16216 23.3122 1.95109 23.7344 1.52894C24.1565 1.10679 24.3676 0.597214 24.3676 0.000221252L24.3676 0L31.784 0C32.8587 0 33.776 0.379944 34.5359 1.13984C35.2957 1.89974 35.6757 2.81702 35.6757 3.89168L35.6757 20.1083C35.6757 21.183 35.2957 22.1003 34.5359 22.8602C33.776 23.6201 32.8587 24 31.784 24L11.243 24C10.1684 24 9.2511 23.6201 8.49121 22.8602C7.73132 22.1003 7.35138 21.183 7.35138 20.1083L7.35138 3.89168C7.35138 2.81702 7.73132 1.89974 8.49121 1.13984C9.2511 0.379944 10.1684 0 11.243 0L11.243 0ZM5.83783 7.35133L5.83783 3.67566C5.83783 3.67566 4.51776 4.11185 3.45944 4.54053C2.40112 4.96919 0.108093 4.86485 0.108093 4.86485L0.108093 6.05404C2.3082 6.16299 5.83783 7.35133 5.83783 7.35133L5.83783 7.35133ZM37.1892 3.67566L37.1892 7.35133C37.1892 7.35133 40.7188 6.16299 42.9189 6.05404L42.9189 4.86485C42.9189 4.86485 40.6259 4.96919 39.5676 4.54053C38.5092 4.11185 37.1892 3.67566 37.1892 3.67566L37.1892 3.67566ZM12.973 7.45944C12.973 5.60854 14.4734 4.10809 16.3243 4.10809C18.1752 4.10809 19.6757 5.60854 19.6757 7.45944C19.6757 9.31035 18.1752 10.8108 16.3243 10.8108C14.4734 10.8108 12.973 9.31035 12.973 7.45944L12.973 7.45944ZM26.9189 4.10809C25.068 4.10809 23.5676 5.60854 23.5676 7.45944C23.5676 9.31035 25.068 10.8108 26.9189 10.8108C28.7698 10.8108 30.2703 9.31035 30.2703 7.45944C30.2703 5.60854 28.7698 4.10809 26.9189 4.10809L26.9189 4.10809ZM16.3243 9.08107C15.4584 9.08107 14.751 8.4024 14.7051 7.54798C14.8853 7.69608 15.109 7.78378 15.3513 7.78378C15.9484 7.78378 16.4324 7.25136 16.4324 6.59459C16.4324 6.30967 16.3413 6.04816 16.1895 5.84336C16.2339 5.8397 16.2789 5.83783 16.3243 5.83783C17.2199 5.83783 17.946 6.56386 17.946 7.45945C17.946 8.35505 17.2199 9.08107 16.3243 9.08107L16.3243 9.08107ZM25.2973 7.54798C25.3433 8.4024 26.0507 9.08107 26.9165 9.08107C27.8121 9.08107 28.5382 8.35505 28.5382 7.45945C28.5382 6.56386 27.8121 5.83783 26.9165 5.83783C26.8711 5.83783 26.8261 5.8397 26.7817 5.84336C26.9336 6.04816 27.0247 6.30967 27.0247 6.59459C27.0247 7.25136 26.5406 7.78378 25.9436 7.78378C25.7013 7.78378 25.4776 7.69608 25.2973 7.54798L25.2973 7.54798ZM5.72974 10.1622L5.72974 13.8378C5.72974 13.8378 2.2001 12.6495 0 12.5405L0 11.3514C0 11.3514 2.29303 11.4557 3.35135 11.027C4.40967 10.5984 5.72974 10.1622 5.72974 10.1622L5.72974 10.1622ZM37.1892 13.8378L37.1892 10.1622C37.1892 10.1622 38.5092 10.5984 39.5676 11.027C40.6259 11.4557 42.9189 11.3514 42.9189 11.3514L42.9189 12.5405C40.7188 12.6495 37.1892 13.8378 37.1892 13.8378L37.1892 13.8378ZM21.4054 11.2432C20.3307 11.2432 19.4595 11.7272 19.4595 12.3243C19.4595 12.9214 20.3307 13.4054 21.4054 13.4054C22.4801 13.4054 23.3514 12.9214 23.3514 12.3243C23.3514 11.7272 22.4801 11.2432 21.4054 11.2432L21.4054 11.2432ZM19.2433 12.973C19.2433 12.973 19.682 13.8362 21.4055 13.8378C23.1289 13.8395 23.5676 13.0811 23.5676 13.0811C23.5676 13.0811 25.2271 13.1853 25.0811 14.3784C24.9351 15.5714 22.0556 15.7333 21.4055 15.6757C20.7553 15.618 18.0425 15.4639 17.946 14.3784C17.8602 13.4132 18.4163 13.1953 18.6375 13.1086C18.6651 13.0978 18.6875 13.089 18.7027 13.0811C18.8405 13.0096 19.2433 12.973 19.2433 12.973L19.2433 12.973ZM23.3513 15.8919L21.8378 16.1081L21.8378 18.3784C21.8378 18.3784 22.2164 18.7361 22.7027 18.7027C23.1889 18.6694 23.5923 18.5171 23.5676 18.2703C23.5428 18.0235 23.5676 15.7838 23.5676 15.7838L23.3513 15.8919L23.3513 15.8919ZM21.1892 16.2162L19.6757 16L19.4594 15.8919C19.4594 15.8919 19.4843 18.1316 19.4594 18.3784C19.4347 18.6252 19.8381 18.7775 20.3243 18.8108C20.8106 18.8442 21.1892 18.4865 21.1892 18.4865L21.1892 16.2162L21.1892 16.2162ZM5.72974 20.3243L5.72974 16.6486C5.72974 16.6486 4.40967 17.0848 3.35135 17.5135C2.29303 17.9422 0 17.8378 0 17.8378L0 19.027C2.2001 19.136 5.72974 20.3243 5.72974 20.3243L5.72974 20.3243ZM37.1892 20.3243C37.1892 20.3243 40.7188 19.136 42.9189 19.027L42.9189 17.8378C42.9189 17.8378 40.6259 17.9422 39.5676 17.5135C38.5092 17.0848 37.1892 16.6486 37.1892 16.6486L37.1892 20.3243L37.1892 20.3243Z" id="TinyGo" fill="#D3D3D3" fill-rule="evenodd" stroke="none" />
</svg>