<?xml version="1.0" encoding="utf-8"?>
<svg width="24px" height="24px" viewBox="0 0 24 24" version="1.1" xmlns:xlink="http://www.w3.org/1999/xlink" xmlns="http://www.w3.org/2000/svg">
  <defs>
    <path d="M0 0L24 0L24 24L0 24L0 0Z" id="path_1" />
    <clipPath id="mask_1">
      <use xlink:href="#path_1" />
    </clipPath>
  </defs>
  <g id="VSCode">
    <path d="M0 0L24 0L24 24L0 24L0 0Z" id="Background" fill="#FFFFFF" fill-opacity="0" fill-rule="evenodd" stroke="none" />
    <g clip-path="url(#mask_1)">
      <path d="M4.44746 12.6825L2.32896 14.6195C1.87896 15.0345 1.90446 15.753 2.38246 16.1355C2.38246 16.1355 3.04446 16.7515 3.28396 16.9225C3.65196 17.185 4.13546 17.215 4.49996 16.948L7.02846 15.0365L4.44746 12.6825L4.44746 12.6825Z" id="Shape" fill="#D3D3D3" stroke="none" />
      <path d="M14.672 3.34248C12.6835 5.15698 7.84248 9.57848 7.84248 9.57848L5.19398 12L5.18848 12.005L7.83998 14.4235L7.84248 14.422L11.0465 12L15.5 8.63398L15.508 3.71398C15.5085 3.27898 14.9935 3.04948 14.672 3.34248L14.672 3.34248Z" id="Shape" fill="#D3D3D3" stroke="none" />
      <path d="M14.663 20.6446C14.984 20.9371 15.5 20.7096 15.5 20.2751L15.5 15.3666L11.0465 12.0001L11.0465 12.0001L7.84296 9.57858L7.84296 9.57858L4.49996 7.05208C4.13546 6.78508 3.65196 6.81508 3.28396 7.07758C3.04446 7.24858 2.38246 7.86458 2.38246 7.86458C1.90446 8.24708 1.87896 8.96558 2.32896 9.38058L5.19396 12.0001L5.19396 12.0001L7.84246 14.4216L7.84246 14.4216L14.663 20.6446L14.663 20.6446Z" id="Shape" fill="#D3D3D3" stroke="none" />
      <path d="M21.01 4.14499L16.6 2.07499L16.6005 2.07949C16.3615 1.97949 16.067 2.01499 15.8625 2.24649L15.836 2.27049C15.846 2.27899 15.8565 2.28599 15.8655 2.29549C16.3645 2.06199 17 2.40799 17 3.02049L17 7.49999L17 16.5L17 20.9735C17 21.603 16.328 21.9525 15.8225 21.676C15.814 21.682 15.8055 21.688 15.797 21.6935L15.863 21.7535C16.0675 21.985 16.362 22.02 16.601 21.9205L16.6 21.925L21.01 19.855C21.605 19.645 22 19.08 22 18.445L22 5.55499C22 4.91999 21.605 4.35499 21.01 4.14499L21.01 4.14499Z" id="Shape" fill="#D3D3D3" stroke="none" />
    </g>
  </g>
</svg>