<?xml version="1.0" encoding="utf-8"?>
<svg width="24px" height="24px" viewBox="0 0 24 24" version="1.1" xmlns:xlink="http://www.w3.org/1999/xlink" xmlns="http://www.w3.org/2000/svg">
  <defs>
    <path d="M0 0L24 0L24 24L0 24L0 0Z" id="path_1" />
    <clipPath id="mask_1">
      <use xlink:href="#path_1" />
    </clipPath>
  </defs>
  <g id="Wails">
    <path d="M0 0L24 0L24 24L0 24L0 0Z" id="Background" fill="none" fill-rule="evenodd" stroke="none" />
    <g clip-path="url(#mask_1)">
      <path d="M5.30247 1.43998C5.24623 1.4381 5.1881 1.4456 5.12997 1.46435C4.9031 1.53935 4.76435 1.76998 4.80748 2.00623C4.83185 2.1431 5.40373 5.05123 8.9606 6.80248C8.49372 6.94873 8.05497 7.12498 7.64435 7.32748C7.2806 7.2431 6.80997 7.19998 6.23997 7.19998C4.17747 7.19998 2.60998 8.7131 2.54435 8.77685C2.3756 8.94185 2.3531 9.20435 2.48623 9.3956C2.6231 9.58873 2.87623 9.65435 3.08998 9.5531C3.09748 9.54748 3.99935 9.11998 5.27997 9.11998L5.28373 9.11998C5.01748 9.42185 4.77373 9.74435 4.55998 10.0875C2.57998 10.2169 1.6631 11.9306 1.45123 12.8531C1.4006 13.08 1.51873 13.3106 1.73248 13.4025C1.94623 13.4925 2.19373 13.4156 2.32123 13.2225C2.6156 12.7706 3.12748 12.5869 3.5531 12.5156C3.44623 12.9712 3.39748 13.35 3.37685 13.5975C1.4381 14.5725 1.4381 17.1694 1.43998 17.2856C1.44185 17.5237 1.61998 17.7244 1.85623 17.7544C2.09248 17.7844 2.31935 17.6381 2.3831 17.4075C2.64748 16.4512 3.18748 16.0687 3.63748 15.9187C3.73123 16.245 3.8456 16.5694 3.98623 16.8975C2.82935 18.2025 2.8781 20.0906 2.87998 20.175C2.88748 20.4056 3.05623 20.5969 3.28123 20.6325C3.50997 20.67 3.72935 20.5425 3.80998 20.3269C4.1981 19.2844 4.7006 18.9187 5.00247 18.7894L5.00247 18.7912C5.6681 19.8937 6.23997 20.8444 6.23997 22.08C6.23997 22.3444 6.4556 22.56 6.71997 22.56L17.28 22.56C17.5443 22.56 17.76 22.3444 17.76 22.08C17.76 18.5419 15.2062 17.3887 13.1531 16.4625C11.2481 15.6037 10.08 14.9962 10.08 13.4212C10.08 13.4062 10.2506 11.5069 12 11.04C12.5137 12.3544 13.65 15.84 16.1793 15.84L16.32 15.84C16.8581 15.84 18.0206 15.5194 18.24 15.36C17.0193 15.36 16.32 14.88 16.32 14.88C16.32 14.88 17.1806 14.64 17.28 14.4C17.2481 14.4019 17.2181 14.4019 17.1862 14.4019C16.3612 14.4019 15.36 13.92 15.36 13.92C15.36 13.92 15.8793 13.8806 16.32 13.44C14.8725 13.3894 14.2537 11.985 14.0156 11.0887C14.9737 11.9606 17.07 13.7644 18.72 14.4C20.9006 15.24 21.0806 15.42 21.12 15.84C21.2006 15.0394 20.46 14.64 20.16 14.4C21.2193 14.4 22.08 14.88 22.08 14.88C21.54 14.2594 21.2775 14.0944 19.68 13.92C17.6681 13.7006 15.3206 11.5106 14.3831 10.56L14.4 10.56C15.7312 10.74 16.59 12 16.59 12C16.59 12 16.8 11.1431 16.8 10.74C16.8 10.74 17.4862 11.0962 18.0168 12.48C18.3 11.8781 18.24 11.04 18.24 11.04C18.24 11.04 19.2937 12.09 19.4568 12.96C19.7681 12.0675 19.68 11.52 19.68 11.52C20.5912 11.8181 20.8968 13.44 20.8968 13.44C20.8968 13.44 21.12 13.2037 21.12 12.48C21.8437 13.1025 21.6 13.92 21.6 13.92C21.6 13.92 22.6293 12.7762 22.56 11.52C22.56 11.5144 22.5581 11.5125 22.5581 11.5069C22.5581 11.5031 22.56 11.4994 22.56 11.4937C22.4737 9.93748 20.4093 9.17998 20.3381 9.1556L18.6018 8.45998C18.5887 8.45623 18.57 8.44498 18.5606 8.41873C18.5493 8.3906 18.5512 8.35498 18.5643 8.32498C18.6675 8.1056 18.72 7.88998 18.72 7.67998C18.72 6.75185 15.4631 2.87998 10.56 2.87998C10.3143 2.87998 10.11 3.06373 10.0819 3.30748C10.0556 3.55123 10.2168 3.77623 10.455 3.82873C11.865 4.14185 13.44 4.8281 13.44 5.27998C13.44 5.49748 13.3968 5.65873 13.32 5.72248C13.2431 5.78623 13.1006 5.77873 13.065 5.7731C13.0368 5.7656 13.0106 5.76185 12.9825 5.75998C12.9281 5.7581 7.53372 5.47873 5.7131 1.70998C5.63435 1.54873 5.47498 1.44935 5.30247 1.43998L5.30247 1.43998ZM14.88 7.19999C14.88 7.19999 16.5994 7.10062 16.8 8.15999L16.1325 8.15999C15.945 8.15999 15.765 8.08499 15.6319 7.95186L14.88 7.19999ZM20.16 10.08C20.16 10.08 21.12 10.1793 21.12 11.04C20.1768 11.04 20.16 10.08 20.16 10.08L20.16 10.08Z" id="Shape" fill="#D3D3D3" fill-rule="evenodd" stroke="none" />
    </g>
  </g>
</svg>