<?xml version="1.0" encoding="utf-8"?>
<svg width="24.00003px" height="24px" viewBox="0 0 24.00003 24" version="1.1" xmlns:xlink="http://www.w3.org/1999/xlink" xmlns="http://www.w3.org/2000/svg">
  <path d="M5.99899 0L18.001 0Q18.1483 0 18.2954 0.00722605Q18.4425 0.0144521 18.589 0.0288868Q18.7356 0.0433215 18.8813 0.06493Q19.0269 0.0865386 19.1714 0.115269Q19.3158 0.143999 19.4587 0.179782Q19.6015 0.215565 19.7425 0.258315Q19.8834 0.301064 20.022 0.350677Q20.1607 0.400289 20.2968 0.456646Q20.4328 0.513003 20.5659 0.575967Q20.6991 0.638932 20.8289 0.708353Q20.9588 0.777775 21.0851 0.853485Q21.2115 0.929195 21.3339 1.01101Q21.4563 1.09283 21.5746 1.18056Q21.6929 1.26828 21.8068 1.36171Q21.9206 1.45513 22.0297 1.55403Q22.1388 1.65293 22.243 1.75706Q22.3471 1.8612 22.446 1.97032Q22.5449 2.07943 22.6383 2.19327Q22.7317 2.30711 22.8195 2.4254Q22.9072 2.54368 22.989 2.66613Q23.0708 2.78858 23.1465 2.91489Q23.2223 3.04121 23.2917 3.17109Q23.3611 3.30096 23.4241 3.43409Q23.487 3.56722 23.5434 3.70328Q23.5997 3.83933 23.6493 3.97799Q23.699 4.11665 23.7417 4.25758Q23.7845 4.3985 23.8202 4.54136Q23.856 4.68421 23.8848 4.82865Q23.9135 4.97308 23.9351 5.11876Q23.9567 5.26443 23.9711 5.41099Q23.9856 5.55755 23.9928 5.70464Q24 5.85173 24 5.99899L24 18.001Q24 18.1483 23.9928 18.2954Q23.9856 18.4425 23.9711 18.589Q23.9567 18.7356 23.9351 18.8812Q23.9135 19.0269 23.8848 19.1713Q23.856 19.3158 23.8202 19.4586Q23.7845 19.6015 23.7417 19.7424Q23.699 19.8833 23.6493 20.022Q23.5997 20.1607 23.5434 20.2967Q23.487 20.4328 23.4241 20.5659Q23.3611 20.699 23.2917 20.8289Q23.2223 20.9588 23.1465 21.0851Q23.0708 21.2114 22.989 21.3339Q22.9072 21.4563 22.8195 21.5746Q22.7317 21.6929 22.6383 21.8067Q22.5449 21.9206 22.446 22.0297Q22.3471 22.1388 22.243 22.2429Q22.1388 22.3471 22.0297 22.446Q21.9206 22.5449 21.8068 22.6383Q21.6929 22.7317 21.5746 22.8194Q21.4563 22.9072 21.3339 22.989Q21.2115 23.0708 21.0851 23.1465Q20.9588 23.2222 20.8289 23.2916Q20.6991 23.3611 20.5659 23.424Q20.4328 23.487 20.2968 23.5434Q20.1607 23.5997 20.022 23.6493Q19.8834 23.6989 19.7425 23.7417Q19.6015 23.7844 19.4587 23.8202Q19.3158 23.856 19.1714 23.8847Q19.0269 23.9135 18.8813 23.9351Q18.7356 23.9567 18.589 23.9711Q18.4425 23.9855 18.2954 23.9928Q18.1483 24 18.001 24L5.99899 24Q5.85173 24 5.70464 23.9928Q5.55755 23.9855 5.41099 23.9711Q5.26443 23.9567 5.11876 23.9351Q4.97308 23.9135 4.82865 23.8847Q4.68421 23.856 4.54136 23.8202Q4.3985 23.7844 4.25758 23.7417Q4.11665 23.6989 3.97799 23.6493Q3.83933 23.5997 3.70328 23.5434Q3.56722 23.487 3.43409 23.424Q3.30096 23.3611 3.17109 23.2916Q3.04121 23.2222 2.91489 23.1465Q2.78858 23.0708 2.66613 22.989Q2.54368 22.9072 2.4254 22.8194Q2.30711 22.7317 2.19327 22.6383Q2.07943 22.5449 1.97032 22.446Q1.8612 22.3471 1.75706 22.2429Q1.65293 22.1388 1.55403 22.0297Q1.45513 21.9206 1.36171 21.8067Q1.26828 21.6929 1.18056 21.5746Q1.09283 21.4563 1.01101 21.3339Q0.929195 21.2114 0.853485 21.0851Q0.777775 20.9588 0.708353 20.8289Q0.638932 20.699 0.575967 20.5659Q0.513003 20.4328 0.456646 20.2967Q0.400289 20.1607 0.350677 20.022Q0.301064 19.8833 0.258315 19.7424Q0.215565 19.6015 0.179782 19.4586Q0.143999 19.3158 0.115269 19.1713Q0.0865386 19.0269 0.06493 18.8812Q0.0433215 18.7356 0.0288868 18.589Q0.0144521 18.4425 0.00722605 18.2954Q0 18.1483 0 18.001L0 5.99899Q0 5.85173 0.00722605 5.70464Q0.0144521 5.55755 0.0288868 5.41099Q0.0433215 5.26443 0.06493 5.11876Q0.0865386 4.97308 0.115269 4.82865Q0.143999 4.68421 0.179782 4.54136Q0.215565 4.3985 0.258315 4.25758Q0.301064 4.11665 0.350677 3.97799Q0.400289 3.83933 0.456646 3.70328Q0.513003 3.56722 0.575967 3.43409Q0.638932 3.30096 0.708353 3.17109Q0.777775 3.04121 0.853485 2.91489Q0.929195 2.78858 1.01101 2.66613Q1.09283 2.54368 1.18056 2.4254Q1.26828 2.30711 1.36171 2.19327Q1.45513 2.07943 1.55403 1.97032Q1.65293 1.8612 1.75706 1.75706Q1.8612 1.65293 1.97032 1.55403Q2.07943 1.45513 2.19327 1.36171Q2.30711 1.26828 2.4254 1.18056Q2.54368 1.09283 2.66613 1.01101Q2.78858 0.929195 2.91489 0.853485Q3.04121 0.777775 3.17109 0.708353Q3.30096 0.638932 3.43409 0.575967Q3.56722 0.513003 3.70328 0.456646Q3.83933 0.400289 3.97799 0.350677Q4.11665 0.301064 4.25758 0.258315Q4.3985 0.215565 4.54136 0.179782Q4.68421 0.143999 4.82865 0.115269Q4.97308 0.0865386 5.11876 0.06493Q5.26443 0.0433215 5.41099 0.0288868Q5.55755 0.0144521 5.70464 0.00722605Q5.85173 0 5.99899 0ZM19.3199 5.9248C19.2986 5.65863 19.1994 5.45105 19.0224 5.302Q18.7569 5.07843 18.218 5.07843C17.8746 5.07843 17.6244 5.13696 17.4674 5.25409C17.3104 5.37122 17.2305 5.52026 17.2278 5.70123C17.2172 5.89551 17.3017 6.05389 17.4814 6.17633C17.661 6.29877 17.9438 6.40121 18.3297 6.48373L19.0005 6.62747C19.9027 6.82175 20.5535 7.13248 20.9527 7.55966C21.352 7.98685 21.5529 8.51184 21.5556 9.13464C21.5529 9.94107 21.2575 10.5605 20.6693 10.9931C20.0811 11.4256 19.2693 11.6418 18.2339 11.6418Q17.168 11.6418 16.3755 11.3264C15.8472 11.1162 15.4373 10.7921 15.1458 10.3543C14.8544 9.91647 14.7074 9.35556 14.7047 8.67151L16.8127 8.67151C16.8313 9.04681 16.961 9.33228 17.2019 9.52789C17.4428 9.72351 17.7761 9.82132 18.202 9.82132C18.5586 9.82132 18.8281 9.75745 19.0104 9.6297C19.1927 9.50195 19.2852 9.33691 19.2879 9.13464C19.2852 8.94833 19.1934 8.7933 19.0125 8.66953C18.8315 8.54578 18.5134 8.43466 18.0583 8.33618L17.2438 8.16052C16.5199 8.00348 15.9496 7.74063 15.5331 7.37201C15.1166 7.00342 14.9096 6.49969 14.9123 5.86093C14.9096 5.34192 15.0487 4.88748 15.3295 4.49756C15.6103 4.10764 16.0002 3.80356 16.4993 3.5853C16.9983 3.36707 17.5712 3.25793 18.218 3.25793C18.878 3.25793 19.4489 3.36838 19.9307 3.58929C20.4124 3.81021 20.7844 4.12094 21.0465 4.52148C21.3087 4.92206 21.4411 5.38983 21.4438 5.9248L19.3199 5.9248ZM4.69196 11.5459L2.28058 3.36963L4.7558 3.36963L5.87369 8.39999L5.93753 8.39999L7.263 3.36963L9.21127 3.36963L10.5367 8.41595L10.6006 8.41595L11.7184 3.36963L14.1937 3.36963L11.7823 11.5459L9.65842 11.5459L8.26907 6.9787L8.2052 6.9787L6.81586 11.5459L4.69196 11.5459ZM2.28058 17.5928L16.4526 17.5928L16.4526 20.8507L2.28058 20.8507L2.28058 17.5928Z" id="WebStorm" fill="#D3D3D3" fill-rule="evenodd" stroke="none" />
</svg>