<?xml version="1.0" encoding="utf-8"?>
<svg width="24.148315px" height="24px" viewBox="0 0 24.148315 24" version="1.1" xmlns:xlink="http://www.w3.org/1999/xlink" xmlns="http://www.w3.org/2000/svg">
  <path d="M7.99084 7.47694L16.2831 7.47694C16.2831 7.47694 16.0927 5.79828 14.9639 3.07953C13.8351 0.360779 12.6349 0.0428619 12.0114 0.00132751C11.3878 -0.0402069 10.2939 0.89061 9.24725 3.07953C8.20065 5.26843 7.99084 7.47694 7.99084 7.47694L7.99084 7.47694ZM0.954956 7.47699L6.35748 7.47699C6.35748 7.47699 6.43106 6.94751 6.92288 4.90135C7.4147 2.85521 8.93314 0.378296 8.93314 0.378296C8.93314 0.378296 5.70755 1.28419 3.46777 3.64494C1.228 6.00569 0.954956 7.47699 0.954956 7.47699L0.954956 7.47699ZM23.2562 7.41408L17.728 7.41409C17.728 7.41409 17.4018 5.16808 17.037 3.95897C16.6722 2.74988 15.278 0.44104 15.278 0.44104C15.278 0.44104 18.3215 1.70064 19.8639 2.8282C21.4063 3.95576 23.2562 7.41408 23.2562 7.41408L23.2562 7.41408ZM17.9165 15.0154L23.6959 15.0154C23.6959 15.0154 24.2372 13.6312 24.1357 11.6859C24.0341 9.74063 23.6959 8.98462 23.6959 8.98462L17.9164 8.98463C17.9164 8.98463 18.1145 10.9771 18.1677 11.8116C18.2209 12.646 17.9165 15.0154 17.9165 15.0154L17.9165 15.0154ZM0.452423 8.98462L6.23187 8.98462C6.23187 8.98462 5.9274 11.354 5.98059 12.1884C6.03381 13.0229 6.23187 15.0154 6.23187 15.0154L0.452423 15.0154C0.452423 15.0154 0.114166 14.2594 0.0126648 12.3141C-0.0888062 10.3688 0.452423 8.98462 0.452423 8.98462L0.452423 8.98462ZM7.73953 8.98462L16.5344 8.98462C16.5344 8.98462 16.6867 13.165 16.5344 15.0154C15.2999 14.9708 7.73953 15.0154 7.73953 15.0154C7.73953 15.0154 7.55621 12.599 7.61389 11.5603C7.67157 10.5215 7.73953 8.98462 7.73953 8.98462L7.73953 8.98462ZM7.99084 16.5231L16.2831 16.5231C16.2831 16.5231 16.0733 18.7316 15.0267 20.9205C13.9801 23.1094 12.8861 24.0402 12.2626 23.9987C11.6391 23.9572 10.4388 23.6393 9.31009 20.9205C8.1813 18.2018 7.99084 16.5231 7.99084 16.5231L7.99084 16.5231ZM23.2562 16.5231L17.8536 16.5231C17.8536 16.5231 17.7801 17.0526 17.2882 19.0987C16.7964 21.1449 15.278 23.6218 15.278 23.6218C15.278 23.6218 18.5036 22.7159 20.7434 20.3551C22.9831 17.9944 23.2562 16.5231 23.2562 16.5231L23.2562 16.5231ZM6.48312 16.6487L0.954956 16.6487C0.954956 16.6487 2.80484 20.107 4.34726 21.2346C5.88965 22.3621 8.93314 23.6217 8.93314 23.6217C8.93314 23.6217 7.53894 21.3129 7.17416 20.1038C6.80936 18.8947 6.48312 16.6487 6.48312 16.6487L6.48312 16.6487Z" id="WebView" fill="#D3D3D3" fill-rule="evenodd" stroke="none" />
</svg>