<?xml version="1.0" encoding="utf-8"?>
<svg width="16px" height="16px" viewBox="0 0 16 16" version="1.1" xmlns:xlink="http://www.w3.org/1999/xlink" xmlns="http://www.w3.org/2000/svg">
  <defs>
    <path d="M0 0L16 0L16 16L0 16L0 0Z" id="path_1" />
    <clipPath id="mask_1">
      <use xlink:href="#path_1" />
    </clipPath>
  </defs>
  <g id="Youtube-icon">
    <path d="M0 0L16 0L16 16L0 16L0 0Z" id="Background" fill="#FFFFFF" fill-opacity="0" fill-rule="evenodd" stroke="none" />
    <g clip-path="url(#mask_1)">
      <path d="M8 2C5.96094 2 4.15625 2.21094 3.05859 2.375C2.16016 2.50781 1.44531 3.21094 1.28125 4.11328C1.14062 4.90234 1 6.05469 1 7.5C1 8.94531 1.14062 10.0977 1.28125 10.8867C1.44531 11.7891 2.16016 12.4883 3.05859 12.625C4.16016 12.7891 5.97266 13 8 13C10.0273 13 11.8359 12.7891 12.9375 12.625L12.9414 12.625C13.8398 12.4922 14.5547 11.7891 14.7188 10.8867C14.8594 10.0938 15 8.94141 15 7.5C15 6.05469 14.8594 4.90234 14.7148 4.11328C14.5547 3.21094 13.8398 2.50781 12.9414 2.375C11.8438 2.21094 10.0391 2 8 2L8 2ZM8 3C9.96875 3 11.7305 3.20312 12.793 3.36328C13.2617 3.43359 13.6406 3.80078 13.7305 4.28906C13.8633 5.02734 14 6.12109 14 7.5C14 8.87891 13.8633 9.97266 13.7344 10.707C13.6445 11.1992 13.2656 11.5664 12.793 11.6367C11.7227 11.793 9.95703 12 8 12C6.04297 12 4.27344 11.793 3.20703 11.6367C2.73828 11.5664 2.35547 11.1992 2.26562 10.707C2.13672 9.96875 2 8.87891 2 7.5C2 6.11719 2.13672 5.02734 2.26562 4.28906C2.35547 3.80078 2.73438 3.43359 3.20312 3.36719L3.20703 3.36719C4.26953 3.20703 6.03125 3 8 3L8 3ZM6 5L6 10L11 7.5L6 5Z" id="Shape" fill="#D3D3D3" fill-rule="evenodd" stroke="none" />
    </g>
  </g>
</svg>