<svg width="20" height="17" viewBox="0 0 20 17" fill="none" xmlns="http://www.w3.org/2000/svg">
<path d="M3.43611 1.80719H11.0701C11.335 1.80719 11.4477 1.95824 11.471 2.03377C11.4768 2.20806 11.4849 2.61939 11.471 2.87037C11.457 3.12135 11.1979 3.17248 11.0701 3.16667H3.43611C2.40431 3.48736 2.13473 4.29956 2.12892 4.66558V13.9205C2.32413 14.6595 3.05848 15.065 3.40125 15.1754H12.7956C13.688 15.0638 14.0621 14.1877 14.1377 13.7636C14.1435 12.5959 14.1586 10.2255 14.1725 10.0861C14.1865 9.94662 14.341 9.85367 14.4165 9.82462H15.2357C15.3891 9.82462 15.4507 10.0221 15.4623 10.1209V13.7636C15.2531 15.7296 13.6554 16.407 12.8827 16.5H3.40125C1.57467 16.2908 0.897258 14.6932 0.786874 13.9205C0.781064 11.0098 0.77293 5.08388 0.786874 4.66558C0.804303 4.1427 1.03088 3.34096 1.74548 2.62636C2.31716 2.05468 3.11077 1.84205 3.43611 1.80719Z" fill="#F5B32F"/>
<path d="M14.8697 3.44553L8.02 10.2952C7.90845 10.4486 7.9619 10.6147 8.00257 10.6786C8.36858 11.0679 9.13198 11.8743 9.25747 11.9858C9.38296 12.0974 9.56539 12.0323 9.64091 11.9858L16.5255 5.11874L18.4427 7.03595C19.0841 7.38453 19.4071 6.8907 19.4884 6.60022V1.09259C19.4884 0.688235 19.1166 0.529049 18.9307 0.5H13.3708C12.6875 0.737037 12.7724 1.24946 12.9002 1.47603L14.8697 3.44553Z" fill="#F5B32F"/>
</svg>
